<svg width="878" height="878" viewBox="0 0 878 878" fill="none" xmlns="http://www.w3.org/2000/svg">
<g clip-path="url(#clip0_2002_119)">
<circle cx="439" cy="439" r="439" fill="url(#paint0_linear_2002_119)"/>
<mask id="mask0_2002_119" style="mask-type:alpha" maskUnits="userSpaceOnUse" x="0" y="0" width="878" height="878">
<path d="M0 439C0 196.547 196.547 0 439 0C681.453 0 878 196.547 878 439C878 681.453 681.453 878 439 878C196.547 878 0 681.453 0 439Z" fill="url(#paint1_linear_2002_119)"/>
</mask>
<g mask="url(#mask0_2002_119)">
<path d="M159.539 597.752V635.001C159.539 642.174 57.0002 639.762 57.0002 629.419C57.0002 619.684 57.1917 575.572 57.0002 530.188C34.0374 499.434 34.0374 480.212 52.1937 460.346C70.3489 440.48 199.594 430.547 199.594 430.547C199.594 430.547 209.291 526.913 210.81 553.053C211.42 563.566 218.02 597.752 192.385 597.752H159.539Z" fill="#D1B9F0"/>
<g style="mix-blend-mode:multiply">
<path d="M159.501 594.57C138.626 592.216 118.452 585.408 100.258 574.574C100.258 574.574 113.075 606.029 159.501 614.565V594.57Z" fill="#A9A5A5"/>
</g>
<path d="M276.491 709.179C286.66 730.543 294.672 765.86 300.524 815.131H-84C-78.1446 765.855 -70.1337 730.537 -59.9672 709.179C-49.8351 687.89 44.1751 646.917 44.1751 646.917C44.1751 646.917 46.0459 628.189 50.5832 625.504C55.1205 622.819 160.537 622.82 165.941 625.504C171.345 628.187 172.35 646.907 172.35 646.907C172.35 646.907 266.379 687.934 276.491 709.179Z" fill="#9066ED"/>
<path d="M110.043 539.15C102.51 520.344 81.7101 442.202 105.803 442.202C125.737 456.505 137.339 461.708 163.674 433.567C168.878 449.972 179.314 452.938 197.425 455.486L206.888 496.108V446.392C217.781 447.525 226.438 448.753 228.565 441.044C230.692 433.336 216.952 423.763 216.952 423.763C216.952 423.763 237.172 428.326 236.875 417.291C236.578 406.256 216.918 398.121 216.918 398.121C216.918 398.121 240.567 401.572 240.08 385.273C239.595 368.974 120.799 335.204 61.8955 393.059C43.4601 389.953 33.4321 388.948 22.6513 404.113C15.7356 421.257 23.7293 428.994 35.9311 443.119C26.8545 443.818 25.5811 446.238 23.6146 452.927C21.6481 459.617 30.268 472.499 40.1055 483.145C31.7259 488.149 27.5177 488.165 28.5129 496.108C29.5081 504.049 40.2321 507.547 40.2321 507.547L57.9336 531.281V576.013L68.8192 500.923C81.5994 519.66 90.5075 538.781 95.6122 563.173C102.025 593.822 142.911 606.248 183.797 606.248C207.847 606.248 223.079 586.367 211.054 553.233C210.253 556.547 203.358 562.061 190.211 564.001C173.375 566.487 119.663 563.173 110.043 539.15Z" fill="black"/>
<path d="M110.043 539.15C102.51 520.344 81.7101 442.202 105.803 442.202C125.737 456.505 137.339 461.708 163.674 433.567C168.878 449.972 179.314 452.938 197.425 455.486L206.888 496.108V446.392C217.781 447.525 226.438 448.753 228.565 441.044C230.692 433.336 216.952 423.763 216.952 423.763C216.952 423.763 237.172 428.326 236.875 417.291C236.578 406.256 216.918 398.121 216.918 398.121C216.918 398.121 240.567 401.572 240.08 385.273C239.595 368.974 120.799 335.204 61.8955 393.059C43.4601 389.953 33.4321 388.948 22.6513 404.113C15.7356 421.257 23.7293 428.994 35.9311 443.119C26.8545 443.818 25.5811 446.238 23.6146 452.927C21.6481 459.617 30.268 472.499 40.1055 483.145C31.7259 488.149 27.5177 488.165 28.5129 496.108C29.5081 504.049 40.2321 507.547 40.2321 507.547L57.9336 531.281V576.013L68.8192 500.923C81.5994 519.66 90.5075 538.781 95.6122 563.173C102.025 593.822 142.911 606.248 183.797 606.248C207.847 606.248 223.079 586.367 211.054 553.233C210.253 556.547 203.358 562.061 190.211 564.001C173.375 566.487 119.663 563.173 110.043 539.15Z" fill="#644B85"/>
<path fill-rule="evenodd" clip-rule="evenodd" d="M196.196 541.84C196.707 542.848 196.33 544.094 195.354 544.622C176.02 555.08 162.648 546.013 158.266 539.686C157.625 538.76 157.832 537.473 158.728 536.81C159.623 536.148 160.87 536.362 161.51 537.287C164.852 542.112 176.106 550.382 193.505 540.97C194.48 540.442 195.685 540.832 196.196 541.84Z" fill="white"/>
<path d="M800.108 409.771C788.692 373.235 768.964 361 738.848 361C683.204 361 619.222 404.799 623.145 468.797C627.354 537.442 613.508 572.319 594.223 584.629C594.223 584.629 634.771 610.274 714.717 605.851C696.088 590.271 686.276 565.652 685.976 545.035C685.787 532.138 689.398 483.926 689.66 476.918C753.943 480.935 788.097 455.857 788.097 455.857C788.097 455.857 760.834 507.024 764.93 531.742C769.026 556.461 761.872 582.422 759.673 590.727C758.274 596.015 846.798 590.957 852.722 584.629C856.103 581.018 838.5 549.238 836.522 525.644C834.281 498.915 846.908 479.995 842.654 460.314C836.488 431.782 825.643 411.778 800.108 409.771Z" fill="#644B85"/>
<path d="M682.801 617.325C682.801 602.148 682.303 527.288 682.328 526.023C642.156 532.165 642.969 452.906 683.614 472.3C692.556 478.201 717.755 472.3 715.317 423.396C759.213 472.3 810.176 415.26 814.546 461.74C820.514 525.205 814.511 591.624 776.485 591.629C772.325 591.576 768.177 591.147 764.09 590.344V617.325C764.09 634.189 793.354 642.62 793.354 642.62C793.354 642.62 742.805 692.031 721.82 691.757C700.834 691.484 653.537 642.62 653.537 642.62C653.537 642.62 682.801 634.189 682.801 617.325Z" fill="#D1B9F0"/>
<g style="mix-blend-mode:multiply">
<path d="M764.083 590.336C743.914 585.695 724.801 577.049 707.8 564.874C707.8 564.874 721.828 600.443 764.031 607.192L764.083 590.336Z" fill="#9F9F9F"/>
</g>
<path d="M873.111 715.2C884.91 752.604 891 866 891 866H556C556 866 562.09 752.604 573.888 715.2C584.225 682.434 652.335 644.813 672.295 634C683.82 652.392 700.336 664.159 723.5 664.159C746.663 664.159 763.18 652.392 774.704 634C794.664 644.813 862.775 682.434 873.111 715.2Z" fill="#E1CBED"/>
<path fill-rule="evenodd" clip-rule="evenodd" d="M810.507 513.765C823.869 514.972 835.644 504.715 836.808 490.855C837.972 476.995 828.083 464.781 814.721 463.574C801.36 462.367 789.584 472.624 788.42 486.483C787.256 500.343 797.145 512.557 810.507 513.765ZM810.156 517.948C825.744 519.356 839.482 507.39 840.84 491.22C842.198 475.051 830.662 460.8 815.073 459.392C799.484 457.983 785.746 469.95 784.388 486.119C783.03 502.289 794.566 516.539 810.156 517.948Z" fill="white"/>
<path fill-rule="evenodd" clip-rule="evenodd" d="M742.179 517.072C755.541 518.279 767.317 508.022 768.482 494.163C769.645 480.303 759.757 468.089 746.395 466.881C733.033 465.674 721.257 475.931 720.094 489.791C718.929 503.651 728.817 515.865 742.179 517.072ZM741.828 521.254C757.418 522.663 771.155 510.697 772.513 494.528C773.872 478.357 762.335 464.107 746.746 462.699C731.157 461.29 717.419 473.256 716.061 489.427C714.703 505.596 726.239 519.846 741.828 521.254Z" fill="white"/>
<path fill-rule="evenodd" clip-rule="evenodd" d="M772.23 484.946C774.285 483.156 776.941 482.285 779.614 482.527C782.288 482.768 784.76 484.102 786.485 486.234C788.212 488.366 789.05 491.121 788.817 493.894L784.785 493.53C784.925 491.866 784.421 490.213 783.386 488.934C782.351 487.655 780.867 486.854 779.263 486.71C777.659 486.565 776.065 487.086 774.832 488.161C773.599 489.235 772.828 490.774 772.688 492.437L768.656 492.073C768.888 489.3 770.173 486.736 772.23 484.946Z" fill="white"/>
<path fill-rule="evenodd" clip-rule="evenodd" d="M687.49 492.673L718.216 489.656L718.597 493.835L687.872 496.854L687.49 492.673Z" fill="white"/>
<path fill-rule="evenodd" clip-rule="evenodd" d="M810.507 513.765C823.869 514.972 835.644 504.715 836.808 490.855C837.972 476.995 828.083 464.781 814.721 463.574C801.36 462.367 789.584 472.624 788.42 486.483C787.256 500.343 797.145 512.557 810.507 513.765ZM810.156 517.948C825.744 519.356 839.482 507.39 840.84 491.22C842.198 475.051 830.662 460.8 815.073 459.392C799.484 457.983 785.746 469.95 784.388 486.119C783.03 502.289 794.566 516.539 810.156 517.948Z" fill="white"/>
<path fill-rule="evenodd" clip-rule="evenodd" d="M742.179 517.072C755.541 518.279 767.317 508.023 768.482 494.164C769.645 480.304 759.757 468.09 746.395 466.882C733.033 465.675 721.257 475.931 720.094 489.791C718.929 503.651 728.817 515.865 742.179 517.072ZM741.828 521.255C757.418 522.663 771.155 510.697 772.513 494.528C773.872 478.358 762.335 464.108 746.746 462.699C731.157 461.29 717.419 473.257 716.061 489.427C714.703 505.596 726.239 519.846 741.828 521.255Z" fill="white"/>
<path fill-rule="evenodd" clip-rule="evenodd" d="M772.23 484.946C774.285 483.156 776.941 482.285 779.614 482.527C782.288 482.768 784.76 484.102 786.485 486.234C788.212 488.366 789.05 491.121 788.817 493.894L784.785 493.53C784.925 491.866 784.421 490.213 783.386 488.934C782.351 487.655 780.867 486.854 779.263 486.709C777.659 486.565 776.065 487.086 774.832 488.161C773.599 489.235 772.828 490.773 772.688 492.437L768.656 492.073C768.888 489.3 770.173 486.736 772.23 484.946Z" fill="white"/>
<path fill-rule="evenodd" clip-rule="evenodd" d="M687.49 492.673L718.216 489.656L718.597 493.835L687.872 496.854L687.49 492.673Z" fill="white"/>
<path d="M612.419 368.971C612.419 437.401 538.694 459.726 496.644 408.286L531.072 546.095C644.606 610.588 726.741 719.073 724.77 755.925L612.419 878L478.386 792.778C189.822 708.017 217.548 527.13 267.481 447.283C259.597 233.536 389.773 220.01 478.386 286.051C579.305 258.412 609.791 329.813 612.419 368.971Z" fill="#644B85"/>
<path d="M180.406 720.095C162.803 754.212 154 878.494 154 878.494H648.497C648.497 878.494 639.694 754.212 622.091 720.095C595.687 668.921 401.249 603.124 401.249 603.124C401.249 603.124 206.811 668.921 180.406 720.095Z" fill="#E1CBED"/>
<path d="M343.645 632.11C343.645 632.11 374.877 671.364 403.068 671.364C431.26 671.364 458.867 632.11 458.867 632.11V578.968C464.932 579.932 471.075 580.3 477.211 580.064C534.794 580.06 556.506 495.66 545.284 392.973C538.083 392.973 521.279 392.973 497.275 359.155C503.275 406.258 433.662 399.011 407.258 361.571C420.459 406.258 385.653 436.453 355.647 418.336C296.809 382.81 283.582 491.106 343.645 492.009V632.11Z" fill="#D1B9F0"/>
<path d="M458.879 578.971C429.101 573.454 400.607 562.396 374.862 546.362C374.862 546.362 404.868 598.295 458.879 598.295V578.971Z" fill="#80728F"/>
<path fill-rule="evenodd" clip-rule="evenodd" d="M282.556 506.505C282.556 488.239 297.272 473.43 315.425 473.43V467.416C293.972 467.416 276.579 484.918 276.579 506.505C276.579 528.093 293.972 545.595 315.425 545.595C336.878 545.595 354.271 528.093 354.271 506.505C354.271 496.741 349.363 488.796 345.13 481.944C344.751 481.329 344.376 480.723 344.011 480.125L344.005 480.116L342.619 477.86L337.536 481.027L338.918 483.273L338.921 483.277C339.257 483.826 339.592 484.372 339.923 484.913C344.296 492.03 348.294 498.537 348.294 506.505C348.294 524.772 333.578 539.581 315.425 539.581C297.272 539.581 282.556 524.772 282.556 506.505Z" fill="white"/>
</g>
</g>
<defs>
<linearGradient id="paint0_linear_2002_119" x1="726" y1="116" x2="63" y2="699.5" gradientUnits="userSpaceOnUse">
<stop stop-color="#9169EB"/>
<stop offset="1" stop-color="#FBC2EB"/>
</linearGradient>
<linearGradient id="paint1_linear_2002_119" x1="101.5" y1="712.5" x2="684.5" y2="81.5" gradientUnits="userSpaceOnUse">
<stop stop-color="#E6C1DC"/>
<stop offset="1" stop-color="#8E64EE"/>
</linearGradient>
<clipPath id="clip0_2002_119">
<rect width="878" height="878" fill="white"/>
</clipPath>
</defs>
</svg>
