<svg viewBox="0 0 512 512" xmlns="http://www.w3.org/2000/svg"><path d="M339.021 473.543a11.265 11.265 0 0 0 11.265-11.265V399.34a40.546 40.546 0 0 0-40.5-40.567H202.214a40.546 40.546 0 0 0-40.5 40.567v62.94a11.265 11.265 0 0 0 11.265 11.264Z" fill="#d9d9d9" class="fill-071b2b"></path><rect height="262.215" rx="112.47" width="224.94" x="143.53" y="130.774" fill="#ffffff" class="fill-d87761"></rect><rect height="45" rx="15" width="30" x="241" y="275.861" fill="#d9d9d9" class="fill-bf5e48"></rect><path d="M336.175 244.941a7.497 7.497 0 0 0-10.606 0l-2.338 2.339a20.684 20.684 0 1 0 10.605 10.605l2.339-2.338a7.497 7.497 0 0 0 0-10.606Z" fill="#d9d9d9" class="fill-0d253d"></path><circle cx="319.573" cy="258.468" r="7.684" fill="#ffffff" class="fill-ffefdc"></circle><path d="M197.036 245.527a20.522 20.522 0 0 0-8.268 1.75l-2.337-2.336a7.5 7.5 0 0 0-10.606 10.606l2.338 2.336a20.612 20.612 0 1 0 18.873-12.356Z" fill="#d9d9d9" class="fill-0d253d"></path><circle cx="201.647" cy="258.468" r="7.684" fill="#ffffff" class="fill-ffefdc"></circle><path d="M144.615 227.99h222.77a112.374 112.374 0 0 0-222.77 0Z" fill="#d9d9d9" class="fill-071b2b"></path><path d="M250.797 108.374c-73.04 2.763-129.764 65.099-129.764 138.19V387.09a59.937 59.937 0 0 0 37.417 55.637c28.496 11.486 61.862 18.1 97.55 18.1s69.054-6.613 97.55-18.1a59.937 59.937 0 0 0 37.417-55.637V243.242c0-76.15-63.387-137.772-140.17-134.868Zm-99.764 134.869a105.08 105.08 0 0 1 110.25-104.837c56.386 2.776 99.684 51.42 99.684 107.875v34.379a13.88 13.88 0 0 1-14.007 13.618H165.04a13.88 13.88 0 0 1-14.007-13.619v-.14Z" fill="#d9d9d9" class="fill-0d253d"></path></svg>