<?xml version="1.0" ?><svg id="Female_malayan_skin_07" viewBox="0 0 512 512" xmlns="http://www.w3.org/2000/svg"><path d="M339.0214,473.543a11.2647,11.2647,0,0,0,11.2647-11.2647V399.3391a40.5458,40.5458,0,0,0-40.5-40.5675H202.2143a40.5463,40.5463,0,0,0-40.5,40.5675v62.9392a11.2646,11.2646,0,0,0,11.2646,11.2647Z" style="fill:#071b2b"/><rect height="262.2149" rx="112.4697" style="fill:#d87761" width="224.9396" x="143.5303" y="130.7745"/><rect height="45" rx="15" style="fill:#bf5e48" width="30" x="241.0002" y="275.8613"/><path d="M336.1746,244.9413a7.4973,7.4973,0,0,0-10.6055,0l-2.3378,2.3383a20.684,20.684,0,1,0,10.6051,10.6055l2.3382-2.3383A7.4973,7.4973,0,0,0,336.1746,244.9413Z" style="fill:#0d253d"/><circle cx="319.5726" cy="258.4677" r="7.6845" style="fill:#ffefdc"/><path d="M197.0364,245.5273a20.5221,20.5221,0,0,0-8.2681,1.7505l-2.3373-2.3365a7.4992,7.4992,0,0,0-10.6055,10.6055l2.3373,2.3364a20.6122,20.6122,0,1,0,18.8736-12.3559Z" style="fill:#0d253d"/><circle cx="201.6471" cy="258.4677" r="7.6845" style="fill:#ffefdc"/><path d="M144.6148,227.9891H367.3855a112.3741,112.3741,0,0,0-222.7707,0Z" style="fill:#071b2b"/><path d="M250.7971,108.3744c-73.0395,2.763-129.7642,65.0982-129.7642,138.19V387.09A59.937,59.937,0,0,0,158.45,442.7272c28.4956,11.4861,61.8617,18.1,97.5505,18.1s69.0531-6.6135,97.5494-18.0993A59.9374,59.9374,0,0,0,390.9671,387.09l0-143.8479C390.967,167.0923,327.58,105.47,250.7971,108.3744ZM151.0329,243.2425A105.08,105.08,0,0,1,261.2824,138.4057c56.3862,2.7763,99.6847,51.4206,99.6846,107.8751v34.2383l0,.1409A13.88,13.88,0,0,1,346.96,294.2777H165.04a13.88,13.88,0,0,1-14.0071-13.6184l0-.14Z" style="fill:#0d253d"/></svg>