<svg width="878" height="878" viewBox="0 0 878 878" fill="none" xmlns="http://www.w3.org/2000/svg">
<g clip-path="url(#clip0_2002_119)">
<circle cx="439" cy="439" r="439" fill="url(#paint0_linear_2002_119)"/>
<mask id="mask0_2002_119" style="mask-type:alpha" maskUnits="userSpaceOnUse" x="0" y="0" width="878" height="878">
<path d="M0 439C0 196.547 196.547 0 439 0C681.453 0 878 196.547 878 439C878 681.453 681.453 878 439 878C196.547 878 0 681.453 0 439Z" fill="url(#paint1_linear_2002_119)"/>
</mask>
<g mask="url(#mask0_2002_119)">
<path d="M192.539 597.752V635.001C192.539 642.174 90.0002 639.762 90.0002 629.419C90.0002 619.684 90.1917 575.572 90.0002 530.188C67.0374 499.434 67.0374 480.212 85.1937 460.346C103.349 440.48 232.594 430.547 232.594 430.547C232.594 430.547 242.291 526.913 243.81 553.053C244.42 563.566 251.02 597.752 225.385 597.752H192.539Z" fill="#D1B9F0"/>
<g style="mix-blend-mode:multiply">
<path d="M192.501 594.57C171.626 592.216 151.452 585.408 133.258 574.574C133.258 574.574 146.075 606.029 192.501 614.565V594.57Z" fill="#A9A5A5"/>
</g>
<path d="M309.491 709.179C319.66 730.543 327.672 765.86 333.524 815.131H-51C-45.1446 765.855 -37.1337 730.537 -26.9672 709.179C-16.8351 687.89 77.1751 646.917 77.1751 646.917C77.1751 646.917 79.0459 628.189 83.5832 625.504C88.1205 622.819 193.537 622.82 198.941 625.504C204.345 628.187 205.35 646.907 205.35 646.907C205.35 646.907 299.379 687.934 309.491 709.179Z" fill="#9066ED"/>
<path d="M143.043 539.15C135.51 520.344 114.71 442.202 138.803 442.202C158.737 456.505 170.339 461.708 196.674 433.567C201.878 449.972 212.314 452.938 230.425 455.486L239.888 496.108V446.392C250.781 447.525 259.438 448.753 261.565 441.044C263.692 433.336 249.952 423.763 249.952 423.763C249.952 423.763 270.172 428.326 269.875 417.291C269.578 406.256 249.918 398.121 249.918 398.121C249.918 398.121 273.567 401.572 273.08 385.273C272.595 368.974 153.799 335.204 94.8955 393.059C76.4601 389.953 66.4321 388.948 55.6513 404.113C48.7356 421.257 56.7293 428.994 68.9311 443.119C59.8545 443.818 58.5811 446.238 56.6146 452.927C54.6481 459.617 63.268 472.499 73.1055 483.145C64.7259 488.149 60.5177 488.165 61.5129 496.108C62.5081 504.049 73.2321 507.547 73.2321 507.547L90.9336 531.281V576.013L101.819 500.923C114.599 519.66 123.508 538.781 128.612 563.173C135.025 593.822 175.911 606.248 216.797 606.248C240.847 606.248 256.079 586.367 244.054 553.233C243.253 556.547 236.358 562.061 223.211 564.001C206.375 566.487 152.663 563.173 143.043 539.15Z" fill="black"/>
<path d="M143.043 539.15C135.51 520.344 114.71 442.202 138.803 442.202C158.737 456.505 170.339 461.708 196.674 433.567C201.878 449.972 212.314 452.938 230.425 455.486L239.888 496.108V446.392C250.781 447.525 259.438 448.753 261.565 441.044C263.692 433.336 249.952 423.763 249.952 423.763C249.952 423.763 270.172 428.326 269.875 417.291C269.578 406.256 249.918 398.121 249.918 398.121C249.918 398.121 273.567 401.572 273.08 385.273C272.595 368.974 153.799 335.204 94.8955 393.059C76.4601 389.953 66.4321 388.948 55.6513 404.113C48.7356 421.257 56.7293 428.994 68.9311 443.119C59.8545 443.818 58.5811 446.238 56.6146 452.927C54.6481 459.617 63.268 472.499 73.1055 483.145C64.7259 488.149 60.5177 488.165 61.5129 496.108C62.5081 504.049 73.2321 507.547 73.2321 507.547L90.9336 531.281V576.013L101.819 500.923C114.599 519.66 123.508 538.781 128.612 563.173C135.025 593.822 175.911 606.248 216.797 606.248C240.847 606.248 256.079 586.367 244.054 553.233C243.253 556.547 236.358 562.061 223.211 564.001C206.375 566.487 152.663 563.173 143.043 539.15Z" fill="#644B85"/>
<path fill-rule="evenodd" clip-rule="evenodd" d="M229.196 541.84C229.707 542.848 229.33 544.094 228.354 544.622C209.02 555.08 195.648 546.013 191.266 539.686C190.625 538.76 190.832 537.473 191.728 536.81C192.623 536.148 193.87 536.362 194.51 537.287C197.852 542.112 209.106 550.382 226.505 540.97C227.48 540.442 228.685 540.832 229.196 541.84Z" fill="white"/>
<path d="M837.297 360.539C825.881 324.002 806.153 311.768 776.037 311.768C720.392 311.767 656.41 355.567 660.333 419.565C664.542 488.209 650.696 523.086 631.411 535.397C631.411 535.397 671.959 561.042 751.905 556.619C733.276 541.038 723.465 516.419 723.164 495.803C722.975 482.906 726.586 434.693 726.848 427.685C791.131 431.702 825.286 406.624 825.286 406.624C825.286 406.624 798.022 457.792 802.118 482.51C806.214 507.229 799.06 533.19 796.861 541.495C795.462 546.783 883.987 541.725 889.91 535.397C893.291 531.785 875.688 500.006 873.71 476.412C871.469 449.683 884.096 430.763 879.842 411.082C873.676 382.55 862.831 362.545 837.297 360.539Z" fill="#644B85"/>
<path d="M719.99 568.093C719.99 552.916 719.492 478.055 719.516 476.791C679.345 482.933 680.157 403.674 720.802 423.067C729.744 428.969 754.943 423.067 752.505 374.163C796.401 423.067 847.364 366.028 851.734 412.507C857.702 475.973 851.699 542.391 813.673 542.397C809.513 542.344 805.365 541.915 801.278 541.112V568.093C801.278 584.957 830.542 593.388 830.542 593.388C830.542 593.388 779.993 642.799 759.008 642.525C738.023 642.252 690.726 593.388 690.726 593.388C690.726 593.388 719.99 584.957 719.99 568.093Z" fill="#D1B9F0"/>
<g style="mix-blend-mode:multiply">
<path d="M801.271 541.103C781.102 536.463 761.989 527.816 744.989 515.641C744.989 515.641 759.016 551.211 801.22 557.96L801.271 541.103Z" fill="#9F9F9F"/>
</g>
<path d="M910.215 643.978C922.01 671.166 928.099 753.591 928.099 753.591H593.188C593.188 753.591 599.277 671.166 611.072 643.978C621.406 620.162 689.498 592.816 709.453 584.957C720.974 598.325 737.486 606.878 760.643 606.878C783.801 606.878 800.313 598.325 811.834 584.957C831.789 592.816 899.881 620.162 910.215 643.978Z" fill="#E1CBED"/>
<path fill-rule="evenodd" clip-rule="evenodd" d="M847.695 464.532C861.057 465.739 872.832 455.483 873.996 441.623C875.16 427.763 865.272 415.549 851.909 414.342C838.548 413.135 826.772 423.391 825.608 437.25C824.445 451.11 834.333 463.324 847.695 464.532ZM847.344 468.715C862.932 470.124 876.671 458.157 878.029 441.987C879.386 425.818 867.85 411.568 852.262 410.159C836.672 408.751 822.934 420.717 821.576 436.886C820.218 453.056 831.755 467.307 847.344 468.715Z" fill="white"/>
<path fill-rule="evenodd" clip-rule="evenodd" d="M779.368 467.839C792.73 469.046 804.505 458.79 805.67 444.931C806.834 431.071 796.945 418.857 783.583 417.649C770.221 416.442 758.446 426.698 757.282 440.558C756.117 454.418 766.006 466.632 779.368 467.839ZM779.016 472.022C794.606 473.431 808.343 461.464 809.701 445.295C811.06 429.125 799.524 414.875 783.934 413.466C768.345 412.058 754.608 424.024 753.25 440.194C751.892 456.363 763.427 470.613 779.016 472.022Z" fill="white"/>
<path fill-rule="evenodd" clip-rule="evenodd" d="M809.418 435.714C811.473 433.923 814.129 433.053 816.803 433.294C819.476 433.536 821.948 434.87 823.673 437.002C825.4 439.133 826.239 441.889 826.005 444.662L821.973 444.297C822.113 442.634 821.609 440.981 820.574 439.701C819.539 438.423 818.055 437.622 816.452 437.477C814.848 437.332 813.253 437.854 812.02 438.929C810.787 440.002 810.016 441.541 809.876 443.205L805.844 442.841C806.077 440.067 807.362 437.503 809.418 435.714Z" fill="white"/>
<path fill-rule="evenodd" clip-rule="evenodd" d="M724.679 443.441L755.404 440.423L755.785 444.603L725.06 447.621L724.679 443.441Z" fill="white"/>
<path fill-rule="evenodd" clip-rule="evenodd" d="M847.695 464.532C861.057 465.739 872.832 455.483 873.996 441.623C875.16 427.763 865.272 415.549 851.909 414.342C838.548 413.135 826.772 423.391 825.608 437.25C824.445 451.11 834.333 463.324 847.695 464.532ZM847.344 468.715C862.932 470.124 876.671 458.157 878.028 441.987C879.386 425.818 867.85 411.568 852.262 410.159C836.672 408.751 822.934 420.717 821.576 436.886C820.218 453.056 831.754 467.307 847.344 468.715Z" fill="white"/>
<path fill-rule="evenodd" clip-rule="evenodd" d="M779.368 467.84C792.73 469.047 804.505 458.79 805.67 444.931C806.834 431.071 796.945 418.857 783.583 417.649C770.221 416.442 758.446 426.699 757.282 440.559C756.117 454.419 766.006 466.633 779.368 467.84ZM779.017 472.022C794.606 473.431 808.343 461.465 809.701 445.296C811.06 429.125 799.524 414.875 783.934 413.467C768.345 412.058 754.608 424.024 753.25 440.194C751.892 456.363 763.427 470.614 779.017 472.022Z" fill="white"/>
<path fill-rule="evenodd" clip-rule="evenodd" d="M809.418 435.714C811.473 433.923 814.129 433.053 816.803 433.294C819.476 433.536 821.948 434.87 823.673 437.002C825.4 439.133 826.239 441.888 826.005 444.662L821.973 444.297C822.113 442.634 821.609 440.981 820.574 439.701C819.539 438.423 818.055 437.622 816.452 437.477C814.848 437.332 813.253 437.854 812.02 438.929C810.787 440.002 810.016 441.541 809.876 443.205L805.844 442.84C806.077 440.067 807.362 437.503 809.418 435.714Z" fill="white"/>
<path fill-rule="evenodd" clip-rule="evenodd" d="M724.679 443.441L755.404 440.423L755.785 444.603L725.06 447.621L724.679 443.441Z" fill="white"/>
<path d="M664.141 361.111C664.141 424.982 590.864 445.819 549.071 397.807L583.289 526.434C696.132 586.63 777.767 687.887 775.808 722.284L664.141 836.225L530.924 756.681C244.117 677.567 271.673 508.732 321.303 434.205C313.467 234.7 442.85 222.075 530.924 283.716C631.228 257.918 661.529 324.562 664.141 361.111Z" fill="#644B85"/>
<path d="M234.601 720.095C216.998 754.212 208.195 878.494 208.195 878.494H702.692C702.692 878.494 693.889 754.212 676.286 720.095C649.881 668.921 455.444 603.124 455.444 603.124C455.444 603.124 261.006 668.921 234.601 720.095Z" fill="#E1CBED"/>
<path d="M397.84 632.11C397.84 632.11 429.072 671.364 457.263 671.364C485.455 671.364 513.062 632.11 513.062 632.11V578.968C519.127 579.932 525.27 580.3 531.406 580.064C588.989 580.06 610.701 495.66 599.479 392.973C592.278 392.973 575.474 392.973 551.47 359.155C557.47 406.258 487.857 399.011 461.453 361.571C474.654 406.258 439.848 436.453 409.842 418.336C351.004 382.81 337.777 491.106 397.84 492.009V632.11Z" fill="#D1B9F0"/>
<path d="M513.074 578.971C483.296 573.454 454.802 562.396 429.057 546.362C429.057 546.362 459.063 598.295 513.074 598.295V578.971Z" fill="#80728F"/>
<path fill-rule="evenodd" clip-rule="evenodd" d="M336.751 506.505C336.751 488.239 351.467 473.43 369.62 473.43V467.416C348.167 467.416 330.774 484.918 330.774 506.505C330.774 528.093 348.167 545.595 369.62 545.595C391.073 545.595 408.466 528.093 408.466 506.505C408.466 496.741 403.558 488.796 399.325 481.944C398.946 481.329 398.571 480.723 398.206 480.125L398.2 480.116L396.814 477.86L391.731 481.027L393.113 483.273L393.116 483.277C393.452 483.826 393.787 484.372 394.118 484.913C398.491 492.03 402.49 498.537 402.49 506.505C402.49 524.772 387.773 539.581 369.62 539.581C351.467 539.581 336.751 524.772 336.751 506.505Z" fill="white"/>
</g>
</g>
<defs>
<linearGradient id="paint0_linear_2002_119" x1="726" y1="116" x2="63" y2="699.5" gradientUnits="userSpaceOnUse">
<stop stop-color="#9169EB"/>
<stop offset="1" stop-color="#FBC2EB"/>
</linearGradient>
<linearGradient id="paint1_linear_2002_119" x1="101.5" y1="712.5" x2="684.5" y2="81.5" gradientUnits="userSpaceOnUse">
<stop stop-color="#E6C1DC"/>
<stop offset="1" stop-color="#8E64EE"/>
</linearGradient>
<clipPath id="clip0_2002_119">
<rect width="878" height="878" fill="white"/>
</clipPath>
</defs>
</svg>
