<?xml version="1.0" ?><svg viewBox="0 0 512 512" xmlns="http://www.w3.org/2000/svg"><g id="Female_malayan_skin_01"><path d="M337.2765,222.7712l-.01-.0028A87.9992,87.9992,0,1,0,168,189.0145c0,97.4733,84.7191,216.9171,216.7848,214.9727C384.7846,403.9872,303.728,304.837,337.2765,222.7712Z" style="fill:#071b2b"/><path d="M196.3388,459.2315a11.2273,11.2273,0,0,0,10.795,14.3115h97.7316a11.2268,11.2268,0,0,0,10.795-14.3115l-3.6246-12.6874H199.9643Z" style="fill:#d87761"/><path d="M261.4639,368.543H250.5362a37.5,37.5,0,0,0-36.0571,27.1985l-14.5148,50.8026H312.0358L297.52,395.7415A37.5,37.5,0,0,0,261.4639,368.543Z" style="fill:#0d263e"/><path d="M377.7958,228.13h-10.459A112.4033,112.4033,0,0,0,256,130.775h0A112.4033,112.4033,0,0,0,144.6623,228.13h-10.459a33.7518,33.7518,0,1,0,0,67.5036h10.459A112.4049,112.4049,0,0,0,256,392.9894h0A112.4049,112.4049,0,0,0,367.3368,295.634h10.459a33.7518,33.7518,0,1,0,0-67.5036Z" style="fill:#d87761"/><path d="M256.0014,358.7981a37.2964,37.2964,0,0,1-26.521-10.979,7.5018,7.5018,0,1,1,10.6054-10.6128c8.5108,8.5034,23.3277,8.5,31.8238.0037a7.4992,7.4992,0,1,1,10.6054,10.6054A37.2425,37.2425,0,0,1,256.0014,358.7981Z" style="fill:#8c1813"/><rect height="45" rx="15" style="fill:#bf5e48" width="30" x="240.9998" y="275.8614"/><path d="M380.468,241.8058H366.9694v40.1514H380.468a20.2465,20.2465,0,0,0,0-40.1514Z" style="fill:#bf5e48"/><path d="M336.1742,244.9414a7.4972,7.4972,0,0,0-10.6054,0L323.231,247.28a20.6842,20.6842,0,1,0,10.605,10.6054l2.3382-2.3382A7.4973,7.4973,0,0,0,336.1742,244.9414Z" style="fill:#0d253d"/><circle cx="319.5723" cy="258.4678" r="7.6845" style="fill:#ffefdc"/><path d="M197.036,245.5274a20.5237,20.5237,0,0,0-8.2681,1.75l-2.3373-2.3364a7.4992,7.4992,0,0,0-10.6055,10.6055l2.3373,2.3364a20.6122,20.6122,0,1,0,18.8736-12.3559Z" style="fill:#0d253d"/><circle cx="201.6467" cy="258.4678" r="7.6845" style="fill:#ffefdc"/><path d="M131.5313,241.8058H145.03v40.1514H131.5313a20.2465,20.2465,0,0,1,0-40.1514Z" style="fill:#bf5e48"/><path d="M367.1969,227.2079a112.3272,112.3272,0,0,0-222.3944,0c2.4682-8.1481,23.78-68.8348,111.1981-68.8348C343.417,158.3731,364.7286,219.06,367.1969,227.2079Z" style="fill:#0d263e"/></g></svg>