<?xml version="1.0" ?><svg viewBox="0 0 512 512" xmlns="http://www.w3.org/2000/svg"><g id="Male_malayan_skin_06"><path d="M287.4863,352.0415H224.5122A36.0119,36.0119,0,0,0,188.5,388.0533v74.272a11.2178,11.2178,0,0,0,11.2178,11.2177H312.2818A11.2177,11.2177,0,0,0,323.5,462.3253V388.0547A36.0132,36.0132,0,0,0,287.4863,352.0415Z" style="fill:#f4e2ff"/><path d="M371.8266,219.8372H361v.0018a105,105,0,0,0-210,0v-.0018H140.1734a33.7519,33.7519,0,1,0,0,67.5037H151v-.0019a105,105,0,0,0,210,0v.0019h10.8266a33.7519,33.7519,0,1,0,0-67.5037Z" style="fill:#d87761"/><path d="M269.0718,317.668h-93.89A46.8586,46.8586,0,0,0,256,350.0429a46.8586,46.8586,0,0,0,80.8186-32.3749Z" style="fill:#f4e2ff"/><rect height="68.3763" rx="22.7921" style="fill:#bf5e48" width="45.5842" x="233.208" y="263.5237"/><path d="M374.4984,233.5127H361v40.1514h13.4985a20.2465,20.2465,0,0,0,0-40.1514Z" style="fill:#bf5e48"/><circle cx="314.9627" cy="250.5027" r="20.625" style="fill:#521919"/><circle cx="319.5735" cy="242.8182" r="7.6845" style="fill:#ffefdc"/><circle cx="197.0372" cy="250.5027" r="20.625" style="fill:#521919"/><circle cx="201.6479" cy="242.8182" r="7.6845" style="fill:#ffefdc"/><path d="M137.5014,233.5127H151v40.1514H137.5014a20.2465,20.2465,0,0,1,0-40.1514Z" style="fill:#bf5e48"/><path d="M392.0876,171.4883a88.8088,88.8088,0,0,1-14.85,48.825,32.7677,32.7677,0,0,0-5.4-.45H360.9624s-27.3-24.15-105-24.15c-77.6248,0-105,24.15-105,24.15h-10.8a31.4438,31.4438,0,0,0-5.4.45,88.8054,88.8054,0,0,1-14.85-48.825c0-59.3994,60.9-107.6258,136.05-107.6258C331.1876,63.8625,392.0876,112.0889,392.0876,171.4883Z" style="fill:#ffc139"/></g></svg>