<?xml version="1.0" ?><svg viewBox="0 0 512 512" xmlns="http://www.w3.org/2000/svg"><g id="Female_caucasian_skin_02"><path d="M256.0005,408.745c119.7876,0,160.1055-45.4174,160.1055-45.4174s-26.12-59.9012-26.12-104.8609H122.0149c0,44.96-26.1209,104.8609-26.1209,104.8609s40.3189,45.4174,160.1065,45.4174Z" style="fill:#521919"/><path d="M304.8657,473.543H207.1344a11.2272,11.2272,0,0,1-10.7953-14.3116l18.14-63.4906a37.5,37.5,0,0,1,36.057-27.1978h10.9277a37.5,37.5,0,0,1,36.0569,27.1978l18.14,63.4906A11.2272,11.2272,0,0,1,304.8657,473.543Z" style="fill:#eb5e59"/><path d="M377.7966,228.13h-10.459a112.3415,112.3415,0,0,0-222.6754,0h-10.459a33.7519,33.7519,0,1,0,0,67.5037h10.459a112.3418,112.3418,0,0,0,222.6754,0h10.459a33.7519,33.7519,0,1,0,0-67.5037Z" style="fill:#f8c4b0"/><path d="M255.9976,358.7975a37.2429,37.2429,0,0,1-26.5137-10.9827,7.4992,7.4992,0,0,1,10.6055-10.6054c8.4961,8.4961,23.313,8.5,31.8237-.0037a7.5018,7.5018,0,1,1,10.6055,10.6128A37.2964,37.2964,0,0,1,255.9976,358.7975Z" style="fill:#ff4d4d"/><rect height="45" rx="15" style="fill:#ef9e8b" width="30" x="241" y="275.8604"/><path d="M380.4683,241.8049H366.97v40.1513h13.4986a20.2465,20.2465,0,0,0,0-40.1513Z" style="fill:#ef9e8b"/><path d="M336.1745,244.94a7.4973,7.4973,0,0,0-10.6055,0l-2.3378,2.3383a20.6845,20.6845,0,1,0,10.605,10.6055l2.3383-2.3383A7.4973,7.4973,0,0,0,336.1745,244.94Z" style="fill:#0167a3"/><circle cx="319.5725" cy="258.4668" r="7.6845" style="fill:#ffefdc"/><path d="M197.0363,245.5264a20.5221,20.5221,0,0,0-8.2681,1.7505l-2.3374-2.3365a7.4992,7.4992,0,0,0-10.6054,10.6055l2.3373,2.3364a20.6122,20.6122,0,1,0,18.8736-12.3559Z" style="fill:#0167a3"/><circle cx="201.647" cy="258.4668" r="7.6845" style="fill:#ffefdc"/><path d="M131.5316,241.8049H145.03v40.1513H131.5316a20.2464,20.2464,0,0,1,0-40.1513Z" style="fill:#ef9e8b"/><path d="M389.9852,213.269v17.1752a32.8471,32.8471,0,0,0-12.2251-2.3254H367.4852c-.0751,0-.0751-.0751-.15-.0751-33-21.3739-68.475-11.55-112.2747-16.65-43.8753-5.1-57.75-40.199-57.75-40.199s-39.375,9.8236-52.5,55.7995c-.0751.3736-.2253.7489-.3,1.1243H134.16a32.7476,32.7476,0,0,0-12.15,2.3254V213.269a133.9877,133.9877,0,1,1,267.9753,0Z" style="fill:#521919"/></g></svg>