<?xml version="1.0" ?><svg viewBox="0 0 512 512" xmlns="http://www.w3.org/2000/svg"><g id="Female_malayan_skin_06"><path d="M304.8661,473.543H207.1348A11.2272,11.2272,0,0,1,196.34,459.2314l18.14-63.4906a37.5,37.5,0,0,1,36.0569-27.1978h10.9277a37.5,37.5,0,0,1,36.057,27.1978l18.14,63.4906A11.2272,11.2272,0,0,1,304.8661,473.543Z" style="fill:#27b286"/><path d="M214.4791,395.7415l-12.6782,44.3756L221.09,473.543h75.5841L237.4689,370.9691A37.4417,37.4417,0,0,0,214.4791,395.7415Z" style="fill:#ffc139"/><path d="M347.8714,271.6283A52.3519,52.3519,0,0,0,278.59,297.73c-22.1425,48.9155-11.6975,122.4027,55.106,146.259,0,0-19.5151-55.11,21.6173-81.13l-.0945-.08a52.1478,52.1478,0,0,0-7.3473-91.15Z" style="fill:#071b2b"/><path d="M377.7967,228.13h-10.459a112.3416,112.3416,0,0,0-222.6754,0h-10.459a33.7509,33.7509,0,1,0,0,67.5018h10.459a112.3415,112.3415,0,0,0,222.6754,0h10.459a33.7509,33.7509,0,1,0,0-67.5018Z" style="fill:#d87761"/><path d="M255.9968,358.8a37.234,37.234,0,0,1-26.5137-10.9863,7.4992,7.4992,0,1,1,10.6055-10.6055c8.4961,8.5035,23.3276,8.5035,31.8237,0a7.4992,7.4992,0,1,1,10.6055,10.6055A37.2382,37.2382,0,0,1,255.9968,358.8Z" style="fill:#c42020"/><rect height="45" rx="15" style="fill:#bf5e48" width="30" x="241.0001" y="275.8607"/><path d="M380.4683,241.8052H366.97v40.1513h13.4985a20.2464,20.2464,0,0,0,0-40.1513Z" style="fill:#bf5e48"/><path d="M336.1746,244.9407a7.4975,7.4975,0,0,0-10.6055,0l-2.3378,2.3383a20.6845,20.6845,0,1,0,10.605,10.6055l2.3383-2.3383A7.4975,7.4975,0,0,0,336.1746,244.9407Z" style="fill:#0d253d"/><circle cx="319.5726" cy="258.4671" r="7.6845" style="fill:#ffefdc"/><path d="M197.0364,245.5267a20.5225,20.5225,0,0,0-8.2682,1.75l-2.3373-2.3365a7.4992,7.4992,0,0,0-10.6055,10.6055l2.3374,2.3364a20.6122,20.6122,0,1,0,18.8736-12.3559Z" style="fill:#0d253d"/><circle cx="201.6471" cy="258.4671" r="7.6845" style="fill:#ffefdc"/><path d="M131.5317,241.8052H145.03v40.1513H131.5317a20.2464,20.2464,0,0,1,0-40.1513Z" style="fill:#bf5e48"/><circle cx="256" cy="225.2765" r="7.4978" style="fill:#c42020"/><path d="M367.2558,227.6a112.4007,112.4007,0,0,0-111.2567-96.8262h0a112.4015,112.4015,0,0,0-111.2544,96.8134c1.7633-4.4843,15.7429-37.2236,50.8983-44.53a53.81,53.81,0,0,1,29.6882,2.016,89.76,89.76,0,0,0,61.3335,0,53.812,53.812,0,0,1,29.6887-2.016C351.5325,190.3687,365.5085,223.15,367.2558,227.6Z" style="fill:#0d253d"/><path d="M295.1684,182.7551s6.102-26.5015,36.583-29.4094c31.5692-3.01,66.7426,20.4931,61.7055,73.7793-3.8734,40.9819-26.91,43.672-22.9505,79.6163,3.9595,35.9464,5.7667,60.9717-32.0471,82.0844,0,0,22.0326-33.5947,11.2029-62.0735-10.8291-28.4767,7.2868-61.6167-4.8784-93.2742C332.6185,201.8227,310.7629,181.7357,295.1684,182.7551Z" style="fill:#162f44"/></g></svg>