<?xml version="1.0" ?><svg viewBox="0 0 512 512" xmlns="http://www.w3.org/2000/svg"><g id="Female_aethiopian_skin_01"><path d="M417.8908,179.2019a30.2431,30.2431,0,0,0-16.0236-48.75,30.2069,30.2069,0,0,0-30.3053-41.3394,30.2951,30.2951,0,0,0-41.5682-30.08,30.255,30.255,0,0,0-48.9011-15.6471,30.202,30.202,0,0,0-51.2407.1513,30.1841,30.1841,0,0,0-48.75,15.946,30.293,30.293,0,0,0-41.417,30.3089,30.2185,30.2185,0,0,0-30.08,41.4907,30.3149,30.3149,0,0,0-15.721,48.901,30.2434,30.2434,0,0,0,.0775,51.2406,30.2629,30.2629,0,0,0,15.9461,48.75,30.25,30.25,0,0,0,30.2314,41.4944,30.2186,30.2186,0,0,0,41.4908,30.08,30.2451,30.2451,0,0,0,48.8272,15.7947,30.2269,30.2269,0,0,0,51.3146-.0775,30.2,30.2,0,0,0,48.75-15.8685,30.244,30.244,0,0,0,41.4945-30.1576A30.2206,30.2206,0,0,0,402.17,279.9487a30.28,30.28,0,0,0,15.8723-48.8234A30.2052,30.2052,0,0,0,432.25,205.5031v-.679A30.4,30.4,0,0,0,417.8908,179.2019Z" style="fill:#0d263e"/><path d="M304.8656,473.543H207.1342a11.2273,11.2273,0,0,1-10.7953-14.3116l18.14-63.4906A37.5,37.5,0,0,1,250.536,368.543h10.9278a37.5,37.5,0,0,1,36.0569,27.1978l18.14,63.4906A11.2273,11.2273,0,0,1,304.8656,473.543Z" style="fill:#27b286"/><path d="M377.7965,228.13h-10.459a112.3415,112.3415,0,0,0-222.6754,0H134.204a33.7519,33.7519,0,1,0,0,67.5037h10.4581a112.3418,112.3418,0,0,0,222.6754,0h10.459a33.7519,33.7519,0,1,0,0-67.5037Z" style="fill:#a5442e"/><path d="M256.0021,358.7975a37.2964,37.2964,0,0,1-26.521-10.979,7.5018,7.5018,0,1,1,10.6055-10.6128c8.5107,8.5034,23.3276,8.5,31.8237.0037a7.4992,7.4992,0,0,1,10.6055,10.6054A37.2429,37.2429,0,0,1,256.0021,358.7975Z" style="fill:#8c1813"/><rect height="45" rx="15" style="fill:#8c2b15" width="30" x="241" y="275.8604"/><path d="M380.4682,241.8049H366.97v40.1513h13.4985a20.2464,20.2464,0,0,0,0-40.1513Z" style="fill:#8c2b15"/><path d="M336.1745,244.94a7.4973,7.4973,0,0,0-10.6055,0l-2.3378,2.3383a20.6845,20.6845,0,1,0,10.605,10.6055l2.3383-2.3383A7.4975,7.4975,0,0,0,336.1745,244.94Z" style="fill:#0d253d"/><circle cx="319.5725" cy="258.4668" r="7.6845" style="fill:#ffefdc"/><path d="M197.0363,245.5264a20.5225,20.5225,0,0,0-8.2682,1.7505l-2.3373-2.3365a7.4992,7.4992,0,0,0-10.6055,10.6055l2.3374,2.3364a20.6122,20.6122,0,1,0,18.8736-12.3559Z" style="fill:#0d253d"/><circle cx="201.647" cy="258.4668" r="7.6845" style="fill:#ffefdc"/><path d="M131.5316,241.8049H145.03v40.1513H131.5316a20.2464,20.2464,0,0,1,0-40.1513Z" style="fill:#8c2b15"/><path d="M377.7964,228.13a121.7965,121.7965,0,1,0-243.5929,0h10.3343c11.9392-.0807,23.96-7.189,27.6286-19.1112,15.9833,11.3741,41.7437.1057,44.083-19.4047,15.7172,7.5521,37.45-3.7945,39.7506-21.3824,2.3008,17.5879,24.0333,28.9345,39.75,21.3824,2.3393,19.51,28.1,30.7788,44.083,19.4047,3.6683,11.9222,15.6894,19.0305,27.6286,19.1112Z" style="fill:#0d263e"/></g></svg>