<?xml version="1.0" ?><svg viewBox="0 0 512 512" xmlns="http://www.w3.org/2000/svg"><g id="Female_caucasian_skin_09"><path d="M355.7879,344.1924a324.7,324.7,0,0,0,31.1243,22.95s-57.2242,43.35-130.95-3.2245c-73.65,46.5747-130.8747,3.2245-130.8747,3.2245a334.4056,334.4056,0,0,0,31.1243-22.9495c-44.0991-3.2254-69.2249-30.45-69.2249-30.45a336.8922,336.8922,0,0,0,38.6252-19.2755H386.3876a336.8922,336.8922,0,0,0,38.6252,19.2755S399.887,340.967,355.7879,344.1924Z" style="fill:#521919"/><path d="M304.8623,473.543H207.131a11.2272,11.2272,0,0,1-10.7953-14.3116l18.14-63.4906a37.5,37.5,0,0,1,36.0569-27.1978h10.9277a37.5,37.5,0,0,1,36.0569,27.1978l18.14,63.4906A11.2272,11.2272,0,0,1,304.8623,473.543Z" style="fill:#ffc139"/><path d="M377.7935,228.13h-10.459a112.4041,112.4041,0,0,0-111.3372-97.3563h-.001A112.4055,112.4055,0,0,0,144.6591,228.13H134.2a33.7509,33.7509,0,1,0,0,67.5018h10.459a112.4063,112.4063,0,0,0,111.3372,97.3572h.001a112.405,112.405,0,0,0,111.3372-97.3572h10.459a33.7509,33.7509,0,1,0,0-67.5018Z" style="fill:#f8c4b0"/><path d="M255.9936,358.8A37.234,37.234,0,0,1,229.48,347.8133a7.4992,7.4992,0,1,1,10.6055-10.6055c8.4888,8.5,23.3057,8.5108,31.8237-.0036a7.5018,7.5018,0,0,1,10.6055,10.6127A37.2848,37.2848,0,0,1,255.9936,358.8Z" style="fill:#ff4d4d"/><rect height="45" rx="15" style="fill:#ef9e8b" width="30" x="240.9968" y="275.8604"/><path d="M380.465,241.8049H366.9664v40.1513H380.465a20.2465,20.2465,0,0,0,0-40.1513Z" style="fill:#ef9e8b"/><path d="M336.1712,244.94a7.4973,7.4973,0,0,0-10.6055,0l-2.3378,2.3383a20.684,20.684,0,1,0,10.6051,10.6055l2.3382-2.3383A7.4973,7.4973,0,0,0,336.1712,244.94Z" style="fill:#004b28"/><circle cx="319.5692" cy="258.4668" r="7.6845" style="fill:#ffefdc"/><path d="M197.033,245.5264a20.5221,20.5221,0,0,0-8.2681,1.7505l-2.3373-2.3365a7.4992,7.4992,0,0,0-10.6055,10.6055l2.3373,2.3364a20.6122,20.6122,0,1,0,18.8736-12.3559Z" style="fill:#004b28"/><circle cx="201.6437" cy="258.4668" r="7.6845" style="fill:#ffefdc"/><path d="M131.5283,241.8049h13.4986v40.1513H131.5283a20.2465,20.2465,0,0,1,0-40.1513Z" style="fill:#ef9e8b"/><path d="M389.9874,213.2427v17.2494a32.7476,32.7476,0,0,0-12.15-2.3245h-10.35c-.0751,0-.0751-.0751-.15-.0751-33-21.45-68.4-11.5494-112.2757-16.7248-43.8739-5.1-57.75-40.2-57.75-40.2s-39.6753,9.9746-52.5751,56.4752c-.075.15-.075.3744-.15.5246H134.2376a33.1425,33.1425,0,0,0-12.226,2.3245V213.2427a133.9879,133.9879,0,0,1,267.9758,0Z" style="fill:#521919"/></g></svg>