<?xml version="1.0" ?><svg viewBox="0 0 512 512" xmlns="http://www.w3.org/2000/svg"><g id="Male_caucasian_skin_09"><path d="M368.3335,287.34H143.6668c5.6762,30.1013-33.3952,63.6232-33.3952,63.6232S139.2987,405.7356,256,370.3551c116.7017,35.38,145.7284-19.3917,145.7284-19.3917S362.6574,317.4415,368.3335,287.34Z" style="fill:#0d263e"/><path d="M272.5306,353.543H239.47a44.9514,44.9514,0,0,0-11.22,1.4612V473.543h55.5V355.0042A44.9457,44.9457,0,0,0,272.5306,353.543Z" style="fill:#8ca4bc"/><path d="M309.73,463.6992l7.4479-59.5825A44.977,44.977,0,0,0,283.75,355.0042V473.543h14.8315A11.237,11.237,0,0,0,309.73,463.6992Z" style="fill:#521919"/><path d="M194.822,404.1167l7.4479,59.5825a11.2361,11.2361,0,0,0,11.1483,9.8438H228.25V355.0042A44.9768,44.9768,0,0,0,194.822,404.1167Z" style="fill:#521919"/><path d="M371.827,219.8372H361a105,105,0,0,0-210,.0018v-.0018H140.1734a33.7519,33.7519,0,1,0,0,67.5037H151v-.0019a105,105,0,0,0,210,.0019h10.827a33.7519,33.7519,0,1,0,0-67.5037Z" style="fill:#f8c4b0"/><path d="M277.3675,376.1274H234.6329a8.6154,8.6154,0,0,0-5.9871,14.8106l21.3673,20.65a8.6156,8.6156,0,0,0,11.9742,0l21.3673-20.65A8.6154,8.6154,0,0,0,277.3675,376.1274Z" style="fill:#0d263e"/><path d="M256.0018,358.1514a37.2851,37.2851,0,0,1-26.521-10.9826,7.5018,7.5018,0,0,1,10.6055-10.6128c8.5181,8.518,23.335,8.5,31.8237.0036a7.4992,7.4992,0,1,1,10.6055,10.6055A37.2338,37.2338,0,0,1,256.0018,358.1514Z" style="fill:#ff8080"/><rect height="68.3763" rx="22.7921" style="fill:#ef9e8b" width="45.5842" x="233.2081" y="263.5237"/><path d="M374.4987,233.5127H361v40.1514h13.4986a20.2465,20.2465,0,0,0,0-40.1514Z" style="fill:#ef9e8b"/><circle cx="314.9629" cy="250.5027" r="20.625" style="fill:#0d263e"/><circle cx="319.5736" cy="242.8182" r="7.6845" style="fill:#ffefdc"/><circle cx="197.0373" cy="250.5027" r="20.625" style="fill:#0d263e"/><circle cx="201.648" cy="242.8182" r="7.6845" style="fill:#ffefdc"/><path d="M137.5017,233.5127H151v40.1514H137.5017a20.2465,20.2465,0,0,1,0-40.1514Z" style="fill:#ef9e8b"/><path d="M151.1105,219.8372H140.2839a33.3783,33.3783,0,0,0-16.5939,4.5374h-.298a134.0012,134.0012,0,1,1,265.2319-.108h-.2911a33.3778,33.3778,0,0,0-16.3957-4.4294H361.1105l-.11,0c-33.067-21.4966-62.144-11.6242-106.0468-16.7329-43.9027-5.105-57.7409-40.2136-57.7409-40.2136S163.2137,176.3867,151,219.8376h0" style="fill:#0d263e"/></g></svg>