<?xml version="1.0" ?><svg viewBox="0 0 512 512" xmlns="http://www.w3.org/2000/svg"><g id="Female_mongolian_skin_05"><path d="M349.8016,344.6948l-.1623.0093a69.2839,69.2839,0,1,0-132.9816,7.1951C239.8993,419.1358,316.88,480.338,402.89,442.4525,402.89,442.4525,333.92,407.1951,349.8016,344.6948Z" style="fill:#071b2b"/><path d="M309.4268,43.4034l-46.7143,26.97-46.7148-26.97a21.675,21.675,0,0,0-32.514,18.772v46.8915a21.6756,21.6756,0,0,0,32.514,18.7719l46.7148-26.97,46.7143,26.97a21.6757,21.6757,0,0,0,32.5141-18.772V62.1754A21.6751,21.6751,0,0,0,309.4268,43.4034Z" style="fill:#eb5e59"/><rect height="68.2979" rx="18.1915" style="fill:#dd4747" width="36.383" x="244.5208" y="51.4717"/><path d="M322.3732,459.2315l-18.14-63.49a37.3021,37.3021,0,0,0-5.8567-11.8195l-35.6639,46.7725h-.0009L227.0476,383.922a37.3115,37.3115,0,0,0-5.8562,11.8195l-18.14,63.49a11.2273,11.2273,0,0,0,10.7954,14.3115h97.7312A11.2271,11.2271,0,0,0,322.3732,459.2315Z" style="fill:#f4e2ff"/><path d="M298.3763,383.922a37.6117,37.6117,0,0,0-19.8431-13.85l-15.8208,60.6226Z" style="fill:#3285e2"/><path d="M262.712,430.6945l-15.8213-60.6226a37.61,37.61,0,0,0-19.8431,13.85l35.6639,46.7725Z" style="fill:#3285e2"/><path d="M262.7124,430.6945l15.8208-60.6226a37.0648,37.0648,0,0,0-10.3569-1.5289H257.2486a37.07,37.07,0,0,0-10.3579,1.5289l15.8213,60.6226Z" style="fill:#f8c497"/><path d="M384.5089,228.1322H374.05a112.3415,112.3415,0,0,0-222.6754,0H140.9159a33.7509,33.7509,0,1,0,0,67.5018h10.4586a112.3415,112.3415,0,0,0,222.6754,0h10.459a33.7509,33.7509,0,1,0,0-67.5018Z" style="fill:#f8c497"/><path d="M262.7122,358.8a37.243,37.243,0,0,1-26.5137-10.9826,7.4992,7.4992,0,0,1,10.6055-10.6055c8.4961,8.4961,23.32,8.4961,31.8164,0a7.4992,7.4992,0,0,1,10.6055,10.6055A37.2432,37.2432,0,0,1,262.7122,358.8Z" style="fill:#ff4d4d"/><rect height="45" rx="15" style="fill:#ef9e72" width="30" x="247.7124" y="275.8625"/><path d="M387.1806,241.8069H373.6821v40.1514h13.4985a20.2465,20.2465,0,0,0,0-40.1514Z" style="fill:#ef9e72"/><path d="M342.8868,244.9425a7.4972,7.4972,0,0,0-10.6054,0l-2.3378,2.3382a20.6845,20.6845,0,1,0,10.605,10.6055l2.3382-2.3383A7.4972,7.4972,0,0,0,342.8868,244.9425Z" style="fill:#0d253d"/><circle cx="326.2849" cy="258.4689" r="7.6845" style="fill:#ffefdc"/><path d="M203.7487,245.5284a20.5242,20.5242,0,0,0-8.2682,1.75l-2.3373-2.3364a7.4992,7.4992,0,0,0-10.6055,10.6054l2.3374,2.3365a20.6122,20.6122,0,1,0,18.8736-12.356Z" style="fill:#0d253d"/><circle cx="208.3593" cy="258.4689" r="7.6845" style="fill:#ffefdc"/><path d="M138.244,241.8069h13.4985v40.1514H138.244a20.2465,20.2465,0,0,1,0-40.1514Z" style="fill:#ef9e72"/><path d="M262.6719,79.2931c-121.5747,0-168.9748,51.45-168.9748,110.1746,0,26.7,11.85,42.0758,21.75,50.3247a33.49,33.49,0,0,1,12.9721-9.08c3.0555,105.8194,42.2424,162.279,42.2424,162.279V217.7767h-.0124c22.2176-7.3453,46.3161-2.4143,74.6229-6.4087,36.75-5.1,48.3-40.2,48.3-40.2s18.1865,41.8451,64.7186,54.1086H357.9V378.3922s37.3141-53.3862,38.6709-147.9364c.04.0156.0861.02.1264.0366V213.243A134.0025,134.0025,0,0,0,262.6719,79.2931Z" style="fill:#0d253d"/></g></svg>