<?xml version="1.0" ?><svg viewBox="0 0 512 512" xmlns="http://www.w3.org/2000/svg"><g id="Male_caucasian_skin_06"><path d="M317.1625,404.168l-7.4253,59.55a11.1994,11.1994,0,0,1-11.175,9.8254H213.4374a11.1993,11.1993,0,0,1-11.1749-9.8254l-7.4254-59.55a45.0062,45.0062,0,0,1,44.6251-50.625h33.0753A45.0061,45.0061,0,0,1,317.1625,404.168Z" style="fill:#eb5e59"/><path d="M371.8266,219.8376H361v.0018a105,105,0,0,0-105-105h0a105,105,0,0,0-105,105v-.0018H140.1734a33.7514,33.7514,0,1,0,0,67.5027H151v-.0009a105,105,0,0,0,105,105h0a105,105,0,0,0,105-105v.0009h10.8266a33.7514,33.7514,0,1,0,0-67.5027Z" style="fill:#f8c4b0"/><path d="M255.9968,358.15a37.243,37.243,0,0,1-26.5137-10.9826,7.4992,7.4992,0,0,1,10.6055-10.6055c8.4961,8.4961,23.313,8.5,31.8237-.0037a7.5018,7.5018,0,0,1,10.6055,10.6128A37.2966,37.2966,0,0,1,255.9968,358.15Z" style="fill:#ff8080"/><path d="M255.9968,399.8394A111.5042,111.5042,0,0,1,208.36,389.2815a29.7077,29.7077,0,0,1-16.5015-32.666l2.19-11.2536a34.4265,34.4265,0,0,1,16.0253-22.9029l8.5767-5.1635a7.5008,7.5008,0,0,1,7.7344,12.854l-8.5767,5.1635a19.4132,19.4132,0,0,0-9.0381,12.909l-2.19,11.2536a14.7363,14.7363,0,0,0,8.1372,16.22,98.1708,98.1708,0,0,0,82.5659,0,14.75,14.75,0,0,0,8.1372-16.2231l-2.19-11.2464a19.4119,19.4119,0,0,0-9.0381-12.9126l-8.5767-5.1635a7.5008,7.5008,0,0,1,7.7344-12.854l8.5767,5.1635a34.4257,34.4257,0,0,1,16.0254,22.9065l2.19,11.2464a29.717,29.717,0,0,1-16.5015,32.67A111.5122,111.5122,0,0,1,255.9968,399.8394Z" style="fill:#521919"/><rect height="68.3763" rx="22.7921" style="fill:#ef9e8b" width="45.5842" x="233.2078" y="263.5237"/><path d="M374.4984,233.5127H361v40.1514h13.4985a20.2465,20.2465,0,0,0,0-40.1514Z" style="fill:#ef9e8b"/><circle cx="314.9626" cy="250.5027" r="20.625" style="fill:#521919"/><circle cx="319.5733" cy="242.8182" r="7.6845" style="fill:#ffefdc"/><circle cx="197.0371" cy="250.5027" r="20.625" style="fill:#521919"/><circle cx="201.6478" cy="242.8182" r="7.6845" style="fill:#ffefdc"/><path d="M137.5014,233.5127H151v40.1514H137.5014a20.2465,20.2465,0,0,1,0-40.1514Z" style="fill:#ef9e8b"/><path d="M321.25,137.62s2.531,20.766-9.3,35.9234c0,0,32.7749,8.7763,49.05,46.2763A104.5351,104.5351,0,0,0,321.25,137.62Z" style="fill:#8ca4bc"/><path d="M321.25,137.62s-30.5406-56.5668-105.2426-28.0481l.0554-.0623c-21.7411,8.26-57.0868,8.9777-57.0868,8.9777a68.6075,68.6075,0,0,0,12.8087,17.4664C130.9668,173.855,151,219.8383,151,219.8383s27.843-29.78,82.765-29.78S311.95,173.5437,311.95,173.5437C323.781,158.3863,321.25,137.62,321.25,137.62Z" style="fill:#521919"/></g></svg>