<?xml version="1.0" ?><svg viewBox="0 0 512 512" xmlns="http://www.w3.org/2000/svg"><g id="Female_aethiopian_skin_03"><path d="M333.2359,166.1414a14.4285,14.4285,0,0,0-7.6446-23.2578,14.4112,14.4112,0,0,0-14.4582-19.7224A14.4533,14.4533,0,0,0,291.3016,108.81a14.4342,14.4342,0,0,0-23.33-7.4651,14.409,14.409,0,0,0-24.4462.0722,14.4,14.4,0,0,0-23.2577,7.6077,14.4522,14.4522,0,0,0-19.7594,14.46A14.4168,14.4168,0,0,0,186.1575,143.28a14.4628,14.4628,0,0,0-7.5,23.33,14.4287,14.4287,0,0,0,.0369,24.4461,14.4381,14.4381,0,0,0,7.6077,23.2578A14.4315,14.4315,0,0,0,200.7248,234.11,14.4169,14.4169,0,0,0,220.52,248.4608a14.4295,14.4295,0,0,0,23.2947,7.5354,14.4208,14.4208,0,0,0,24.4814-.0369,14.4079,14.4079,0,0,0,23.2577-7.5707A14.429,14.429,0,0,0,311.35,234.0008a14.4178,14.4178,0,0,0,14.386-19.7946,14.4462,14.4462,0,0,0,7.5724-23.293,14.41,14.41,0,0,0,6.7784-12.2239v-.324A14.503,14.503,0,0,0,333.2359,166.1414Z" style="fill:#071b2b"/><path d="M304.866,473.543H207.1346a11.2273,11.2273,0,0,1-10.7953-14.3116l18.14-63.4906a37.5,37.5,0,0,1,36.0569-27.1978h10.9278a37.5,37.5,0,0,1,36.0569,27.1978l18.14,63.4906A11.2273,11.2273,0,0,1,304.866,473.543Z" style="fill:#f4e2ff"/><path d="M377.7967,228.13h-10.459a112.4033,112.4033,0,0,0-111.3372-97.3553h0A112.4049,112.4049,0,0,0,144.6623,228.13H134.2042a33.7514,33.7514,0,1,0,0,67.5028h10.4581a112.4065,112.4065,0,0,0,111.3382,97.3562h0a112.4049,112.4049,0,0,0,111.3372-97.3562h10.459a33.7514,33.7514,0,1,0,0-67.5028Z" style="fill:#a5442e"/><path d="M256.0023,358.7981a37.2964,37.2964,0,0,1-26.521-10.979,7.5018,7.5018,0,0,1,10.6055-10.6128c8.5107,8.5035,23.3276,8.5,31.8237.0037a7.4992,7.4992,0,0,1,10.6055,10.6055A37.2432,37.2432,0,0,1,256.0023,358.7981Z" style="fill:#8c1813"/><rect height="45" rx="15" style="fill:#8c2b15" width="30" x="241.0003" y="275.8612"/><path d="M380.4685,241.8057H366.97V281.957h13.4985a20.2464,20.2464,0,0,0,0-40.1513Z" style="fill:#8c2b15"/><path d="M336.1748,244.9412a7.4973,7.4973,0,0,0-10.6055,0l-2.3378,2.3383a20.6845,20.6845,0,1,0,10.605,10.6055l2.3383-2.3383A7.4975,7.4975,0,0,0,336.1748,244.9412Z" style="fill:#0d253d"/><circle cx="319.5728" cy="258.4676" r="7.6845" style="fill:#ffefdc"/><path d="M197.0366,245.5272a20.5225,20.5225,0,0,0-8.2682,1.7505l-2.3373-2.3365a7.4992,7.4992,0,0,0-10.6055,10.6055l2.3374,2.3364a20.6122,20.6122,0,1,0,18.8736-12.3559Z" style="fill:#0d253d"/><circle cx="201.6473" cy="258.4676" r="7.6845" style="fill:#ffefdc"/><path d="M131.5319,241.8057H145.03V281.957H131.5319a20.2464,20.2464,0,0,1,0-40.1513Z" style="fill:#8c2b15"/><path d="M367.1974,227.2078a112.3272,112.3272,0,0,0-222.3944,0c2.4683-8.1482,23.78-68.8349,111.1981-68.8349C343.4175,158.3729,364.7291,219.06,367.1974,227.2078Z" style="fill:#0d263e"/><path d="M209.3317,165.3215s-5.8246-23.4326-34.92-26.2083c-30.1342-2.8727-63.7088,19.5615-58.9007,70.4257,3.6973,39.1191,25.6869,41.6869,21.9074,75.9974-3.78,34.3124-5.5046,58.2,30.59,78.3532,0,0-21.0312-32.0676-10.6938-59.2519,10.337-27.1824-6.9555-58.816,4.6568-89.0345C173.5839,185.3867,193.8561,169.6364,209.3317,165.3215Z" style="fill:#162f44"/></g></svg>