<?xml version="1.0" ?><svg viewBox="0 0 512 512" xmlns="http://www.w3.org/2000/svg"><g id="Male_caucasian_skin_10"><path d="M411.0018,199.0293A28.9563,28.9563,0,0,0,395.66,152.3541a28.9215,28.9215,0,0,0-29.0157-39.58,29.0059,29.0059,0,0,0-39.7994-28.8,28.9675,28.9675,0,0,0-46.82-14.9813,28.9169,28.9169,0,0,0-49.06.1449,28.9,28.9,0,0,0-46.6753,15.2674,29.0039,29.0039,0,0,0-39.6545,29.0192,28.9326,28.9326,0,0,0-28.8,39.7251,29.025,29.025,0,0,0-15.052,46.82,28.9565,28.9565,0,0,0,.0742,49.06,28.9751,28.9751,0,0,0,15.2676,46.6752,28.9623,28.9623,0,0,0,28.945,39.7287,28.9326,28.9326,0,0,0,39.7252,28.8,28.9581,28.9581,0,0,0,46.7495,15.1226,28.9406,28.9406,0,0,0,49.1309-.0742A28.9148,28.9148,0,0,0,327.35,364.0884a28.957,28.957,0,0,0,39.7287-28.8743A28.9345,28.9345,0,0,0,395.95,295.489a28.9917,28.9917,0,0,0,15.1969-46.7459A28.92,28.92,0,0,0,424.75,224.2113v-.65A29.1063,29.1063,0,0,0,411.0018,199.0293Z" style="fill:#eb5d25"/><path d="M317.1626,404.168l-7.4254,59.55a11.1993,11.1993,0,0,1-11.1749,9.8254H213.4375a11.1993,11.1993,0,0,1-11.1749-9.8254l-7.4254-59.55a45.0062,45.0062,0,0,1,44.6251-50.625h33.0752A45.0061,45.0061,0,0,1,317.1626,404.168Z" style="fill:#ffc139"/><path d="M371.8265,219.425H361v.0018a105,105,0,0,0-210,0v-.0018H140.1734a33.7509,33.7509,0,1,0,0,67.5018H151a105,105,0,0,0,210,0h10.8265a33.7509,33.7509,0,1,0,0-67.5018Z" style="fill:#f8c4b0"/><path d="M256,357.7374a37.2335,37.2335,0,0,1-26.5137-10.9864,7.4992,7.4992,0,1,1,10.6055-10.6054c8.4961,8.5034,23.32,8.5034,31.8164,0a7.4992,7.4992,0,1,1,10.6054,10.6054A37.2333,37.2333,0,0,1,256,357.7374Z" style="fill:#ff8080"/><rect height="68.3763" rx="22.7921" style="fill:#ef9e8b" width="45.5842" x="233.2079" y="263.1105"/><circle cx="334.5781" cy="293.7918" r="5.6257" style="fill:#ea9381"/><circle cx="306.919" cy="305.8157" r="5.6257" style="fill:#ea9381"/><circle cx="205.081" cy="305.8157" r="5.6257" style="fill:#ea9381"/><circle cx="177.4219" cy="293.7918" r="5.6257" style="fill:#ea9381"/><path d="M374.4985,233.1H361v40.1513h13.4986a20.2465,20.2465,0,0,0,0-40.1513Z" style="fill:#ef9e8b"/><circle cx="314.9627" cy="250.0896" r="20.625" style="fill:#0d253d"/><circle cx="319.5734" cy="242.4051" r="7.6845" style="fill:#ffefdc"/><circle cx="197.0371" cy="250.0896" r="20.625" style="fill:#0d253d"/><circle cx="201.6479" cy="242.4051" r="7.6845" style="fill:#ffefdc"/><path d="M137.5015,233.1H151v40.1513H137.5015a20.2465,20.2465,0,0,1,0-40.1513Z" style="fill:#ef9e8b"/><path d="M233.68,215.6457a29.0969,29.0969,0,0,1-24.2018,6.5011h0a28.7743,28.7743,0,0,1-20.59-15.6054h0a28.8746,28.8746,0,0,1-26.7311.1446h0a28.72,28.72,0,0,1-15.6019-27.1614h0a28.9777,28.9777,0,0,1-25.5035-28.3924h0a28.8115,28.8115,0,0,1,25.07-28.971h0a28.8894,28.8894,0,0,1,15.4608-27.4506h0a28.8177,28.8177,0,0,1,26.8016,0h0a28.8522,28.8522,0,0,1,20.59-15.676h0a28.8406,28.8406,0,0,1,24.1983,6.5011h0a28.655,28.655,0,0,1,22.3958-10.7623h0A28.8416,28.8416,0,0,1,278.034,85.4651h0A28.7359,28.7359,0,0,1,302.1653,78.89h0a28.9756,28.9756,0,0,1,20.66,15.5314h0a28.8688,28.8688,0,0,1,26.731-.1446h0a28.9261,28.9261,0,0,1,15.676,27.0908h0a28.83,28.83,0,0,1,25.6446,28.1032h0v.5045h0c0,.1446.0741.3633.0741.5785h0a28.901,28.901,0,0,1-25.3589,28.6817h0a28.74,28.74,0,0,1-15.5313,27.306h0a28.673,28.673,0,0,1-26.7311-.0706h0a29.1782,29.1782,0,0,1-20.5862,15.676h0a28.8826,28.8826,0,0,1-24.2018-6.5751h0a28.696,28.696,0,0,1-22.47,10.7657h0A28.8149,28.8149,0,0,1,233.68,215.6457Z" style="fill:#eb5d25"/></g></svg>