<?xml version="1.0" ?><svg viewBox="0 0 512 512" xmlns="http://www.w3.org/2000/svg"><g id="Female_caucasian_skin_01"><path d="M389.9851,300.3886V278.0228h-267.97v22.3658c0,22.4072-7.3512,43.8082-18.7241,63.1147A45.6505,45.6505,0,0,0,96.5852,386.85c0,45,71.3717,81.4765,159.4143,81.4765S415.4148,431.85,415.4148,386.85a45.6505,45.6505,0,0,0-6.7056-23.3464C397.3363,344.1968,389.9851,322.7958,389.9851,300.3886Z" style="fill:#521919"/><path d="M304.8656,473.543H207.1342a11.2273,11.2273,0,0,1-10.7953-14.3116l18.14-63.4906A37.5,37.5,0,0,1,250.536,368.543h10.9278a37.5,37.5,0,0,1,36.0569,27.1978l18.14,63.4906A11.2273,11.2273,0,0,1,304.8656,473.543Z" style="fill:#f4e2ff"/><path d="M377.7963,228.13H367.3378A112.4057,112.4057,0,0,0,256,130.7726h0A112.4054,112.4054,0,0,0,144.6623,228.13h-10.459a33.7519,33.7519,0,1,0,0,67.5037h10.459A112.4053,112.4053,0,0,0,256,392.9888h0a112.4057,112.4057,0,0,0,111.3377-97.3553h10.4585a33.7519,33.7519,0,1,0,0-67.5037Z" style="fill:#f8c4b0"/><path d="M256,358.7975a37.2429,37.2429,0,0,1-26.5137-10.9827,7.4992,7.4992,0,0,1,10.6055-10.6054c8.4961,8.4961,23.32,8.4961,31.8164,0a7.4992,7.4992,0,0,1,10.6055,10.6054A37.2427,37.2427,0,0,1,256,358.7975Z" style="fill:#ff4d4d"/><rect height="45" rx="15" style="fill:#ef9e8b" width="30" x="241" y="275.8604"/><path d="M380.4682,241.8049H366.97v40.1513h13.4985a20.2464,20.2464,0,0,0,0-40.1513Z" style="fill:#ef9e8b"/><path d="M336.1745,244.94a7.4973,7.4973,0,0,0-10.6055,0l-2.3378,2.3383a20.6845,20.6845,0,1,0,10.605,10.6055l2.3383-2.3383A7.4975,7.4975,0,0,0,336.1745,244.94Z" style="fill:#004b28"/><circle cx="319.5725" cy="258.4668" r="7.6845" style="fill:#ffefdc"/><path d="M197.0363,245.5264a20.5225,20.5225,0,0,0-8.2682,1.7505l-2.3373-2.3365a7.4992,7.4992,0,0,0-10.6055,10.6055l2.3374,2.3364a20.6122,20.6122,0,1,0,18.8736-12.3559Z" style="fill:#004b28"/><circle cx="201.647" cy="258.4668" r="7.6845" style="fill:#ffefdc"/><path d="M131.5316,241.8049H145.03v40.1513H131.5316a20.2464,20.2464,0,0,1,0-40.1513Z" style="fill:#ef9e8b"/><path d="M389.9851,213.269v17.1752a32.8469,32.8469,0,0,0-12.225-2.3254H367.41a.0736.0736,0,0,1-.0751-.0751c-33.0748-21.3739-68.4-11.55-112.2748-16.65-43.95-5.1-57.75-40.199-57.75-40.199s-39.375,9.8236-52.5,55.7995c-.0751.3736-.2252.7489-.3,1.1243H134.16a32.746,32.746,0,0,0-12.15,2.3254V213.269a133.9874,133.9874,0,1,1,267.9748,0Z" style="fill:#521919"/></g></svg>