<?xml version="1.0" ?><svg viewBox="0 0 512 512" xmlns="http://www.w3.org/2000/svg"><g id="Female_caucasian_skin_08"><path d="M342.9037,93.9965a14.4285,14.4285,0,0,0-7.6446-23.2577,14.4114,14.4114,0,0,0-14.4582-19.7225,14.4533,14.4533,0,0,0-19.8316-14.3508,14.4342,14.4342,0,0,0-23.33-7.465,14.4089,14.4089,0,0,0-24.4462.0722A14.4,14.4,0,0,0,229.9355,36.88a14.4524,14.4524,0,0,0-19.76,14.46,14.4167,14.4167,0,0,0-14.3507,19.7946,14.4628,14.4628,0,0,0-7.5,23.33,14.4288,14.4288,0,0,0,.037,24.4462,14.4381,14.4381,0,0,0,7.6076,23.2578,14.4316,14.4316,0,0,0,14.423,19.7963,14.4167,14.4167,0,0,0,19.7946,14.3508,14.43,14.43,0,0,0,23.2948,7.5355,14.4206,14.4206,0,0,0,24.4813-.037,14.4079,14.4079,0,0,0,23.2578-7.5706,14.429,14.429,0,0,0,19.7964-14.3878,14.4178,14.4178,0,0,0,14.386-19.7946,14.4463,14.4463,0,0,0,7.5724-23.293,14.41,14.41,0,0,0,6.7784-12.224v-.3239A14.5032,14.5032,0,0,0,342.9037,93.9965Z" style="fill:#330f0f"/><path d="M314.534,473.543H216.8027a11.2272,11.2272,0,0,1-10.7953-14.3116l18.14-63.4906a37.5,37.5,0,0,1,36.0569-27.1978h10.9277a37.5,37.5,0,0,1,36.0569,27.1978l18.14,63.4906A11.2272,11.2272,0,0,1,314.534,473.543Z" style="fill:#0d263e"/><path d="M387.4652,228.13h-10.459a112.4042,112.4042,0,0,0-111.3373-97.3563h-.0009A112.4048,112.4048,0,0,0,154.3307,228.13h-10.459a33.7509,33.7509,0,1,0,0,67.5018h10.459A112.4057,112.4057,0,0,0,265.668,392.9891h.0009a112.4051,112.4051,0,0,0,111.3373-97.3572h10.459a33.7509,33.7509,0,1,0,0-67.5018Z" style="fill:#f8c4b0"/><path d="M265.6689,358.8a37.234,37.234,0,0,1-26.5137-10.9863,7.4992,7.4992,0,1,1,10.6055-10.6055c8.4961,8.5034,23.32,8.5034,31.8164,0a7.4992,7.4992,0,1,1,10.6055,10.6055A37.234,37.234,0,0,1,265.6689,358.8Z" style="fill:#ff4d4d"/><rect height="45" rx="15" style="fill:#ef9e8b" width="30" x="250.6683" y="275.8604"/><path d="M390.1366,241.8049H376.638v40.1513h13.4986a20.2465,20.2465,0,0,0,0-40.1513Z" style="fill:#ef9e8b"/><path d="M345.8428,244.94a7.4973,7.4973,0,0,0-10.6055,0L332.9,247.2787a20.6845,20.6845,0,1,0,10.605,10.6055l2.3383-2.3383A7.4973,7.4973,0,0,0,345.8428,244.94Z" style="fill:#0167a3"/><circle cx="329.2408" cy="258.4668" r="7.6845" style="fill:#ffefdc"/><path d="M206.7046,245.5264a20.5221,20.5221,0,0,0-8.2681,1.7505l-2.3373-2.3365a7.4992,7.4992,0,0,0-10.6055,10.6055l2.3373,2.3364a20.6122,20.6122,0,1,0,18.8736-12.3559Z" style="fill:#0167a3"/><circle cx="211.3153" cy="258.4668" r="7.6845" style="fill:#ffefdc"/><path d="M141.2,241.8049h13.4986v40.1513H141.2a20.2465,20.2465,0,0,1,0-40.1513Z" style="fill:#ef9e8b"/><path d="M399.6536,213.2427v17.2494a27.3412,27.3412,0,0,0-5.3247-1.65h-.15a22.2247,22.2247,0,0,0-3.2254-.5255,25.9217,25.9217,0,0,0-3.45-.2243H376.629v.0751c-58.05-5.85-80.0254-57-80.0254-57s-11.6244,35.1-48.3755,40.2c-36.5991,5.1754-66.2988-4.7251-93.8992,16.5747l-.15.15h-5.4l.0742.0751h-4.9493a33.75,33.75,0,1,0,0,67.5h10.4251a112.3871,112.3871,0,0,0,35.9994,68.25c-16.5,45.45-62.6239,52.1246-62.6239,52.1246,57.9749-90.6-73.5754-121.2744-26.6254-255.9741.6-1.875,1.1994-3.6,1.875-5.4a4.7875,4.7875,0,0,1,.15-.5255c16.5747-42.5995,66.3-74.85,162.6-74.85A133.9865,133.9865,0,0,1,399.6536,213.2427Z" style="fill:#521919"/></g></svg>