<?xml version="1.0" ?><svg viewBox="0 0 512 512" xmlns="http://www.w3.org/2000/svg"><g id="Female_malayan_skin_04"><path d="M394.7853,292.8886V270.5228H126.815v22.3658c0,22.4072-7.3512,43.8082-18.724,63.1147a45.65,45.65,0,0,0-6.7057,23.3464c0,45,71.3718,81.4765,159.4144,81.4765S420.215,424.35,420.215,379.35a45.65,45.65,0,0,0-6.7057-23.3464C402.1365,336.6968,394.7853,315.2958,394.7853,292.8886Z" style="fill:#521919"/><path d="M309.6658,473.543H211.9345a11.2272,11.2272,0,0,1-10.7953-14.3116l18.14-63.4906a37.5,37.5,0,0,1,36.0569-27.1978H266.264a37.5,37.5,0,0,1,36.057,27.1978l18.14,63.4906A11.2272,11.2272,0,0,1,309.6658,473.543Z" style="fill:#3285e2"/><path d="M382.5967,228.13h-10.459a112.3416,112.3416,0,0,0-222.6755,0H139.0037a33.7509,33.7509,0,1,0,0,67.5018h10.4585a112.3417,112.3417,0,0,0,222.6755,0h10.459a33.7509,33.7509,0,1,0,0-67.5018Z" style="fill:#d87761"/><path d="M260.8,358.7981a37.2428,37.2428,0,0,1-26.5137-10.9826A7.4992,7.4992,0,1,1,244.8918,337.21c8.4961,8.4961,23.32,8.4961,31.8164,0a7.4992,7.4992,0,0,1,10.6054,10.6055A37.2428,37.2428,0,0,1,260.8,358.7981Z" style="fill:#c42020"/><rect height="45" rx="15" style="fill:#bf5e48" width="30" x="245.8002" y="275.8604"/><path d="M385.2684,241.8049H371.77v40.1513h13.4986a20.2465,20.2465,0,0,0,0-40.1513Z" style="fill:#bf5e48"/><path d="M340.9746,244.94a7.4973,7.4973,0,0,0-10.6055,0l-2.3378,2.3383a20.684,20.684,0,1,0,10.6051,10.6055l2.3382-2.3383A7.4973,7.4973,0,0,0,340.9746,244.94Z" style="fill:#0d253d"/><circle cx="324.3726" cy="258.4668" r="7.6845" style="fill:#ffefdc"/><path d="M201.8364,245.5264a20.5221,20.5221,0,0,0-8.2681,1.7505L191.231,244.94a7.4992,7.4992,0,0,0-10.6055,10.6055l2.3373,2.3364a20.6122,20.6122,0,1,0,18.8736-12.3559Z" style="fill:#0d253d"/><circle cx="206.4471" cy="258.4668" r="7.6845" style="fill:#ffefdc"/><path d="M136.3317,241.8049H149.83v40.1513H136.3317a20.2465,20.2465,0,0,1,0-40.1513Z" style="fill:#bf5e48"/><path d="M394.7847,213.2476v17.1753a33.1393,33.1393,0,0,0-12.225-2.3254h-10.8c-58.05-5.7752-80.1-56.9248-80.1-56.9248s-11.55,35.1-48.3,40.2c-36.6746,5.1-66.3-4.7241-93.9,16.5747l-.15.15H138.96a33.1518,33.1518,0,0,0-19.65,6.4508c-10.275-9.375-27.5249-29.55-27.5249-60.0751,0-47.3255,47.4-95.1755,168.9748-95.1755A133.9551,133.9551,0,0,1,394.7847,213.2476Z" style="fill:#521919"/></g></svg>