<?xml version="1.0" ?><svg viewBox="0 0 512 512" xmlns="http://www.w3.org/2000/svg"><g id="Male_caucasian_skin_07"><path d="M317.1627,404.168l-7.4254,59.55a11.1993,11.1993,0,0,1-11.1749,9.8254H213.4376a11.1993,11.1993,0,0,1-11.1749-9.8254l-7.4254-59.55a45.0061,45.0061,0,0,1,44.6251-50.625h33.0752A45.0061,45.0061,0,0,1,317.1627,404.168Z" style="fill:#f4e2ff"/><polygon points="278.762 441.067 256.038 463.194 233.238 440.394 251.312 353.543 261.137 353.543 278.762 441.067" style="fill:#eb5e59"/><path d="M371.827,219.8376H361v.0018a105,105,0,0,0-105-105h0a105,105,0,0,0-105,105v-.0018H140.1734a33.7514,33.7514,0,1,0,0,67.5027H151v-.0009a105,105,0,0,0,105,105h0a105,105,0,0,0,105-105v.0009h10.827a33.7514,33.7514,0,1,0,0-67.5027Z" style="fill:#f8c4b0"/><path d="M256.0018,358.15a37.2966,37.2966,0,0,1-26.521-10.979,7.5018,7.5018,0,0,1,10.6055-10.6128c8.5107,8.5035,23.3276,8.5,31.8237.0037a7.4992,7.4992,0,1,1,10.6055,10.6055A37.2428,37.2428,0,0,1,256.0018,358.15Z" style="fill:#ff8080"/><rect height="90" rx="30" style="fill:#ef9e8b" width="60" x="226.0002" y="245.2118"/><path d="M374.4986,233.5127H361v40.1514h13.4985a20.2465,20.2465,0,0,0,0-40.1514Z" style="fill:#ef9e8b"/><circle cx="314.963" cy="250.5027" r="20.625" style="fill:#0167a3"/><circle cx="319.5737" cy="242.8182" r="7.6845" style="fill:#ffefdc"/><circle cx="197.0374" cy="250.5027" r="20.625" style="fill:#0167a3"/><circle cx="201.6481" cy="242.8182" r="7.6845" style="fill:#ffefdc"/><path d="M137.5017,233.5127H151v40.1514H137.5017a20.2465,20.2465,0,0,1,0-40.1514Z" style="fill:#ef9e8b"/><path d="M256,114.8391c-27.2731-2.9608-48.4168-20.354-48.4168-20.354s-.9677,18.2739,7.4552,28.645c0,0-15.1145-.78-24.6094-8.291,0,0,.1227,13.0078,5.2634,19.1309A104.8047,104.8047,0,0,0,151,219.8373c.0037-.011,9.8172-39.4941,51.6536-53.5016h.02c13.18,13.1634,32.1565,21.4819,53.3267,21.4819s40.1468-8.3185,53.3267-21.4819h.02c36.5144,12.2241,48.63,43.8446,51.1249,51.7016l.5287,1.8A105,105,0,0,0,256,114.8391Z" style="fill:#eb5d25"/></g></svg>