<?xml version="1.0" ?><svg viewBox="0 0 512 512" xmlns="http://www.w3.org/2000/svg"><g id="Female_mongolian_skin_04"><circle cx="256.0001" cy="159.2951" r="62.7128" style="fill:#071b2b"/><path d="M304.8656,473.543H207.1343a11.2272,11.2272,0,0,1-10.7953-14.3116l18.14-63.4906a37.5,37.5,0,0,1,36.0569-27.1978h10.9278a37.5,37.5,0,0,1,36.0569,27.1978l18.14,63.4906A11.2272,11.2272,0,0,1,304.8656,473.543Z" style="fill:#eb5e59"/><path d="M377.7967,228.13h-10.459a112.3415,112.3415,0,0,0-222.6754,0h-10.459a33.7509,33.7509,0,1,0,0,67.5018h10.459a112.3416,112.3416,0,0,0,222.6754,0h10.459a33.7509,33.7509,0,1,0,0-67.5018Z" style="fill:#f8c497"/><path d="M256.0014,358.7981a37.2964,37.2964,0,0,1-26.521-10.979,7.5018,7.5018,0,0,1,10.6054-10.6128c8.5108,8.5035,23.3277,8.5,31.8238.0037a7.4992,7.4992,0,1,1,10.6054,10.6055A37.2428,37.2428,0,0,1,256.0014,358.7981Z" style="fill:#f7725c"/><path d="M380.4683,241.8049H366.97v40.1513h13.4985a20.2464,20.2464,0,0,0,0-40.1513Z" style="fill:#ef9e72"/><path d="M297.3612,271.0247a7.5,7.5,0,0,1-1.0913-14.9194l35.1929-5.2185a7.5,7.5,0,1,1,2.1973,14.8388l-35.1929,5.2185A7.5554,7.5554,0,0,1,297.3612,271.0247Z" style="fill:#0d263e"/><path d="M214.6415,271.0247a7.5541,7.5541,0,0,1-1.1059-.0806l-35.1929-5.2185a7.5,7.5,0,0,1,2.1972-14.8388l35.1929,5.2185a7.5,7.5,0,0,1-1.0913,14.9194Z" style="fill:#0d263e"/><path d="M131.5316,241.8049H145.03v40.1513H131.5316a20.2465,20.2465,0,0,1,0-40.1513Z" style="fill:#ef9e72"/><path d="M367.2558,227.6a112.4007,112.4007,0,0,0-111.2567-96.8262h0A112.4014,112.4014,0,0,0,144.7442,227.587c1.7633-4.4843,15.7429-37.2236,50.8983-44.5295a53.81,53.81,0,0,1,29.6882,2.016,89.76,89.76,0,0,0,61.3335,0,53.8119,53.8119,0,0,1,29.6887-2.016C351.5325,190.3689,365.5085,223.15,367.2558,227.6Z" style="fill:#0d253d"/><path d="M355.24,232.7753H271.3223a7.5,7.5,0,0,0-7.5,7.5v7.5H248.1778v-7.5a7.5,7.5,0,0,0-7.5-7.5H156.7606a7.5,7.5,0,0,0-7.5,7.5v61.9556a7.5,7.5,0,0,0,7.5,7.5h83.9172a7.5,7.5,0,0,0,7.5-7.5V262.7753h15.6445v39.4556a7.5,7.5,0,0,0,7.5,7.5H355.24a7.5,7.5,0,0,0,7.5-7.5V240.2753A7.5,7.5,0,0,0,355.24,232.7753ZM233.1778,294.7309H164.2606V247.7753h68.9172Zm114.5618,0H278.8223V247.7753H347.74Z" style="fill:#521919"/><rect height="45" rx="15" style="fill:#ef9e72" width="30" x="241.0001" y="275.8604"/></g></svg>