<?xml version="1.0" ?><svg viewBox="0 0 512 512" xmlns="http://www.w3.org/2000/svg"><g id="Female_caucasian_skin_03"><rect height="175.2129" style="fill:#c94517" width="225" x="143.5001" y="199.2944"/><path d="M304.8658,473.543H207.1344a11.2273,11.2273,0,0,1-10.7953-14.3116l18.14-63.4906a37.5,37.5,0,0,1,36.0569-27.1978H261.464a37.5,37.5,0,0,1,36.0569,27.1978l18.14,63.4906A11.2273,11.2273,0,0,1,304.8658,473.543Z" style="fill:#f4e2ff"/><rect height="262.2149" rx="112.4697" style="fill:#f8c4b0" width="224.9396" x="143.5302" y="130.7736"/><path d="M255.9968,358.7981a37.243,37.243,0,0,1-26.5137-10.9826A7.4992,7.4992,0,0,1,240.0886,337.21c8.4961,8.5,23.3276,8.4924,31.8237,0a7.4992,7.4992,0,0,1,10.6055,10.6055A37.26,37.26,0,0,1,255.9968,358.7981Z" style="fill:#ff4d4d"/><rect height="45" rx="15" style="fill:#ef9e8b" width="30" x="241.0001" y="275.8604"/><path d="M336.1746,244.94a7.4973,7.4973,0,0,0-10.6055,0l-2.3378,2.3383a20.6845,20.6845,0,1,0,10.605,10.6055l2.3383-2.3383A7.4975,7.4975,0,0,0,336.1746,244.94Z" style="fill:#004b28"/><circle cx="319.5726" cy="258.4668" r="7.6845" style="fill:#ffefdc"/><path d="M197.0364,245.5264a20.5225,20.5225,0,0,0-8.2682,1.7505l-2.3373-2.3365a7.4992,7.4992,0,0,0-10.6055,10.6055l2.3374,2.3364a20.6122,20.6122,0,1,0,18.8736-12.3559Z" style="fill:#004b28"/><circle cx="201.6471" cy="258.4668" r="7.6845" style="fill:#ffefdc"/><path d="M251.0754,102.0416C177.9211,104.6435,121,166.9891,121,240.1891V364.9938a24.5144,24.5144,0,0,0,24.5151,24.5142h7.4487a11.4788,11.4788,0,0,0,11.478-11.4789V244.45a14.996,14.996,0,0,1,14.9954-14.9963h62.96L256,199.2944l13.602,30.1593h62.96A14.996,14.996,0,0,1,347.5582,244.45V378.0273a11.48,11.48,0,0,0,11.48,11.4807h7.4469A24.5144,24.5144,0,0,0,391,364.9938v-128.04A135.0028,135.0028,0,0,0,251.0754,102.0416Z" style="fill:#eb5d25"/></g></svg>