<?xml version="1.0" ?><svg viewBox="0 0 512 512" xmlns="http://www.w3.org/2000/svg"><g id="Male_aethiopian_skin_03"><path d="M359.3344,308.522a19.3042,19.3042,0,0,0-10.2278-31.1168,19.2811,19.2811,0,0,0-19.3438-26.3869,19.3374,19.3374,0,0,0-26.533-19.2,19.3117,19.3117,0,0,0-31.2134-9.9876,19.278,19.278,0,0,0-32.7069.0966,19.2664,19.2664,0,0,0-31.1168,10.1783,19.336,19.336,0,0,0-26.4364,19.3462,19.2885,19.2885,0,0,0-19.2,26.4835,19.35,19.35,0,0,0-10.0346,31.2134,19.3043,19.3043,0,0,0,.0494,32.7068,19.3169,19.3169,0,0,0,10.1784,31.1169,19.3082,19.3082,0,0,0,19.2967,26.4858,19.2884,19.2884,0,0,0,26.4834,19.2A19.3055,19.3055,0,0,0,239.6959,428.74a19.2936,19.2936,0,0,0,32.7539-.05,19.2765,19.2765,0,0,0,31.1169-10.1289,19.3047,19.3047,0,0,0,26.4858-19.25A19.29,19.29,0,0,0,349.3,372.8286a19.3278,19.3278,0,0,0,10.1312-31.164A19.28,19.28,0,0,0,368.5,325.31v-.4334A19.4041,19.4041,0,0,0,359.3344,308.522Z" style="fill:#071b2b"/><path d="M298.5816,473.543H213.418a11.2352,11.2352,0,0,1-11.1484-9.8416l-7.4478-59.5825a44.995,44.995,0,0,1,44.6475-50.5759H272.53a44.995,44.995,0,0,1,44.6475,50.5759L309.73,463.7014A11.2351,11.2351,0,0,1,298.5816,473.543Z" style="fill:#ffc139"/><path d="M371.8266,219.8376H361v.0018a105,105,0,0,0-105-105h0a105,105,0,0,0-105,105v-.0018H140.1734a33.7514,33.7514,0,1,0,0,67.5027H151v-.0009a105,105,0,0,0,105,105h0a105,105,0,0,0,105-105v.0009h10.8266a33.7514,33.7514,0,1,0,0-67.5027Z" style="fill:#a5442e"/><path d="M277.3672,376.1274H234.6326a8.6154,8.6154,0,0,0-5.9871,14.8106l21.3673,20.65a8.6157,8.6157,0,0,0,11.9743,0l21.3672-20.65A8.6154,8.6154,0,0,0,277.3672,376.1274Z" style="fill:#0d263e"/><path d="M255.9991,358.15a37.243,37.243,0,0,1-26.5137-10.9826,7.4992,7.4992,0,0,1,10.6055-10.6055c8.4961,8.4961,23.32,8.4961,31.8164,0a7.4992,7.4992,0,0,1,10.6055,10.6055A37.2432,37.2432,0,0,1,255.9991,358.15Z" style="fill:#8c1813"/><rect height="68.3763" rx="22.7921" style="fill:#8c2b15" width="45.5842" x="233.2078" y="263.5237"/><path d="M374.4984,233.5127H361v40.1514h13.4986a20.2465,20.2465,0,0,0,0-40.1514Z" style="fill:#8c2b15"/><circle cx="314.9626" cy="250.5027" r="20.625" style="fill:#0d253d"/><circle cx="319.5733" cy="242.8182" r="7.6845" style="fill:#ffefdc"/><circle cx="197.037" cy="250.5027" r="20.625" style="fill:#0d253d"/><circle cx="201.6478" cy="242.8182" r="7.6845" style="fill:#ffefdc"/><path d="M137.5014,233.5127H151v40.1514H137.5014a20.2465,20.2465,0,0,1,0-40.1514Z" style="fill:#8c2b15"/><path d="M361,219.8373a105,105,0,0,0-210,0c22.3892-84.0876,105-50.9125,105-50.9125S338.6107,135.75,361,219.8373Z" style="fill:#0d263e"/></g></svg>