<?xml version="1.0" ?><svg viewBox="0 0 512 512" xmlns="http://www.w3.org/2000/svg"><g id="Female_malayan_skin_05"><path d="M412.0236,413.3344c-.9052-10.3452-4.655-15.2289-8.4057-20.1134s-7.5005-9.769-8.4056-20.115c-.9044-10.3363,1.9412-15.793,4.7867-21.25s5.69-10.9133,4.7867-21.25c-.9051-10.3428-4.655-15.2257-8.4048-20.1077s-7.5-9.765-8.4049-20.1078c-.8291-9.4676,1.49-14.8386,4.07-19.8685H119.9539c2.5805,5.03,4.8991,10.4009,4.0707,19.8685-.9043,10.3428-4.655,15.2257-8.4048,20.1078s-7.5005,9.7649-8.4048,20.1077c-.9044,10.3364,1.9412,15.793,4.7867,21.25s5.691,10.9134,4.7859,21.25c-.9052,10.346-4.655,15.2305-8.4049,20.115s-7.5005,9.7682-8.4056,20.1134c-.0089.1043-.0178.2069-.0267.31a28.2927,28.2927,0,0,0,15.7243,27.2623c19.19,9.6777,64.3164,27.1178,140.326,27.1178s121.1347-17.44,140.3252-27.1178a28.2908,28.2908,0,0,0,15.7235-27.2623C412.0413,413.5413,412.0316,413.4387,412.0236,413.3344Z" style="fill:#0d263e"/><path d="M304.8663,473.543H207.1349A11.2273,11.2273,0,0,1,196.34,459.2314l18.14-63.4906a37.5,37.5,0,0,1,36.0569-27.1978h10.9278a37.5,37.5,0,0,1,36.0569,27.1978l18.14,63.4906A11.2273,11.2273,0,0,1,304.8663,473.543Z" style="fill:#d87761"/><path d="M297.5208,395.7409a37.3919,37.3919,0,0,0-20.3082-23.6151V392.33A21.2127,21.2127,0,0,1,256,413.5424h0A21.2132,21.2132,0,0,1,234.787,392.33V372.1258a37.3916,37.3916,0,0,0-20.3082,23.6151L199.964,446.5435H312.0356Z" style="fill:#3285e2"/><path d="M377.7969,228.13h-10.459a112.4042,112.4042,0,0,0-111.3373-97.3562H256A112.4056,112.4056,0,0,0,144.6624,228.13h-10.459a33.7514,33.7514,0,1,0,0,67.5028h10.459A112.4063,112.4063,0,0,0,256,392.9888h.0009a112.405,112.405,0,0,0,111.3373-97.3562h10.459a33.7514,33.7514,0,1,0,0-67.5028Z" style="fill:#d87761"/><path d="M255.9969,358.7994a37.2335,37.2335,0,0,1-26.5136-10.9864,7.4992,7.4992,0,1,1,10.6054-10.6054c8.4888,8.5,23.3057,8.5107,31.8238-.0037a7.5018,7.5018,0,0,1,10.6054,10.6128A37.285,37.285,0,0,1,255.9969,358.7994Z" style="fill:#c42020"/><rect height="45" rx="15" style="fill:#bf5e48" width="30" x="241.0001" y="275.8604"/><path d="M380.4683,241.8049H366.97v40.1513h13.4985a20.2464,20.2464,0,0,0,0-40.1513Z" style="fill:#bf5e48"/><path d="M336.1746,244.94a7.4973,7.4973,0,0,0-10.6055,0l-2.3378,2.3383a20.6845,20.6845,0,1,0,10.605,10.6055l2.3383-2.3383A7.4975,7.4975,0,0,0,336.1746,244.94Z" style="fill:#0d263e"/><circle cx="319.5726" cy="258.4668" r="7.6845" style="fill:#ffefdc"/><path d="M197.0364,245.5264a20.5225,20.5225,0,0,0-8.2682,1.7505l-2.3373-2.3365a7.4992,7.4992,0,0,0-10.6055,10.6055l2.3374,2.3364a20.6122,20.6122,0,1,0,18.8736-12.3559Z" style="fill:#0d263e"/><circle cx="201.6471" cy="258.4668" r="7.6845" style="fill:#ffefdc"/><path d="M131.5317,241.8049H145.03v40.1513H131.5317a20.2464,20.2464,0,0,1,0-40.1513Z" style="fill:#bf5e48"/><path d="M389.99,213.2452V230.42a32.7451,32.7451,0,0,0-12.15-2.3246H367.49c-.0751,0-.0751-.075-.15-.075-32.9993-21.3758-68.4-11.55-112.2748-16.65s-57.75-40.2008-57.75-40.2008S157.64,181.145,144.74,227.57c-.0751.15-.0751.3754-.15.5255H134.24a33.1388,33.1388,0,0,0-12.225,2.3246V213.2452a133.9874,133.9874,0,0,1,267.9748,0Z" style="fill:#0d263e"/></g></svg>