<?xml version="1.0" ?><svg viewBox="0 0 512 512" xmlns="http://www.w3.org/2000/svg"><g id="Male_mongolian_skin_03"><path d="M302.0041,473.543H216.84a11.235,11.235,0,0,1-11.1483-9.8416l-7.4479-59.5825a44.995,44.995,0,0,1,44.6475-50.5759h33.0611A44.995,44.995,0,0,1,320.6,404.1189l-7.4478,59.5825A11.2352,11.2352,0,0,1,302.0041,473.543Z" style="fill:#8ca4bc"/><path d="M375.2488,219.8376H364.4222v.0018a105,105,0,0,0-210,0v-.0018H143.5957a33.7514,33.7514,0,1,0,0,67.5027h10.8265v-.0009a105,105,0,0,0,210,0v.0009h10.8266a33.7514,33.7514,0,1,0,0-67.5027Z" style="fill:#f8c497"/><path d="M259.419,358.15a37.2428,37.2428,0,0,1-26.5136-10.9826,7.4992,7.4992,0,0,1,10.6054-10.6055c8.4961,8.5,23.3277,8.4924,31.8238,0A7.4992,7.4992,0,0,1,285.94,347.1673,37.26,37.26,0,0,1,259.419,358.15Z" style="fill:#f7725c"/><rect height="60.0155" rx="16.6061" style="fill:#ef9e72" width="33.2122" x="242.8161" y="262.6054"/><path d="M377.9207,233.5127H364.4222v40.1514h13.4985a20.2465,20.2465,0,0,0,0-40.1514Z" style="fill:#ef9e72"/><circle cx="318.3849" cy="250.5027" r="20.625" style="fill:#0d253d"/><circle cx="322.9956" cy="242.8182" r="7.6845" style="fill:#ffefdc"/><circle cx="200.4594" cy="250.5027" r="20.625" style="fill:#0d253d"/><circle cx="205.0701" cy="242.8182" r="7.6845" style="fill:#ffefdc"/><path d="M140.9238,233.5127h13.4985v40.1514H140.9238a20.2465,20.2465,0,0,1,0-40.1514Z" style="fill:#ef9e72"/><path d="M345.6567,112.0617h-30a35.6394,35.6394,0,0,0-35.64-35.64H124.4222a110.9573,110.9573,0,0,0,5.9336,35.64h-27.399v56.31a51.4656,51.4656,0,0,0,51.4654,51.4655H283.5565a32.1,32.1,0,0,0,32.1-32.1,38.6587,38.6587,0,0,0,37.95,32.1h21.6751l13.95-50.3265A45.2505,45.2505,0,0,0,345.6567,112.0617Z" style="fill:#0d263e"/></g></svg>