<?xml version="1.0" ?><svg viewBox="0 0 512 512" xmlns="http://www.w3.org/2000/svg"><g id="Female_caucasian_skin_07"><path d="M360.7864,353.4034l-.0942.0239a41.4194,41.4194,0,1,0-77.241,19.2989c21.2646,36.8313,73.3884,64.0284,119.5789,32.04C403.03,404.7662,358.55,391.89,360.7864,353.4034Z" style="fill:#c94517"/><path d="M315.6609,459.2315l-18.14-63.49a37.3021,37.3021,0,0,0-5.8567-11.8195l-35.6648,61.7725L220.3353,383.922a37.3115,37.3115,0,0,0-5.8562,11.8195l-18.14,63.49a11.2272,11.2272,0,0,0,10.7954,14.3115h97.7312A11.2271,11.2271,0,0,0,315.6609,459.2315Z" style="fill:#521919"/><path d="M291.664,383.922a37.4464,37.4464,0,0,0-30.2-15.379H250.5363a37.4468,37.4468,0,0,0-30.201,15.379l35.6639,61.7725Z" style="fill:#f4e2ff"/><path d="M377.7965,228.13h-10.459A112.4036,112.4036,0,0,0,256,130.775h0A112.4042,112.4042,0,0,0,144.662,228.13H134.2035a33.7514,33.7514,0,1,0,0,67.5027H144.662A112.4058,112.4058,0,0,0,256,392.9894h0a112.4052,112.4052,0,0,0,111.3373-97.3563h10.459a33.7514,33.7514,0,1,0,0-67.5027Z" style="fill:#f8c4b0"/><path d="M256,358.8a37.2338,37.2338,0,0,1-26.5137-10.9863,7.4992,7.4992,0,1,1,10.6055-10.6055c8.4961,8.5035,23.32,8.5035,31.8164,0a7.4992,7.4992,0,1,1,10.6054,10.6055A37.2338,37.2338,0,0,1,256,358.8Z" style="fill:#ff4d4d"/><rect height="45" rx="15" style="fill:#ef9e8b" width="30" x="241.0001" y="275.8611"/><path d="M380.4683,241.8056H366.97v40.1513h13.4985a20.2464,20.2464,0,0,0,0-40.1513Z" style="fill:#ef9e8b"/><path d="M336.1745,244.9412a7.4972,7.4972,0,0,0-10.6054,0l-2.3378,2.3382a20.6845,20.6845,0,1,0,10.605,10.6055l2.3382-2.3383A7.4972,7.4972,0,0,0,336.1745,244.9412Z" style="fill:#0167a3"/><circle cx="319.5726" cy="258.4675" r="7.6845" style="fill:#ffefdc"/><path d="M197.0363,245.5271a20.5224,20.5224,0,0,0-8.2681,1.7505l-2.3373-2.3364a7.4992,7.4992,0,1,0-10.6055,10.6054l2.3373,2.3364a20.6122,20.6122,0,1,0,18.8736-12.3559Z" style="fill:#0167a3"/><circle cx="201.647" cy="258.4675" r="7.6845" style="fill:#ffefdc"/><path d="M131.5316,241.8056H145.03v40.1513H131.5316a20.2465,20.2465,0,0,1,0-40.1513Z" style="fill:#ef9e8b"/><path d="M367.2558,227.6A112.4007,112.4007,0,0,0,255.999,130.7738h0a112.4014,112.4014,0,0,0-111.2544,96.8134c1.7633-4.4843,15.7429-37.2236,50.8983-44.5295a53.81,53.81,0,0,1,29.6882,2.016,89.76,89.76,0,0,0,61.3335,0,53.8119,53.8119,0,0,1,29.6887-2.016C351.5325,190.3691,365.5085,223.1505,367.2558,227.6Z" style="fill:#eb5d25"/><path d="M209.3315,181.9039s-5.5472-23.8983-33.2572-26.5419c-28.6993-2.7359-60.6751,18.63-56.0959,67.0721,3.5212,37.2563,24.4637,39.7018,20.8641,72.3785-3.6,32.6785-5.2425,55.4287,29.1337,74.6221,0,0-20.03-30.5406-10.1845-56.43,9.8447-25.8879-6.6243-56.0152,4.435-84.7947C175.286,199.432,195.1547,180.9772,209.3315,181.9039Z" style="fill:#ff7443"/></g></svg>