<?xml version="1.0" ?><svg viewBox="0 0 512 512" xmlns="http://www.w3.org/2000/svg"><g id="Female_aethiopian_skin_02"><path d="M435.3407,177.9c12.1783-13.526,17.7887-29.057,13.9151-43.5095-6.3144-23.5712-35.8512-37.0441-71.16-35.0226,5.0491-19.2591,2.5516-37.0807-8.768-48.4-7.7948-7.7948-18.6868-11.391-30.99-11.2591l.0339-.0385c-.17,0-.3461.0275-.5173.0275-.9219.0183-1.8613.0952-2.7988.1538C307.6191,40.8,277.6594,53.2566,256,68.599c-21.6587-15.3405-51.6175-27.799-79.054-28.7475-.9375-.0586-1.8787-.1355-2.8006-.1538-.1712,0-.347-.0275-.5173-.0275l.0339.0385c-12.3019-.1319-23.193,3.4643-30.9888,11.2591-11.3205,11.32-13.8162,29.1412-8.768,48.4-35.31-2.0215-64.8449,11.4514-71.16,35.0226-3.8727,14.4525,1.7367,29.9835,13.9141,43.51-26.7022,16.1041-41.9137,39.9866-36.1505,61.496,4.1455,15.4687,18.3435,26.5448,37.56,31.8-12.7066,25.8032-12.9208,51.806,1.9263,66.6522,12.7121,12.713,33.6108,14.3188,55.5533,6.5625,1.3806,29.729,14.2813,53.3862,35.0711,58.9581,14.5413,3.8965,30.1776-1.7926,43.7613-14.1247,10.0836,18.4021,24.9719,30.0989,41.62,30.0989,16.65,0,31.538-11.6968,41.6207-30.0989,13.5837,12.3321,29.2191,18.0212,43.7613,14.1247,20.79-5.5719,33.6914-29.2291,35.07-58.9581,21.9434,7.7563,42.843,6.1505,55.5542-6.5625,14.8471-14.8462,14.6338-40.849,1.9263-66.6522,19.2169-5.2551,33.4131-16.3312,37.5586-31.8C477.2553,217.8868,462.0429,194.0043,435.3407,177.9Z" style="fill:#521919"/><path d="M304.8661,473.543H207.1347A11.2272,11.2272,0,0,1,196.34,459.2314l18.14-63.4906a37.5,37.5,0,0,1,36.0569-27.1978h10.9278a37.5,37.5,0,0,1,36.0569,27.1978l18.14,63.4906A11.2273,11.2273,0,0,1,304.8661,473.543Z" style="fill:#eb5e59"/><path d="M377.7969,228.13H367.338a112.3418,112.3418,0,0,0-222.6755,0H134.2044a33.7514,33.7514,0,1,0,0,67.5027h10.4581a112.3417,112.3417,0,0,0,222.6755,0h10.4589a33.7514,33.7514,0,1,0,0-67.5027Z" style="fill:#a5442e"/><path d="M256.0025,358.7992a37.2848,37.2848,0,0,1-26.521-10.9827,7.5018,7.5018,0,0,1,10.6055-10.6128c8.518,8.5181,23.3349,8.5,31.8237.0037a7.4992,7.4992,0,1,1,10.6055,10.6055A37.234,37.234,0,0,1,256.0025,358.7992Z" style="fill:#8c1813"/><rect height="45" rx="15" style="fill:#8c2b15" width="30" x="241.0004" y="275.8604"/><path d="M380.4686,241.8049H366.97v40.1513h13.4985a20.2464,20.2464,0,0,0,0-40.1513Z" style="fill:#8c2b15"/><path d="M336.1749,244.94a7.4973,7.4973,0,0,0-10.6055,0l-2.3378,2.3383a20.6845,20.6845,0,1,0,10.605,10.6055l2.3383-2.3383A7.4973,7.4973,0,0,0,336.1749,244.94Z" style="fill:#0d253d"/><circle cx="319.5729" cy="258.4668" r="7.6845" style="fill:#ffefdc"/><path d="M197.0367,245.5264a20.5217,20.5217,0,0,0-8.2681,1.7505l-2.3374-2.3365a7.4992,7.4992,0,0,0-10.6055,10.6055l2.3374,2.3364a20.6122,20.6122,0,1,0,18.8736-12.3559Z" style="fill:#0d253d"/><circle cx="201.6474" cy="258.4668" r="7.6845" style="fill:#ffefdc"/><path d="M131.532,241.8049h13.4985v40.1513H131.532a20.2464,20.2464,0,0,1,0-40.1513Z" style="fill:#8c2b15"/><path d="M256,106.33a121.7984,121.7984,0,0,0-121.7963,121.8h10.827C233.9778,228.13,256,175.4728,256,175.4728S278.022,228.13,366.97,228.13h10.827A121.7986,121.7986,0,0,0,256,106.33Z" style="fill:#521919"/></g></svg>