<?xml version="1.0" ?><svg viewBox="0 0 512 512" xmlns="http://www.w3.org/2000/svg"><g id="Male_aethiopian_skin_01"><path d="M298.5816,473.543H213.418a11.2352,11.2352,0,0,1-11.1484-9.8416l-7.4478-59.5825a44.995,44.995,0,0,1,44.6475-50.5759H272.53a44.995,44.995,0,0,1,44.6475,50.5759L309.73,463.7014A11.2351,11.2351,0,0,1,298.5816,473.543Z" style="fill:#f4e2ff"/><path d="M371.8266,219.8369H361v.0019a105,105,0,0,0-105-105h0a105,105,0,0,0-105,105v-.0019H140.1734a33.7519,33.7519,0,1,0,0,67.5037H151v-.0018a104.9989,104.9989,0,0,0,105,105h0a104.999,104.999,0,0,0,105-105v.0018h10.8266a33.7519,33.7519,0,1,0,0-67.5037Z" style="fill:#a5442e"/><path d="M255.9991,358.1493a37.243,37.243,0,0,1-26.5137-10.9826,7.4992,7.4992,0,0,1,10.6055-10.6055c8.4961,8.4961,23.32,8.4961,31.8164,0a7.4992,7.4992,0,0,1,10.6055,10.6055A37.2432,37.2432,0,0,1,255.9991,358.1493Z" style="fill:#8c1813"/><rect height="68.3763" rx="22.7921" style="fill:#8c2b15" width="45.5842" x="233.2078" y="263.5237"/><path d="M374.4984,233.5127H361v40.1514h13.4986a20.2465,20.2465,0,0,0,0-40.1514Z" style="fill:#8c2b15"/><circle cx="314.9626" cy="250.5027" r="20.625" style="fill:#0d253d"/><circle cx="319.5733" cy="242.8182" r="7.6845" style="fill:#ffefdc"/><circle cx="197.037" cy="250.5027" r="20.625" style="fill:#0d253d"/><circle cx="201.6478" cy="242.8182" r="7.6845" style="fill:#ffefdc"/><path d="M137.5014,233.5127H151v40.1514H137.5014a20.2465,20.2465,0,0,1,0-40.1514Z" style="fill:#8c2b15"/></g></svg>