<?xml version="1.0" ?><svg viewBox="0 0 512 512" xmlns="http://www.w3.org/2000/svg"><g id="Female_mongolian_skin_07"><path d="M272.69,388.6944a22.4994,22.4994,0,0,1-18.75,10.0489h0a22.4151,22.4151,0,0,1-18.8233-10.1258h0A22.388,22.388,0,0,1,215.6164,398.67H215.54a22.5694,22.5694,0,0,1-19.9475-13.9526h0a22.5173,22.5173,0,0,1-23.9246,4.801h0a22.4982,22.4982,0,0,1-14.2529-19.801h0a22.5027,22.5027,0,0,1-24.1479-3.3H133.19a22.5472,22.5472,0,0,1-6.8995-23.3972h0a22.5475,22.5475,0,0,1-21.676-11.1035h0a22.5568,22.5568,0,0,1,1.1279-24.375h0A22.58,22.58,0,0,1,88.8671,289.92h0a22.5564,22.5564,0,0,1,8.6976-22.2766h0a22.5286,22.5286,0,0,1-10.8729-20.2478h0A22.4669,22.4669,0,0,1,99.967,227.818h0a22.4612,22.4612,0,0,1-6.0022-22.9505h0a22.4853,22.4853,0,0,1,17.7759-15.5969h0a22.4862,22.4862,0,0,1,0-23.7012h0a22.4856,22.4856,0,0,1,21.1487-10.5761h0a22.5156,22.5156,0,0,1,6.0022-22.8736h0a22.3269,22.3269,0,0,1,23.1-4.9512h0a22.46,22.46,0,0,1,11.55-20.6982h0a22.33,22.33,0,0,1,23.6243,1.1243h0a22.4492,22.4492,0,0,1,16.4246-17.1021h0v-.0732h0a22.4833,22.4833,0,0,1,22.5732,7.0495h0a22.6612,22.6612,0,0,1,20.1746-12.3742h0A22.5227,22.5227,0,0,1,276.44,97.5421h0a22.5983,22.5983,0,0,1,22.65-6.8994h0a22.5614,22.5614,0,0,1,16.3513,17.1753h0a22.331,22.331,0,0,1,23.6243-.9742h0A22.4808,22.4808,0,0,1,350.54,127.5421h0A22.6811,22.6811,0,0,1,373.64,132.57h0a22.4584,22.4584,0,0,1,5.852,22.95h0A22.6182,22.6182,0,0,1,400.6408,166.17h0a22.6357,22.6357,0,0,1-.15,23.6975h0a22.5969,22.5969,0,0,1,17.7759,15.6775h0a22.4673,22.4673,0,0,1-6.1524,22.8735h0a22.558,22.558,0,0,1,13.2019,19.6509h0a22.4543,22.4543,0,0,1-10.95,20.1746h0a22.5523,22.5523,0,0,1,8.551,22.35h0a22.3882,22.3882,0,0,1-16.875,17.6258h0a22.55,22.55,0,0,1,.9742,24.375h0a22.4688,22.4688,0,0,1-21.7493,10.95h0a22.461,22.461,0,0,1-7.1265,23.324h0a22.3659,22.3659,0,0,1-24.1516,3.2263h0a22.4647,22.4647,0,0,1-14.3225,19.7241h0a22.5,22.5,0,0,1-23.9246-4.9512h0A22.5214,22.5214,0,0,1,295.6408,398.67h-2.0251c-.7508.0733-1.5015.0733-2.1753.0733h0A22.3058,22.3058,0,0,1,272.69,388.6944Z" style="fill:#0d263e"/><path d="M304.8653,473.543H207.134a11.2273,11.2273,0,0,1-10.7953-14.3116l18.14-63.4906a37.5,37.5,0,0,1,36.0569-27.1978h10.9278a37.5,37.5,0,0,1,36.0569,27.1978l18.14,63.4906A11.2272,11.2272,0,0,1,304.8653,473.543Z" style="fill:#3285e2"/><rect height="262.2152" rx="112.4698" style="fill:#f8c497" width="224.9398" x="143.53" y="130.7735"/><path d="M255.9968,358.7994a37.2335,37.2335,0,0,1-26.5136-10.9864,7.4992,7.4992,0,1,1,10.6054-10.6054c8.4961,8.5,23.313,8.5107,31.8238-.0037a7.5018,7.5018,0,0,1,10.6054,10.6128A37.285,37.285,0,0,1,255.9968,358.7994Z" style="fill:#f7725c"/><rect height="45" rx="15" style="fill:#ef9e72" width="30" x="241" y="275.8604"/><path d="M336.1745,244.94a7.4973,7.4973,0,0,0-10.6055,0l-2.3378,2.3383a20.6845,20.6845,0,1,0,10.605,10.6055l2.3383-2.3383A7.4975,7.4975,0,0,0,336.1745,244.94Z" style="fill:#0d253d"/><circle cx="319.5725" cy="258.4668" r="7.6845" style="fill:#ffefdc"/><path d="M197.0363,245.5264a20.5225,20.5225,0,0,0-8.2682,1.7505l-2.3373-2.3365a7.4992,7.4992,0,0,0-10.6055,10.6055l2.3374,2.3364a20.6122,20.6122,0,1,0,18.8736-12.3559Z" style="fill:#0d253d"/><circle cx="201.647" cy="258.4668" r="7.6845" style="fill:#ffefdc"/><path d="M373.487,180.7714a129.6465,129.6465,0,0,0-24.375-33.825,131.7315,131.7315,0,0,0-186.2247,0,132.6171,132.6171,0,0,0-38.55,93.1494v43.5754a131.6732,131.6732,0,0,0,5.7752,38.7012,30.032,30.032,0,0,0,24.2248-29.4013,30.3123,30.3123,0,0,0-5.625-17.4737,29.6345,29.6345,0,0,0,13.4253-18.0762,30.0918,30.0918,0,0,0-2.1753-20.7,29.59,29.59,0,0,0,13.575-11.325,30.0216,30.0216,0,0,0,40.35-6.0755A29.9589,29.9589,0,0,0,256,217.7716a29.9589,29.9589,0,0,0,42.1124,1.549,30.0214,30.0214,0,0,0,40.35,6.0755,29.5911,29.5911,0,0,0,13.575,11.325,30.0929,30.0929,0,0,0-2.1753,20.7,29.6353,29.6353,0,0,0,13.4253,18.0762,30.3123,30.3123,0,0,0-5.625,17.4737,30.0322,30.0322,0,0,0,24.2249,29.4013,131.6732,131.6732,0,0,0,5.7751-38.7012V240.0958A130.3512,130.3512,0,0,0,373.487,180.7714Z" style="fill:#0d263e"/></g></svg>