<?xml version="1.0" ?><svg viewBox="0 0 512 512" xmlns="http://www.w3.org/2000/svg"><g id="Female_mongolian_skin_03"><path d="M360.7865,353.4027l-.0942.0239a41.4194,41.4194,0,1,0-77.241,19.2989c21.2646,36.8313,73.3884,64.0284,119.5789,32.04C403.03,404.7655,358.55,391.8892,360.7865,353.4027Z" style="fill:#330f0f"/><path d="M304.8659,473.543H207.1345a11.2273,11.2273,0,0,1-10.7953-14.3116l18.14-63.4906a37.5,37.5,0,0,1,36.0569-27.1978h10.9278a37.5,37.5,0,0,1,36.0569,27.1978l18.14,63.4906A11.2272,11.2272,0,0,1,304.8659,473.543Z" style="fill:#27b286"/><path d="M377.797,228.13H367.338A112.4052,112.4052,0,0,0,256,130.7732h0A112.4057,112.4057,0,0,0,144.6625,228.13h-10.459a33.7509,33.7509,0,1,0,0,67.5018h10.459A112.4048,112.4048,0,0,0,256,392.9885h0A112.4043,112.4043,0,0,0,367.338,295.6322h10.459a33.7509,33.7509,0,1,0,0-67.5018Z" style="fill:#f8c497"/><path d="M255.997,358.7981a37.2428,37.2428,0,0,1-26.5136-10.9826A7.4992,7.4992,0,1,1,240.0888,337.21c8.4961,8.4961,23.313,8.5,31.8238-.0037a7.5018,7.5018,0,0,1,10.6054,10.6128A37.2964,37.2964,0,0,1,255.997,358.7981Z" style="fill:#f7725c"/><rect height="45" rx="15" style="fill:#ef9e72" width="30" x="241.0002" y="275.8604"/><path d="M380.4684,241.8049H366.97v40.1513h13.4985a20.2464,20.2464,0,0,0,0-40.1513Z" style="fill:#ef9e72"/><path d="M336.1746,244.94a7.4972,7.4972,0,0,0-10.6054,0l-2.3378,2.3383a20.6845,20.6845,0,1,0,10.605,10.6055l2.3382-2.3383A7.4973,7.4973,0,0,0,336.1746,244.94Z" style="fill:#521919"/><circle cx="319.5727" cy="258.4668" r="7.6845" style="fill:#ffefdc"/><path d="M197.0365,245.5264a20.5225,20.5225,0,0,0-8.2682,1.7505L186.431,244.94a7.4992,7.4992,0,0,0-10.6055,10.6055l2.3374,2.3364a20.6122,20.6122,0,1,0,18.8736-12.3559Z" style="fill:#521919"/><circle cx="201.6471" cy="258.4668" r="7.6845" style="fill:#ffefdc"/><path d="M131.5318,241.8049H145.03v40.1513H131.5318a20.2464,20.2464,0,0,1,0-40.1513Z" style="fill:#ef9e72"/><path d="M389.9845,213.2586a133.9847,133.9847,0,1,0-267.9693,0c0,118.006,44.957,179.729,44.957,179.729V227.9437c62.4792,0,89.0222-47.9938,89.0277-48.003.0055.0092,26.5484,48.003,89.0277,48.003V392.9876S389.9845,331.2646,389.9845,213.2586Z" style="fill:#521919"/></g></svg>