<?xml version="1.0" ?><svg viewBox="0 0 512 512" xmlns="http://www.w3.org/2000/svg"><g id="Male_malayan_skin_07"><path d="M390.19,334.5654a42.122,42.122,0,0,1-26.1058-31.2689L361,287.3407H151l-3.084,15.9558A42.122,42.122,0,0,1,121.81,334.5654l-16.93,6.5753S131.9641,399.533,256,399.533,407.12,341.1407,407.12,341.1407Z" style="fill:#0d253d"/><path d="M353.1009,464.5487V412.8422a60.7992,60.7992,0,0,0-60.7992-60.7992H219.6975a60.7987,60.7987,0,0,0-60.7986,60.7987v51.707a8.9943,8.9943,0,0,0,8.9943,8.9943H344.1066A8.9943,8.9943,0,0,0,353.1009,464.5487Z" style="fill:#8ca4bc"/><path d="M371.8268,219.837H361a105,105,0,0,0-210,.0018v-.0018H140.1732a33.7518,33.7518,0,1,0,0,67.5036H151V287.34a105,105,0,0,0,210,.0009h10.827a33.7518,33.7518,0,1,0,0-67.5036Z" style="fill:#d87761"/><path d="M269.0715,317.668h-93.89A46.8586,46.8586,0,0,0,256,350.0429a46.8586,46.8586,0,0,0,80.8186-32.3749Z" style="fill:#0d253d"/><rect height="68.3763" rx="22.7921" style="fill:#bf5e48" width="45.5842" x="233.2077" y="263.5237"/><path d="M374.4984,233.5127H361v40.1514h13.4985a20.2465,20.2465,0,0,0,0-40.1514Z" style="fill:#bf5e48"/><circle cx="314.9626" cy="250.5027" r="20.625" style="fill:#0d253d"/><circle cx="319.5733" cy="242.8182" r="7.6845" style="fill:#ffefdc"/><circle cx="197.0371" cy="250.5027" r="20.625" style="fill:#0d253d"/><circle cx="201.6478" cy="242.8182" r="7.6845" style="fill:#ffefdc"/><path d="M137.5015,233.5127H151v40.1514H137.5015a20.2465,20.2465,0,0,1,0-40.1514Z" style="fill:#bf5e48"/><path d="M361,219.8377a105,105,0,0,0-210,0c22.3892-84.0876,105-50.9125,105-50.9125S338.6105,135.75,361,219.8377Z" style="fill:#0d263e"/></g></svg>