<?xml version="1.0" ?><svg viewBox="0 0 512 512" xmlns="http://www.w3.org/2000/svg"><g id="Male_malayan_skin_03"><path d="M272.53,353.543H239.4691a44.9506,44.9506,0,0,0-11.22,1.4612V473.543h55.5V355.0042A44.9449,44.9449,0,0,0,272.53,353.543Z" style="fill:#f4e2ff"/><polygon points="278.762 441.067 256.037 463.194 233.238 440.394 251.312 353.543 261.137 353.543 278.762 441.067" style="fill:#8ca4bc"/><path d="M309.73,463.6992l7.4478-59.5825A44.977,44.977,0,0,0,283.75,355.0042V473.543h14.8316A11.237,11.237,0,0,0,309.73,463.6992Z" style="fill:#243f57"/><path d="M194.8216,404.1167l7.4478,59.5825a11.2363,11.2363,0,0,0,11.1484,9.8438h14.8316V355.0042A44.9767,44.9767,0,0,0,194.8216,404.1167Z" style="fill:#243f57"/><path d="M371.8266,219.8376H361v.0018a105,105,0,0,0-210,0v-.0018H140.173a33.7514,33.7514,0,1,0,0,67.5027H151v-.0009a105,105,0,1,0,210,0v.0009h10.8266a33.7514,33.7514,0,1,0,0-67.5027Z" style="fill:#d87761"/><path d="M256,358.15a37.243,37.243,0,0,1-26.5137-10.9826,7.4992,7.4992,0,0,1,10.6055-10.6055c8.4961,8.4961,23.32,8.4961,31.8164,0a7.4992,7.4992,0,1,1,10.6055,10.6055A37.243,37.243,0,0,1,256,358.15Z" style="fill:#8c1813"/><path d="M151,287.3394v41.5833a105,105,0,0,0,105,105h0a105,105,0,0,0,105-105V287.3394Zm118.5864,86.4533H243.9551c-14.7812,0-28.0288-11.0706-28.8-25.8307A27.297,27.297,0,0,1,242.4129,319.2h26.4579c13.0274,0,24.8579,8.8366,27.4365,21.6064A27.3266,27.3266,0,0,1,269.5862,373.7927Z" style="fill:#0d263e"/><rect height="68.3763" rx="22.7921" style="fill:#bf5e48" width="45.5842" x="233.2079" y="263.5237"/><path d="M374.4983,233.5127H361v40.1514h13.4985a20.2465,20.2465,0,0,0,0-40.1514Z" style="fill:#bf5e48"/><circle cx="314.9627" cy="250.5027" r="20.625" style="fill:#521919"/><circle cx="319.5734" cy="242.8182" r="7.6845" style="fill:#ffefdc"/><circle cx="197.0372" cy="250.5027" r="20.625" style="fill:#521919"/><circle cx="201.6479" cy="242.8182" r="7.6845" style="fill:#ffefdc"/><path d="M137.5014,233.5127H151v40.1514H137.5014a20.2465,20.2465,0,0,1,0-40.1514Z" style="fill:#bf5e48"/><path d="M392.0875,171.4883a88.8087,88.8087,0,0,1-14.85,48.825,32.7689,32.7689,0,0,0-5.4-.45h-10.875s-27.3-24.15-105-24.15c-77.6249,0-105,24.15-105,24.15h-10.8a31.4418,31.4418,0,0,0-5.4.45,88.8047,88.8047,0,0,1-14.85-48.825c0-59.3994,60.9-107.6258,136.05-107.6258C331.1876,63.8625,392.0875,112.0889,392.0875,171.4883Z" style="fill:#eb5e59"/></g></svg>