<?xml version="1.0" ?><svg viewBox="0 0 512 512" xmlns="http://www.w3.org/2000/svg" xmlns:xlink="http://www.w3.org/1999/xlink"><defs><linearGradient gradientUnits="userSpaceOnUse" id="linear-gradient" x1="256.0002" x2="256.0002" y1="263.5402" y2="331.9165"><stop offset="0.0131" stop-color="#f4a995"/><stop offset="1" stop-color="#ea9381"/></linearGradient></defs><g id="Male_caucasian_skin_04"><path d="M317.163,404.168l-7.4254,59.55a11.2645,11.2645,0,0,1-8.7748,9.5251,8.42,8.42,0,0,1-2.4.3H213.4379a9.31,9.31,0,0,1-2.4751-.3,11.0942,11.0942,0,0,1-8.7-9.5251l-7.4254-59.55a44.9345,44.9345,0,0,1,16.1252-40.426,45.6512,45.6512,0,0,1,19.05-9.2249,49.2072,49.2072,0,0,1,9.45-.9741h33.0752a49.3612,49.3612,0,0,1,9.5247.9741,45.116,45.116,0,0,1,35.1,49.6509Z" style="fill:#f4e2ff"/><path d="M300.9628,363.6669V473.543h-18.9V354.5171A44.9157,44.9157,0,0,1,300.9628,363.6669Z" style="fill:#521919"/><path d="M230.0126,354.5171V473.543h-19.05V363.742A45.6512,45.6512,0,0,1,230.0126,354.5171Z" style="fill:#521919"/><path d="M371.827,219.854H361.0005v.0018a104.9994,104.9994,0,0,0-105-105h0a104.9983,104.9983,0,0,0-105,104.9982H140.1734a33.7509,33.7509,0,1,0,0,67.5018h10.8271a105,105,0,0,0,105,105h0a105.0005,105.0005,0,0,0,105-105H371.827a33.7509,33.7509,0,1,0,0-67.5018Z" style="fill:#f8c4b0"/><path d="M256.002,307.1424a46.614,46.614,0,0,0-46.6143,46.6163,11.6537,11.6537,0,0,0,23.3073,0,11.6535,11.6535,0,0,0,23.307,0,11.6537,11.6537,0,0,0,23.3073,0,11.6535,11.6535,0,0,0,23.3069,0A46.6137,46.6137,0,0,0,256.002,307.1424Z" style="fill:#521919"/><path d="M374.4987,233.5288H361V273.68h13.4986a20.2465,20.2465,0,0,0,0-40.1514Z" style="fill:#ef9e8b"/><circle cx="314.963" cy="250.5188" r="20.625" style="fill:#521919"/><circle cx="319.5737" cy="242.8343" r="7.6845" style="fill:#ffefdc"/><circle cx="197.0375" cy="250.5188" r="20.625" style="fill:#521919"/><circle cx="201.6482" cy="242.8343" r="7.6845" style="fill:#ffefdc"/><path d="M137.5017,233.5288H151V273.68H137.5017a20.2465,20.2465,0,0,1,0-40.1514Z" style="fill:#ef9e8b"/><path d="M314.9631,201.77a48.7167,48.7167,0,0,0-41.24,22.8735H238.278a49.0111,49.0111,0,1,0,6.243,15H267.48A48.729,48.729,0,1,0,314.9631,201.77Zm-117.9255,82.5a33.75,33.75,0,1,1,33.75-33.75A33.787,33.787,0,0,1,197.0376,284.27Zm117.9255,0a33.75,33.75,0,1,1,33.75-33.75A33.7869,33.7869,0,0,1,314.9631,284.27Z" style="fill:#0d263e"/><rect height="68.3763" rx="22.7921" style="fill:url(#linear-gradient)" width="45.5842" x="233.2081" y="263.5402"/></g></svg>