<?xml version="1.0" ?><svg viewBox="0 0 512 512" xmlns="http://www.w3.org/2000/svg"><g id="Male_malayan_skin_02"><path d="M287.4868,352.0415H224.5127a36.0119,36.0119,0,0,0-36.0118,36.0118v74.272a11.2178,11.2178,0,0,0,11.2178,11.2177H312.2823A11.2178,11.2178,0,0,0,323.5,462.3253V388.0547A36.0133,36.0133,0,0,0,287.4868,352.0415Z" style="fill:#f4e2ff"/><path d="M371.8266,219.8357H361v.0037a105,105,0,0,0-210,0v-.0037H140.1734a33.7519,33.7519,0,1,0,0,67.5037H151v-.001a105,105,0,0,0,210,0v.001h10.8266a33.7519,33.7519,0,1,0,0-67.5037Z" style="fill:#d87761"/><path d="M256,358.15a37.234,37.234,0,0,1-26.5137-10.9863,7.4992,7.4992,0,1,1,10.6055-10.6055c8.4961,8.5034,23.32,8.5034,31.8164,0a7.4992,7.4992,0,1,1,10.6055,10.6055A37.234,37.234,0,0,1,256,358.15Z" style="fill:#8c1813"/><rect height="68.3763" rx="22.7921" style="fill:#bf5e48" width="45.5842" x="233.208" y="263.5225"/><path d="M374.4984,233.5116H361V273.663h13.4985a20.2465,20.2465,0,0,0,0-40.1514Z" style="fill:#bf5e48"/><circle cx="314.9628" cy="250.5016" r="20.625" style="fill:#0d253d"/><circle cx="319.5735" cy="242.8171" r="7.6845" style="fill:#ffefdc"/><circle cx="197.0373" cy="250.5016" r="20.625" style="fill:#0d253d"/><circle cx="201.648" cy="242.8171" r="7.6845" style="fill:#ffefdc"/><path d="M137.5015,233.5116H151V273.663H137.5015a20.2465,20.2465,0,0,1,0-40.1514Z" style="fill:#bf5e48"/><path d="M361,219.8372a38.5449,38.5449,0,0,1-38.5437-38.5456H353.6A104.559,104.559,0,0,1,361,219.8372Z" style="fill:#8ca4bc"/><path d="M151,219.8372a38.5449,38.5449,0,0,0,38.5437-38.5456H158.4A104.559,104.559,0,0,0,151,219.8372Z" style="fill:#8ca4bc"/><path d="M305.0021,96.5073H206.9984a40.1773,40.1773,0,0,0-39.563,33.1781l-9.13,51.6073h195.39l-9.13-51.6073A40.1773,40.1773,0,0,0,305.0021,96.5073Z" style="fill:#0d263e"/></g></svg>