<?xml version="1.0" ?><svg viewBox="0 0 512 512" xmlns="http://www.w3.org/2000/svg"><g id="Male_mongolian_skin_01"><path d="M298.5816,473.543H213.418a11.2352,11.2352,0,0,1-11.1484-9.8416l-7.4478-59.5825a44.995,44.995,0,0,1,44.6475-50.5759H272.53a44.995,44.995,0,0,1,44.6475,50.5759L309.73,463.7014A11.2351,11.2351,0,0,1,298.5816,473.543Z" style="fill:#eb5e59"/><path d="M371.8266,219.8369H361v.0019a105,105,0,0,0-105-105h0a105,105,0,0,0-105,105v-.0019H140.173a33.7519,33.7519,0,1,0,0,67.5037H151v-.0018a104.9989,104.9989,0,0,0,105,105h0a104.999,104.999,0,0,0,105-105v.0018h10.8266a33.7519,33.7519,0,1,0,0-67.5037Z" style="fill:#f8c497"/><path d="M256.0032,358.1493a37.26,37.26,0,0,1-26.521-10.9826,7.4992,7.4992,0,0,1,10.6055-10.6055c8.4961,8.4888,23.3276,8.5034,31.8237,0a7.4992,7.4992,0,0,1,10.6055,10.6055A37.243,37.243,0,0,1,256.0032,358.1493Z" style="fill:#f7725c"/><rect height="60.0155" rx="16.6061" style="fill:#ef9e72" width="33.2122" x="239.3938" y="262.6054"/><path d="M374.4984,233.5127H361v40.1514h13.4986a20.2465,20.2465,0,0,0,0-40.1514Z" style="fill:#ef9e72"/><path d="M297.3631,275.6127a7.5,7.5,0,0,1-1.0913-14.9194l35.1855-5.2185a7.5,7.5,0,1,1,2.1973,14.8388l-35.1856,5.2185A7.5541,7.5541,0,0,1,297.3631,275.6127Z" style="fill:#0d263e"/><path d="M214.6433,275.6127a7.5541,7.5541,0,0,1-1.1059-.0806l-35.1929-5.2185a7.5,7.5,0,1,1,2.1973-14.8388l35.1928,5.2185a7.5,7.5,0,0,1-1.0913,14.9194Z" style="fill:#0d263e"/><path d="M137.5014,233.5127H151v40.1514H137.5014a20.2465,20.2465,0,0,1,0-40.1514Z" style="fill:#ef9e72"/><path d="M361,219.8384h10.8266a33.3821,33.3821,0,0,1,16.6676,4.5758l6.6609-38.2526a45.7583,45.7583,0,0,0-45.0787-53.61l-24.1695-20.9839c-23.9712-20.8117-55.69-30.8276-87.149-26.58-30.36,4.1016-66.6023,14.6705-90.1676,40.2247-61.8118,67.02-4.2086,115.21-4.2086,115.21s13.5543-34.6966,41.64-51.93c0,0,28.4043,30.3186,93.34,33.7408l-5.2427-22.8186s37.288,14.17,86.8808,20.4236Z" style="fill:#0d263e"/></g></svg>