<?xml version="1.0" ?><svg viewBox="0 0 512 512" xmlns="http://www.w3.org/2000/svg"><g id="Male_malayan_skin_04"><path d="M317.1629,404.168l-7.4254,59.55a11.1994,11.1994,0,0,1-11.1749,9.8254H213.4377a11.1994,11.1994,0,0,1-11.1749-9.8254l-7.4254-59.55a45.0062,45.0062,0,0,1,44.6251-50.625h33.0753A45.0062,45.0062,0,0,1,317.1629,404.168Z" style="fill:#3285e2"/><polygon points="278.762 441.067 256.038 463.194 233.238 440.394 251.313 353.543 261.138 353.543 278.762 441.067" style="fill:#243f57"/><path d="M371.8266,219.8376H361v.0018a105,105,0,0,0-210,0v-.0018H140.1734a33.7514,33.7514,0,1,0,0,67.5027H151v-.0009a105,105,0,1,0,210,0v.0009h10.8266a33.7514,33.7514,0,1,0,0-67.5027Z" style="fill:#d87761"/><path d="M256.0032,358.15a37.26,37.26,0,0,1-26.521-10.9826,7.4992,7.4992,0,0,1,10.6055-10.6055c8.4887,8.4924,23.32,8.5,31.8237,0a7.4992,7.4992,0,0,1,10.6055,10.6055A37.243,37.243,0,0,1,256.0032,358.15Z" style="fill:#8c1813"/><rect height="68.3763" rx="22.7921" style="fill:#bf5e48" width="45.5842" x="233.208" y="263.5237"/><path d="M374.4985,233.5127H361v40.1514h13.4986a20.2465,20.2465,0,0,0,0-40.1514Z" style="fill:#bf5e48"/><circle cx="314.9628" cy="250.5027" r="20.625" style="fill:#521919"/><circle cx="319.5735" cy="242.8182" r="7.6845" style="fill:#ffefdc"/><circle cx="197.0373" cy="250.5027" r="20.625" style="fill:#521919"/><circle cx="201.648" cy="242.8182" r="7.6845" style="fill:#ffefdc"/><path d="M137.5015,233.5127H151v40.1514H137.5015a20.2465,20.2465,0,0,1,0-40.1514Z" style="fill:#bf5e48"/></g></svg>