<?xml version="1.0" ?><svg viewBox="0 0 512 512" xmlns="http://www.w3.org/2000/svg"><g id="Male_aethiopian_skin_02"><path d="M417.8908,198.3233a30.2431,30.2431,0,0,0-16.0236-48.75,30.207,30.207,0,0,0-30.3053-41.3394,30.2952,30.2952,0,0,0-41.5682-30.08,30.255,30.255,0,0,0-48.9011-15.6471,30.202,30.202,0,0,0-51.2407.1513,30.1841,30.1841,0,0,0-48.75,15.9461,30.293,30.293,0,0,0-41.417,30.3089,30.2185,30.2185,0,0,0-30.08,41.4907,30.3148,30.3148,0,0,0-15.721,48.9009,30.2434,30.2434,0,0,0,.0775,51.2406,30.2628,30.2628,0,0,0,15.9461,48.75A30.25,30.25,0,0,0,140.1391,340.79,30.2186,30.2186,0,0,0,181.63,370.87a30.2452,30.2452,0,0,0,48.8272,15.7948,30.227,30.227,0,0,0,51.3146-.0775,30.2,30.2,0,0,0,48.75-15.8686,30.244,30.244,0,0,0,41.4945-30.1576A30.2206,30.2206,0,0,0,402.17,299.07a30.28,30.28,0,0,0,15.8723-48.8234A30.2052,30.2052,0,0,0,432.25,224.6245v-.679A30.4,30.4,0,0,0,417.8908,198.3233Z" style="fill:#0d263e"/><path d="M298.5818,473.543H213.4182a11.2351,11.2351,0,0,1-11.1484-9.8416l-7.4478-59.5825A44.995,44.995,0,0,1,239.47,353.543h33.061a44.995,44.995,0,0,1,44.6475,50.5759L309.73,463.7014A11.2351,11.2351,0,0,1,298.5818,473.543Z" style="fill:#27b286"/><path d="M371.8267,219.8368H361v.0037a104.999,104.999,0,0,0-105-105h0A104.9989,104.9989,0,0,0,151,219.8405v-.0037H140.1735a33.7519,33.7519,0,1,0,0,67.5037H151V287.34A105,105,0,0,0,256,392.34h0a105,105,0,0,0,105-105v.0009h10.8266a33.7519,33.7519,0,1,0,0-67.5037Z" style="fill:#a5442e"/><path d="M255.9992,358.151a37.234,37.234,0,0,1-26.5137-10.9863,7.4992,7.4992,0,1,1,10.6055-10.6055c8.4961,8.5034,23.32,8.5034,31.8164,0a7.4992,7.4992,0,1,1,10.6055,10.6055A37.234,37.234,0,0,1,255.9992,358.151Z" style="fill:#8c1813"/><rect height="68.3763" rx="22.7921" style="fill:#8c2b15" width="45.5842" x="233.2079" y="263.5237"/><path d="M374.4985,233.5127H361v40.1514h13.4986a20.2465,20.2465,0,0,0,0-40.1514Z" style="fill:#8c2b15"/><circle cx="314.9627" cy="250.5027" r="20.625" style="fill:#0d253d"/><circle cx="319.5734" cy="242.8182" r="7.6845" style="fill:#ffefdc"/><circle cx="197.0371" cy="250.5027" r="20.625" style="fill:#0d253d"/><circle cx="201.6479" cy="242.8182" r="7.6845" style="fill:#ffefdc"/><path d="M137.5015,233.5127H151v40.1514H137.5015a20.2465,20.2465,0,0,1,0-40.1514Z" style="fill:#8c2b15"/><path d="M233.68,216.0589A29.0972,29.0972,0,0,1,209.478,222.56h0a28.7745,28.7745,0,0,1-20.59-15.6055h0a28.8743,28.8743,0,0,1-26.7311.1446h0a28.72,28.72,0,0,1-15.6019-27.1613h0a28.9778,28.9778,0,0,1-25.5035-28.3925h0a28.8116,28.8116,0,0,1,25.07-28.971h0a28.89,28.89,0,0,1,15.4608-27.4506h0a28.8177,28.8177,0,0,1,26.8016,0h0a28.8522,28.8522,0,0,1,20.59-15.676h0a28.841,28.841,0,0,1,24.1983,6.5011h0a28.6549,28.6549,0,0,1,22.3958-10.7622h0A28.8413,28.8413,0,0,1,278.034,85.8783h0a28.7359,28.7359,0,0,1,24.1313-6.5752h0a28.9753,28.9753,0,0,1,20.66,15.5314h0a28.8688,28.8688,0,0,1,26.731-.1447h0a28.9261,28.9261,0,0,1,15.676,27.0909h0a28.83,28.83,0,0,1,25.6446,28.1032h0v.5044h0c0,.1446.0741.3633.0741.5785h0a28.901,28.901,0,0,1-25.3589,28.6817h0a28.74,28.74,0,0,1-15.5313,27.306h0a28.6733,28.6733,0,0,1-26.7311-.0705h0a29.1787,29.1787,0,0,1-20.5862,15.676h0a28.8826,28.8826,0,0,1-24.2018-6.5752h0a28.6958,28.6958,0,0,1-22.47,10.7658h0A28.8149,28.8149,0,0,1,233.68,216.0589Z" style="fill:#0d263e"/></g></svg>