<?xml version="1.0" ?><svg viewBox="0 0 512 512" xmlns="http://www.w3.org/2000/svg"><g id="Female_mongolian_skin_06"><path d="M304.838,473.543H207.1066a11.2273,11.2273,0,0,1-10.7953-14.3116l18.14-63.4906a37.5,37.5,0,0,1,36.0569-27.1978h10.9278a37.5,37.5,0,0,1,36.0569,27.1978l18.14,63.4906A11.2272,11.2272,0,0,1,304.838,473.543Z" style="fill:#f4e2ff"/><path d="M377.7688,228.13H367.31a112.3416,112.3416,0,0,0-222.6754,0H134.2312a33.7509,33.7509,0,1,0,0,67.5018h10.4032a112.3415,112.3415,0,0,0,222.6754,0h10.459a33.7509,33.7509,0,1,0,0-67.5018Z" style="fill:#f8c497"/><path d="M255.9744,358.8a37.2846,37.2846,0,0,1-26.521-10.9827,7.5018,7.5018,0,0,1,10.6055-10.6127c8.518,8.5144,23.3349,8.5034,31.8237.0036a7.4992,7.4992,0,1,1,10.6055,10.6055A37.234,37.234,0,0,1,255.9744,358.8Z" style="fill:#f7725c"/><rect height="45" rx="15" style="fill:#ef9e72" width="30" x="240.9723" y="275.8604"/><path d="M380.4405,241.8049H366.942v40.1513h13.4985a20.2464,20.2464,0,0,0,0-40.1513Z" style="fill:#ef9e72"/><path d="M297.3342,271.0225a7.5,7.5,0,0,1-1.0913-14.9194l35.1856-5.2185a7.5,7.5,0,1,1,2.1973,14.8388L298.44,270.9419A7.5544,7.5544,0,0,1,297.3342,271.0225Z" style="fill:#0d263e"/><path d="M214.6145,271.0225a7.5541,7.5541,0,0,1-1.1059-.0806l-35.1929-5.2185a7.5,7.5,0,1,1,2.1973-14.8388l35.1928,5.2185a7.5,7.5,0,0,1-1.0913,14.9194Z" style="fill:#0d263e"/><path d="M131.56,241.8049H145.058v40.1513H131.56a20.2464,20.2464,0,0,1,0-40.1513Z" style="fill:#ef9e72"/><circle cx="343.642" cy="161.9467" r="22.117" style="fill:#ffc139"/><path d="M435.0185,198.6533l-.0062-.0008a51.2955,51.2955,0,1,0-100.4-6.4916c7.4931,56.3217,65.6272,118.8258,141.7875,107.55C476.4,299.7109,421.9423,248.6512,435.0185,198.6533Z" style="fill:#0d253d"/><circle cx="168.358" cy="161.9467" r="22.117" style="fill:#ffc139"/><path d="M76.9815,198.6533l.0062-.0008a51.2955,51.2955,0,1,1,100.4-6.4916C169.8943,248.4826,111.76,310.9867,35.6,299.7109,35.6,299.7109,90.0577,248.6512,76.9815,198.6533Z" style="fill:#0d253d"/><path d="M367.228,227.6a112.4007,112.4007,0,0,0-111.2567-96.8262h-.0005A112.4015,112.4015,0,0,0,144.7164,227.587c1.7633-4.4843,15.7429-37.2236,50.8983-44.5295a53.81,53.81,0,0,1,29.6882,2.016,89.76,89.76,0,0,0,61.3335,0,53.8119,53.8119,0,0,1,29.6887-2.016C351.5047,190.3689,365.4807,223.15,367.228,227.6Z" style="fill:#0d253d"/></g></svg>