<?xml version="1.0" ?><svg viewBox="0 0 512 512" xmlns="http://www.w3.org/2000/svg"><g id="Male_mongolian_skin_07"><path d="M353.1011,464.5487V412.8422a60.7992,60.7992,0,0,0-60.7992-60.7992H219.6977a60.7987,60.7987,0,0,0-60.7986,60.7987v51.707a8.9943,8.9943,0,0,0,8.9943,8.9943H344.1068A8.9943,8.9943,0,0,0,353.1011,464.5487Z" style="fill:#f4e2ff"/><path d="M371.827,219.837H361a105,105,0,0,0-210,.0018v-.0018H140.1734a33.7518,33.7518,0,1,0,0,67.5036H151V287.34a105,105,0,0,0,210,.0009h10.827a33.7518,33.7518,0,1,0,0-67.5036Z" style="fill:#f8c497"/><path d="M255.9968,358.1512a37.234,37.234,0,0,1-26.5137-10.9863,7.4992,7.4992,0,1,1,10.6055-10.6055c8.4961,8.5034,23.3276,8.5034,31.8237,0a7.4992,7.4992,0,1,1,10.6055,10.6055A37.2382,37.2382,0,0,1,255.9968,358.1512Z" style="fill:#f7725c"/><rect height="60.0155" rx="16.6061" style="fill:#ef9e72" width="33.2122" x="239.3941" y="262.6054"/><path d="M374.4987,233.5127H361v40.1514h13.4986a20.2465,20.2465,0,0,0,0-40.1514Z" style="fill:#ef9e72"/><circle cx="314.9629" cy="250.5027" r="20.625" style="fill:#0d253d"/><circle cx="319.5736" cy="242.8182" r="7.6845" style="fill:#ffefdc"/><circle cx="197.0373" cy="250.5027" r="20.625" style="fill:#0d253d"/><circle cx="201.648" cy="242.8182" r="7.6845" style="fill:#ffefdc"/><path d="M137.5017,233.5127H151v40.1514H137.5017a20.2465,20.2465,0,0,1,0-40.1514Z" style="fill:#ef9e72"/><path d="M327.1926,142.5958c.15.15.2248.3.3749.45a63.2989,63.2989,0,0,1,15.3749,41.25v17.4a18.1811,18.1811,0,0,0,18.0748,18.1494h10.8751a33.07,33.07,0,0,1,10.275,1.5766,26.05,26.05,0,0,0,1.2753-8.0255c0-28.65-14.0249-46.35-28.125-56.8506A85.7224,85.7224,0,0,0,327.1926,142.5958Z" style="fill:#8ca4bc"/><path d="M184.8077,142.5958c-.15.15-.2247.3-.3749.45a63.3,63.3,0,0,0-15.3749,41.25v17.4a18.1809,18.1809,0,0,1-18.0748,18.1494H140.108a33.0693,33.0693,0,0,0-10.2749,1.5766,26.0472,26.0472,0,0,1-1.2754-8.0255c0-28.65,14.025-46.35,28.125-56.8506A85.7234,85.7234,0,0,1,184.8077,142.5958Z" style="fill:#8ca4bc"/></g></svg>