<svg width="154" height="57" viewBox="0 0 154 57" fill="none" xmlns="http://www.w3.org/2000/svg">
<path d="M15.1029 55.6398H1.17444V1H15.1029" stroke="#626C83" stroke-width="2" stroke-miterlimit="10"/>
<path d="M137.793 1H152.826V55.6398H137.793" stroke="#626C83" stroke-width="2" stroke-miterlimit="10"/>
<path d="M16.9584 27.5912L19.1076 21.1478H22.2433L18.4206 30.2877V35.486H15.5022V30.2877L11.6677 21.1478H14.8034L16.9584 27.5912Z" fill="#626C83"/>
<path d="M32.3021 29.6092C32.3021 31.5327 31.85 33.0256 30.9457 34.0876C30.0414 35.1497 28.7848 35.6808 27.1758 35.6808C25.5669 35.6808 24.3161 35.1556 23.4001 34.0994C22.4841 33.0433 22.0202 31.5681 22.0084 29.6741V27.2195C22.0084 25.2487 22.4606 23.7087 23.3707 22.6053C24.2809 21.496 25.5375 20.9473 27.1523 20.9473C28.7671 20.9473 29.9885 21.4901 30.9046 22.5758C31.8206 23.6615 32.2845 25.1897 32.2962 27.1487V29.6033L32.3021 29.6092ZM29.4131 27.2077C29.4131 25.9155 29.231 24.9537 28.867 24.3223C28.5029 23.691 27.9333 23.3783 27.1641 23.3783C26.3948 23.3783 25.837 23.6792 25.4671 24.2869C25.103 24.8947 24.9092 25.8211 24.8975 27.0602V29.6092C24.8975 30.8601 25.0854 31.7865 25.4553 32.3824C25.8252 32.9784 26.4007 33.2734 27.1817 33.2734C27.9627 33.2734 28.4911 32.9843 28.8552 32.4001C29.2193 31.8219 29.4072 30.9191 29.4131 29.6977V27.2077Z" fill="#626C83"/>
<path d="M42.6486 21.1479V31.0784C42.6368 32.5712 42.2258 33.71 41.4213 34.5007C40.6168 35.2913 39.4659 35.6867 37.9627 35.6867C36.4594 35.6867 35.2674 35.2854 34.4571 34.483C33.6526 33.6805 33.2474 32.524 33.2474 31.0076V21.1479H36.1482V31.0194C36.1482 31.8336 36.2774 32.4119 36.5416 32.76C36.8 33.1082 37.2757 33.2793 37.9627 33.2793C38.6497 33.2793 39.1195 33.1082 39.372 32.76C39.6245 32.4178 39.7595 31.8513 39.7654 31.0607V21.142H42.6486V21.1479Z" fill="#626C83"/>
<path d="M48.1565 30.2524H46.7237V35.492H43.8406V21.1538H48.4384C49.8829 21.1538 50.9986 21.5314 51.7854 22.2808C52.5723 23.0302 52.9657 24.0982 52.9657 25.4848C52.9657 27.3906 52.2787 28.7241 50.8988 29.4853L53.4002 35.3563V35.492H50.3057L48.1565 30.2524ZM46.7237 27.8391H48.362C48.9375 27.8391 49.3662 27.6443 49.6539 27.2608C49.9416 26.8773 50.0825 26.3639 50.0825 25.7208C50.0825 24.2811 49.5247 23.5612 48.409 23.5612H46.7237V27.8332V27.8391Z" fill="#626C83"/>
<path d="M60.4468 33.0845H65.5026V35.486H57.5636V21.1478H60.4468V33.0845Z" fill="#4D72FA"/>
<path d="M75.5849 29.6092C75.5849 31.5327 75.1328 33.0256 74.2285 34.0876C73.3242 35.1497 72.0676 35.6808 70.4586 35.6808C68.8497 35.6808 67.599 35.1556 66.6829 34.0994C65.7669 33.0433 65.303 31.5681 65.2913 29.6741V27.2195C65.2913 25.2487 65.7434 23.7087 66.6536 22.6053C67.5637 21.496 68.8203 20.9473 70.4352 20.9473C72.05 20.9473 73.2714 21.4901 74.1874 22.5758C75.1034 23.6615 75.5673 25.1897 75.5791 27.1487V29.6033L75.5849 29.6092ZM72.6959 27.2077C72.6959 25.9155 72.5139 24.9537 72.1498 24.3223C71.7857 23.691 71.2161 23.3783 70.4469 23.3783C69.6777 23.3783 69.1198 23.6792 68.7499 24.2869C68.3858 24.8947 68.192 25.8211 68.1803 27.0602V29.6092C68.1803 30.8601 68.3682 31.7865 68.7381 32.3824C69.1081 32.9784 69.6835 33.2734 70.4645 33.2734C71.2455 33.2734 71.774 32.9843 72.1381 32.4001C72.5021 31.8219 72.69 30.9191 72.6959 29.6977V27.2077Z" fill="#4D72FA"/>
<path d="M86.3542 33.8634C85.7963 34.4652 85.1152 34.9196 84.3107 35.2264C83.5062 35.5332 82.6195 35.6866 81.6565 35.6866C80.0182 35.6866 78.744 35.1733 77.8338 34.1525C76.9237 33.1317 76.4598 31.6448 76.4304 29.6976V27.1191C76.4304 25.1425 76.8591 23.6201 77.7164 22.5522C78.5737 21.4842 79.8303 20.9531 81.4745 20.9531C83.0247 20.9531 84.1932 21.3367 84.9801 22.1037C85.767 22.8708 86.225 24.0745 86.3483 25.7207H83.5473C83.471 24.8061 83.2772 24.1866 82.9777 23.8562C82.6783 23.5257 82.2085 23.3605 81.5685 23.3605C80.7933 23.3605 80.2238 23.6437 79.8714 24.2161C79.5191 24.7884 79.3371 25.6971 79.3195 26.9421V29.5442C79.3195 30.8482 79.5132 31.8041 79.9008 32.3942C80.2883 32.9901 80.9284 33.2851 81.8151 33.2851C82.3847 33.2851 82.8427 33.173 83.195 32.9429L83.4475 32.7659V30.1343H81.4275V27.9452H86.3365V33.8634H86.3542Z" fill="#4D72FA"/>
<path d="M97.4347 29.6092C97.4347 31.5327 96.9825 33.0256 96.0782 34.0876C95.1739 35.1497 93.9173 35.6808 92.3084 35.6808C90.6994 35.6808 89.4487 35.1556 88.5327 34.0994C87.6166 33.0433 87.1527 31.5681 87.141 29.6741V27.2195C87.141 25.2487 87.5931 23.7087 88.5033 22.6053C89.4135 21.496 90.6701 20.9473 92.2849 20.9473C93.8997 20.9473 95.1211 21.4901 96.0371 22.5758C96.9532 23.6615 97.4171 25.1897 97.4288 27.1487V29.6033L97.4347 29.6092ZM94.5456 27.2077C94.5456 25.9155 94.3636 24.9537 93.9995 24.3223C93.6355 23.691 93.0659 23.3783 92.2966 23.3783C91.5274 23.3783 90.9696 23.6792 90.5996 24.2869C90.2356 24.8947 90.0418 25.8211 90.03 27.0602V29.6092C90.03 30.8601 90.2179 31.7865 90.5879 32.3824C90.9578 32.9784 91.5333 33.2734 92.3143 33.2734C93.0952 33.2734 93.6237 32.9843 93.9878 32.4001C94.3519 31.8219 94.5398 30.9191 94.5456 29.6977V27.2077Z" fill="#4D72FA"/>
<path d="M112.132 35.492H109.261V29.3555H105.01V35.492H102.126V21.1538H105.01V26.954H109.261V21.1538H112.132V35.492Z" fill="#626C83"/>
<path d="M120.811 29.2847H116.319V33.0846H121.633V35.4861H113.442V21.1479H121.616V23.5612H116.325V26.9481H120.817V29.2847H120.811Z" fill="#626C83"/>
<path d="M126.613 30.2524H125.18V35.492H122.297V21.1538H126.895C128.339 21.1538 129.455 21.5314 130.242 22.2808C131.029 23.0302 131.422 24.0982 131.422 25.4848C131.422 27.3906 130.735 28.7241 129.355 29.4853L131.857 35.3563V35.492H128.762L126.613 30.2524ZM125.18 27.8391H126.818C127.394 27.8391 127.822 27.6443 128.11 27.2608C128.398 26.8773 128.539 26.3639 128.539 25.7208C128.539 24.2811 127.981 23.5612 126.865 23.5612H125.18V27.8332V27.8391Z" fill="#626C83"/>
<path d="M139.772 29.2847H135.28V33.0846H140.594V35.4861H132.403V21.1479H140.577V23.5612H135.286V26.9481H139.778V29.2847H139.772Z" fill="#626C83"/>
</svg>
