<svg xmlns="http://www.w3.org/2000/svg" width="32" height="32" viewBox="0 0 24 24"><path fill="#1677ff" fill-rule="evenodd" d="M4.172 3.172C3 4.343 3 6.229 3 10v4c0 3.771 0 5.657 1.172 6.828C5.343 22 7.229 22 11 22h2c3.771 0 5.657 0 6.828-1.172C21 19.657 21 17.771 21 14v-4c0-3.771 0-5.657-1.172-6.828C18.657 2 16.771 2 13 2h-2C7.229 2 5.343 2 4.172 3.172ZM7.25 8A.75.75 0 0 1 8 7.25h8a.75.75 0 0 1 0 1.5H8A.75.75 0 0 1 7.25 8Zm0 4a.75.75 0 0 1 .75-.75h8a.75.75 0 0 1 0 1.5H8a.75.75 0 0 1-.75-.75ZM8 15.25a.75.75 0 0 0 0 1.5h5a.75.75 0 0 0 0-1.5H8Z" clip-rule="evenodd"/></svg>