<?xml version="1.0" ?><svg viewBox="0 0 512 512" xmlns="http://www.w3.org/2000/svg"><g id="Female_mongolian_skin_01"><rect height="175.2136" style="fill:#330f0f" width="225" x="143.5" y="199.2944"/><path d="M304.8655,473.543H207.1342a11.2272,11.2272,0,0,1-10.7953-14.3116l18.14-63.4906a37.5,37.5,0,0,1,36.057-27.1978h10.9277a37.5,37.5,0,0,1,36.0569,27.1978l18.14,63.4906A11.2272,11.2272,0,0,1,304.8655,473.543Z" style="fill:#243f57"/><rect height="262.2149" rx="112.4697" style="fill:#f8c497" width="224.9396" x="143.5301" y="130.7736"/><path d="M255.9962,358.7975a37.2425,37.2425,0,0,1-26.5136-10.9827,7.4992,7.4992,0,0,1,10.6054-10.6054c8.5035,8.5,23.335,8.4924,31.8238,0a7.4992,7.4992,0,0,1,10.6054,10.6054A37.2593,37.2593,0,0,1,255.9962,358.7975Z" style="fill:#f7725c"/><rect height="45" rx="15" style="fill:#ef9e72" width="30" x="240.9999" y="275.8604"/><path d="M297.3634,271.0241a7.5,7.5,0,0,1-1.0913-14.9195l35.1856-5.2185a7.5,7.5,0,0,1,2.1972,14.8389l-35.1855,5.2185A7.57,7.57,0,0,1,297.3634,271.0241Z" style="fill:#0d263e"/><path d="M214.6364,271.0241a7.57,7.57,0,0,1-1.106-.0806l-35.1855-5.2185a7.5,7.5,0,0,1,2.1972-14.8389l35.1856,5.2185a7.5,7.5,0,0,1-1.0913,14.9195Z" style="fill:#0d263e"/><path d="M251.0754,102.0416C177.9211,104.6435,121,166.9891,121,240.1891V364.9938a24.5144,24.5144,0,0,0,24.5151,24.5142h7.4487a11.4788,11.4788,0,0,0,11.478-11.4789V244.45a14.996,14.996,0,0,1,14.9954-14.9963h62.96L256,199.2944l13.602,30.1593h62.96A14.996,14.996,0,0,1,347.5582,244.45V378.0273a11.48,11.48,0,0,0,11.48,11.4807h7.4469A24.5144,24.5144,0,0,0,391,364.9938v-128.04A135.0028,135.0028,0,0,0,251.0754,102.0416Z" style="fill:#521919"/></g></svg>