<?xml version="1.0" ?><svg viewBox="0 0 512 512" xmlns="http://www.w3.org/2000/svg"><g id="Female_malayan_skin_02"><path d="M336.0854,224.2449l-.01-.0027A86.7093,86.7093,0,1,0,169.29,190.983c0,96.0446,83.4773,213.7376,213.6072,211.8217C382.8972,402.8047,303.0287,305.1078,336.0854,224.2449Z" style="fill:#071b2b"/><path d="M304.8656,473.543H207.1343a11.2272,11.2272,0,0,1-10.7953-14.3116l18.14-63.4906a37.5,37.5,0,0,1,36.0569-27.1978h10.9278a37.5,37.5,0,0,1,36.0569,27.1978l18.14,63.4906A11.2272,11.2272,0,0,1,304.8656,473.543Z" style="fill:#ffc139"/><path d="M377.7967,228.13h-10.459a112.3418,112.3418,0,0,0-222.6754,0h-10.459a33.7514,33.7514,0,1,0,0,67.5027h10.459a112.3416,112.3416,0,0,0,222.6754,0h10.459a33.7514,33.7514,0,1,0,0-67.5027Z" style="fill:#d87761"/><path d="M256.0014,358.7992a37.2846,37.2846,0,0,1-26.521-10.9827,7.5018,7.5018,0,0,1,10.6054-10.6128c8.5108,8.5181,23.3277,8.5,31.8238.0037a7.4992,7.4992,0,1,1,10.6054,10.6055A37.2338,37.2338,0,0,1,256.0014,358.7992Z" style="fill:#8c1813"/><rect height="45" rx="15" style="fill:#bf5e48" width="30" x="241.0001" y="275.8604"/><path d="M380.4683,241.8049H366.97v40.1513h13.4985a20.2464,20.2464,0,0,0,0-40.1513Z" style="fill:#bf5e48"/><path d="M336.1745,244.94a7.4972,7.4972,0,0,0-10.6054,0l-2.3378,2.3383a20.6845,20.6845,0,1,0,10.605,10.6055l2.3382-2.3383A7.4973,7.4973,0,0,0,336.1745,244.94Z" style="fill:#0d253d"/><circle cx="319.5726" cy="258.4668" r="7.6845" style="fill:#ffefdc"/><path d="M197.0363,245.5264a20.5224,20.5224,0,0,0-8.2681,1.7505l-2.3373-2.3365a7.4992,7.4992,0,0,0-10.6055,10.6055l2.3373,2.3364a20.6122,20.6122,0,1,0,18.8736-12.3559Z" style="fill:#0d253d"/><circle cx="201.647" cy="258.4668" r="7.6845" style="fill:#ffefdc"/><path d="M131.5316,241.8049H145.03v40.1513H131.5316a20.2465,20.2465,0,0,1,0-40.1513Z" style="fill:#bf5e48"/><path d="M367.2558,227.5993a112.4007,112.4007,0,0,0-111.2567-96.8262h0a112.4014,112.4014,0,0,0-111.2544,96.8133c1.7633-4.4842,15.7429-37.2235,50.8983-44.5294a53.81,53.81,0,0,1,29.6882,2.016,89.7611,89.7611,0,0,0,61.3335,0,53.8119,53.8119,0,0,1,29.6887-2.016C351.5325,190.3684,365.5085,223.15,367.2558,227.5993Z" style="fill:#0d253d"/><path d="M295.1684,182.7548s6.1019-26.5015,36.583-29.4094c31.5692-3.01,66.7426,20.493,61.7055,73.7793-3.8734,40.9819-26.91,43.672-22.9506,79.6163,3.96,35.9464,5.7668,60.9716-32.0471,82.0844,0,0,22.0327-33.5947,11.203-62.0735-10.8292-28.4767,7.2868-61.6167-4.8785-93.2742C332.6185,201.8224,310.7629,181.7354,295.1684,182.7548Z" style="fill:#162f44"/><path d="M209.3315,181.9032s-5.5472-23.8983-33.2572-26.5419c-28.6993-2.7359-60.6751,18.63-56.0959,67.0721,3.5212,37.2562,24.4637,39.7018,20.8641,72.3784-3.6,32.6786-5.2425,55.4288,29.1337,74.6222,0,0-20.03-30.5406-10.1845-56.4305,9.8447-25.8879-6.6243-56.0151,4.435-84.7946C175.286,199.4313,195.1547,180.9765,209.3315,181.9032Z" style="fill:#162f44"/></g></svg>