<?xml version="1.0" ?><svg viewBox="0 0 512 512" xmlns="http://www.w3.org/2000/svg"><g id="Male_caucasian_skin_02"><path d="M298.5818,473.543H213.4182a11.2352,11.2352,0,0,1-11.1484-9.8416l-7.4478-59.5825A44.995,44.995,0,0,1,239.47,353.543h33.061a44.995,44.995,0,0,1,44.6475,50.5759L309.73,463.7014A11.2351,11.2351,0,0,1,298.5818,473.543Z" style="fill:#243f57"/><path d="M371.8266,219.8369H361v.0019a105,105,0,0,0-210,0v-.0019H140.1734a33.7519,33.7519,0,1,0,0,67.5037H151v-.0018a105,105,0,0,0,210,0v.0018h10.8266a33.7519,33.7519,0,1,0,0-67.5037Z" style="fill:#f8c4b0"/><path d="M256.0032,358.1493a37.26,37.26,0,0,1-26.521-10.9826,7.4992,7.4992,0,0,1,10.6055-10.6055c8.4961,8.4888,23.32,8.5034,31.8237,0a7.4992,7.4992,0,0,1,10.6055,10.6055A37.243,37.243,0,0,1,256.0032,358.1493Z" style="fill:#ff8080"/><path d="M255.9959,399.8394a111.5038,111.5038,0,0,1-47.6367-10.5579,29.7077,29.7077,0,0,1-16.5015-32.666l2.19-11.2536A34.4269,34.4269,0,0,1,210.073,322.459l8.5767-5.1635a7.5008,7.5008,0,0,1,7.7344,12.854l-8.5767,5.1635a19.4132,19.4132,0,0,0-9.0381,12.909l-2.19,11.2536a14.7363,14.7363,0,0,0,8.1372,16.22,98.1708,98.1708,0,0,0,82.5659,0A14.75,14.75,0,0,0,305.42,359.472l-2.19-11.2464a19.4119,19.4119,0,0,0-9.0381-12.9126L285.615,330.15a7.5008,7.5008,0,0,1,7.7344-12.854l8.5767,5.1635a34.4252,34.4252,0,0,1,16.0253,22.9065l2.19,11.2464a29.717,29.717,0,0,1-16.5015,32.67A111.5125,111.5125,0,0,1,255.9959,399.8394Z" style="fill:#521919"/><rect height="68.3763" rx="22.7921" style="fill:#ef9e8b" width="45.5842" x="233.208" y="263.5237"/><path d="M374.4986,233.5127H361v40.1514h13.4986a20.2465,20.2465,0,0,0,0-40.1514Z" style="fill:#ef9e8b"/><circle cx="314.9628" cy="250.5027" r="20.625" style="fill:#521919"/><circle cx="319.5735" cy="242.8182" r="7.6845" style="fill:#ffefdc"/><circle cx="197.0372" cy="250.5027" r="20.625" style="fill:#521919"/><circle cx="201.6479" cy="242.8182" r="7.6845" style="fill:#ffefdc"/><path d="M137.5016,233.5127H151v40.1514H137.5016a20.2465,20.2465,0,0,1,0-40.1514Z" style="fill:#ef9e8b"/><path d="M360.8408,216.6853A104.9274,104.9274,0,0,0,256,114.8384h0a104.9288,104.9288,0,0,0-104.84,101.8451c8.7227-28.9014,29.1971-47.1716,49.7768-58.6157C210.8243,172.28,231.73,182.11,256,182.11s45.1749-9.8309,55.0635-24.0417C331.6437,169.5119,352.119,187.784,360.8408,216.6853Z" style="fill:#521919"/></g></svg>