<?xml version="1.0" ?><svg viewBox="0 0 512 512" xmlns="http://www.w3.org/2000/svg"><g id="Male_malayan_skin_05"><path d="M317.1627,404.168l-7.4253,59.55a11.1994,11.1994,0,0,1-11.175,9.8254H213.4376a11.1993,11.1993,0,0,1-11.1749-9.8254l-7.4254-59.55a45.0062,45.0062,0,0,1,44.6251-50.625h33.0753A45.0061,45.0061,0,0,1,317.1627,404.168Z" style="fill:#f4e2ff"/><path d="M371.8266,219.8376H361v.0018a105,105,0,0,0-210,0v-.0018H140.1734a33.7514,33.7514,0,1,0,0,67.5027H151v-.0009a105,105,0,1,0,210,0v.0009h10.8266a33.7514,33.7514,0,1,0,0-67.5027Z" style="fill:#d87761"/><path d="M277.3674,376.1274H234.6329a8.6155,8.6155,0,0,0-5.9872,14.8106l21.3673,20.65a8.6157,8.6157,0,0,0,11.9743,0l21.3672-20.65A8.6154,8.6154,0,0,0,277.3674,376.1274Z" style="fill:#0d263e"/><path d="M256,358.15a37.243,37.243,0,0,1-26.5137-10.9826,7.4992,7.4992,0,0,1,10.6055-10.6055c8.4961,8.4961,23.32,8.4961,31.8164,0a7.4992,7.4992,0,1,1,10.6055,10.6055A37.243,37.243,0,0,1,256,358.15Z" style="fill:#8c1813"/><path d="M315.2383,339.0044a7.4637,7.4637,0,0,1-1.9483-.26l-21.7309-5.8227a7.4992,7.4992,0,1,1,3.8818-14.4873l21.731,5.8227a7.5018,7.5018,0,0,1-1.9336,14.7473Z" style="fill:#0d263e"/><path d="M196.7617,339.0044a7.5018,7.5018,0,0,1-1.9336-14.7473l21.731-5.8227a7.4992,7.4992,0,1,1,3.8818,14.4873L198.71,338.7444A7.4637,7.4637,0,0,1,196.7617,339.0044Z" style="fill:#0d263e"/><path d="M374.4984,233.5127H361v40.1514h13.4985a20.2465,20.2465,0,0,0,0-40.1514Z" style="fill:#bf5e48"/><path d="M137.5015,233.5127H151v40.1514H137.5015a20.2465,20.2465,0,0,1,0-40.1514Z" style="fill:#bf5e48"/><path d="M314.9627,201.7527a48.717,48.717,0,0,0-41.24,22.8735H238.2777a49.0111,49.0111,0,1,0,6.243,15h22.9587a48.7289,48.7289,0,1,0,47.4833-37.8735Z" style="fill:#8ca4bc"/><circle cx="314.9627" cy="250.5027" r="33.75" style="fill:#0d253d"/><circle cx="305.1318" cy="240.6718" r="11.25" style="fill:#ffefdc"/><circle cx="197.0373" cy="250.5027" r="33.75" style="fill:#0d253d"/><circle cx="187.2064" cy="240.6718" r="11.25" style="fill:#ffefdc"/><rect height="68.3763" rx="22.7921" style="fill:#bf5e48" width="45.5842" x="233.208" y="263.5237"/><path d="M361,219.8377a105,105,0,0,0-210,0c22.3892-84.0876,105-50.9125,105-50.9125S338.6109,135.75,361,219.8377Z" style="fill:#0d263e"/></g></svg>