<?xml version="1.0" ?><svg viewBox="0 0 512 512" xmlns="http://www.w3.org/2000/svg"><g id="Female_mongolian_skin_02"><rect height="251.9144" style="fill:#071b2b" width="225" x="143.4996" y="199.2949"/><path d="M304.8657,473.543H207.1343a11.2273,11.2273,0,0,1-10.7953-14.3116l18.14-63.4906a37.5,37.5,0,0,1,36.0569-27.1978h10.9278a37.5,37.5,0,0,1,36.0569,27.1978l18.14,63.4906A11.2273,11.2273,0,0,1,304.8657,473.543Z" style="fill:#f4e2ff"/><rect height="262.2149" rx="112.4697" style="fill:#f8c497" width="224.9396" x="143.5297" y="130.7736"/><path d="M255.9972,358.7992a37.2338,37.2338,0,0,1-26.5137-10.9863,7.4992,7.4992,0,1,1,10.6055-10.6055c8.4961,8.4961,23.313,8.5144,31.8237-.0037a7.5018,7.5018,0,0,1,10.6055,10.6128A37.2848,37.2848,0,0,1,255.9972,358.7992Z" style="fill:#f7725c"/><rect height="45" rx="15" style="fill:#ef9e72" width="30" x="240.9995" y="275.8604"/><path d="M297.357,271.0221a7.5,7.5,0,0,1-1.0913-14.9194l35.1929-5.2185a7.5,7.5,0,1,1,2.1973,14.8388l-35.1929,5.2185A7.5554,7.5554,0,0,1,297.357,271.0221Z" style="fill:#0d263e"/><path d="M214.6373,271.0221a7.5541,7.5541,0,0,1-1.1059-.0806l-35.1856-5.2185a7.5,7.5,0,1,1,2.1973-14.8388l35.1855,5.2185a7.5,7.5,0,0,1-1.0913,14.9194Z" style="fill:#0d263e"/><path d="M251.0757,102.0422C177.9208,104.6443,121,166.99,121,240.191V454.1591a12.05,12.05,0,0,0,12.05,12.05h19.341a12.05,12.05,0,0,0,12.05-12.05V244.4505a14.9963,14.9963,0,0,1,14.9963-14.9963h62.9593L256,199.2949l13.602,30.1593h62.96A14.9954,14.9954,0,0,1,347.5582,244.45V389.5058c0,.0011.0007,43.0646.0017,64.6575A12.0473,12.0473,0,0,0,359.61,466.21H378.95a12.05,12.05,0,0,0,12.05-12.05V236.9542A135.0028,135.0028,0,0,0,251.0757,102.0422Z" style="fill:#0d263e"/></g></svg>