<?xml version="1.0" ?><svg viewBox="0 0 512 512" xmlns="http://www.w3.org/2000/svg"><g id="Female_caucasian_skin_05"><path d="M389.9849,278.0225h-267.97s-7.6932,44.8883-37.0551,70.9918c0,0,42.7185,40.1917,171.04,40.1917s171.04-40.1917,171.04-40.1917C397.679,322.9108,389.9849,278.0225,389.9849,278.0225Z" style="fill:#521919"/><path d="M304.866,473.543H207.1347a11.2272,11.2272,0,0,1-10.7953-14.3116l18.14-63.4906a37.5,37.5,0,0,1,36.0569-27.1978h10.9278a37.5,37.5,0,0,1,36.0569,27.1978l18.14,63.4906A11.2272,11.2272,0,0,1,304.866,473.543Z" style="fill:#0d263e"/><path d="M377.7969,228.13h-10.459a112.3416,112.3416,0,0,0-222.6755,0H134.2039a33.7509,33.7509,0,1,0,0,67.5018h10.4585a112.3417,112.3417,0,0,0,222.6755,0h10.459a33.7509,33.7509,0,1,0,0-67.5018Z" style="fill:#f8c4b0"/><path d="M256,358.7981a37.2428,37.2428,0,0,1-26.5136-10.9826A7.4992,7.4992,0,1,1,240.0919,337.21c8.4961,8.4961,23.32,8.4961,31.8164,0a7.4992,7.4992,0,0,1,10.6055,10.6055A37.2428,37.2428,0,0,1,256,358.7981Z" style="fill:#ff4d4d"/><rect height="45" rx="15" style="fill:#ef9e8b" width="30" x="241.0003" y="275.8604"/><path d="M380.4685,241.8049H366.97v40.1513h13.4985a20.2464,20.2464,0,0,0,0-40.1513Z" style="fill:#ef9e8b"/><path d="M336.1748,244.94a7.4973,7.4973,0,0,0-10.6055,0l-2.3378,2.3383a20.6845,20.6845,0,1,0,10.605,10.6055l2.3383-2.3383A7.4973,7.4973,0,0,0,336.1748,244.94Z" style="fill:#004b28"/><circle cx="319.5728" cy="258.4668" r="7.6845" style="fill:#ffefdc"/><path d="M197.0366,245.5264a20.5217,20.5217,0,0,0-8.2681,1.7505l-2.3374-2.3365a7.4992,7.4992,0,0,0-10.6054,10.6055l2.3373,2.3364a20.6122,20.6122,0,1,0,18.8736-12.3559Z" style="fill:#004b28"/><circle cx="201.6473" cy="258.4668" r="7.6845" style="fill:#ffefdc"/><path d="M131.5319,241.8049H145.03v40.1513H131.5319a20.2464,20.2464,0,0,1,0-40.1513Z" style="fill:#ef9e8b"/><path d="M389.9855,213.2375v17.1744a34.2838,34.2838,0,0,0-12.15-2.2494h-10.35c-.0751,0-.0751-.0751-.15-.0751-33-21.45-68.4-11.5494-112.2748-16.7249-43.8752-5.1-57.75-40.2-57.75-40.2s-39.375,9.9006-52.5,55.8747c-.075.3753-.2252.7507-.3,1.1252h-10.275a34.3868,34.3868,0,0,0-12.225,2.2494V213.2375a133.9877,133.9877,0,0,1,267.9753,0Z" style="fill:#521919"/></g></svg>