<?xml version="1.0" ?><svg viewBox="0 0 512 512" xmlns="http://www.w3.org/2000/svg"><g id="Male_caucasian_skin_08"><path d="M272.5305,353.543H239.47a44.9514,44.9514,0,0,0-11.22,1.4612V473.543h55.5V355.0042A44.9451,44.9451,0,0,0,272.5305,353.543Z" style="fill:#f4e2ff"/><polygon points="278.762 441.067 256.038 463.194 233.238 440.394 251.313 353.543 261.137 353.543 278.762 441.067" style="fill:#eb5e59"/><path d="M309.73,463.6992l7.4478-59.5825A44.977,44.977,0,0,0,283.75,355.0042V473.543h14.8315A11.2372,11.2372,0,0,0,309.73,463.6992Z" style="fill:#243f57"/><path d="M194.822,404.1167l7.4478,59.5825a11.2361,11.2361,0,0,0,11.1483,9.8438H228.25V355.0042A44.9766,44.9766,0,0,0,194.822,404.1167Z" style="fill:#243f57"/><path d="M371.8266,219.8357H361v.0037a105,105,0,0,0-210,0v-.0037H140.1734a33.7519,33.7519,0,1,0,0,67.5037H151v-.001a105,105,0,0,0,210,0v.001h10.8266a33.7519,33.7519,0,1,0,0-67.5037Z" style="fill:#f8c4b0"/><path d="M256.0023,358.15a37.2846,37.2846,0,0,1-26.521-10.9827,7.5018,7.5018,0,0,1,10.6055-10.6128c8.518,8.5145,23.3276,8.5035,31.8237.0037a7.4992,7.4992,0,1,1,10.6055,10.6055A37.234,37.234,0,0,1,256.0023,358.15Z" style="fill:#ff8080"/><rect height="90" rx="30" style="fill:#ef9e8b" width="60" x="226" y="245.2107"/><path d="M374.4984,233.5116H361V273.663h13.4985a20.2465,20.2465,0,0,0,0-40.1514Z" style="fill:#ef9e8b"/><circle cx="314.9628" cy="250.5016" r="20.625" style="fill:#004b28"/><circle cx="319.5735" cy="242.8171" r="7.6845" style="fill:#ffefdc"/><circle cx="197.0372" cy="250.5016" r="20.625" style="fill:#004b28"/><circle cx="201.6479" cy="242.8171" r="7.6845" style="fill:#ffefdc"/><path d="M137.5015,233.5116H151V273.663H137.5015a20.2465,20.2465,0,0,1,0-40.1514Z" style="fill:#ef9e8b"/><path d="M361.3283,144.3817c0-49.7864-122.3735-112.98-196.9427-40.8508-49.5452,47.9205-45.7908,93.9814-37.5776,119.087a33.559,33.559,0,0,1,13.3649-2.7814H151c12.2136-43.4509,46.2124-56.9465,46.2124-56.9465s13.8382,35.1086,57.7409,40.2136c43.9027,5.1087,72.98-4.7637,106.0468,16.7329h10.8266a33.5545,33.5545,0,0,1,13.6532,2.937C403.6114,164.6851,361.3283,144.3817,361.3283,144.3817Z" style="fill:#521919"/></g></svg>