<?xml version="1.0" ?><svg viewBox="0 0 512 512" xmlns="http://www.w3.org/2000/svg"><g id="Male_mongolian_skin_04"><path d="M298.5818,473.543H213.4182a11.2352,11.2352,0,0,1-11.1484-9.8416l-7.4478-59.5825A44.995,44.995,0,0,1,239.47,353.543h33.061a44.9949,44.9949,0,0,1,44.6475,50.5759L309.73,463.7014A11.2351,11.2351,0,0,1,298.5818,473.543Z" style="fill:#f4e2ff"/><path d="M371.8266,219.8376H361v.0018a105,105,0,0,0-210,0v-.0018H140.1734a33.7514,33.7514,0,1,0,0,67.5027H151v-.0009a105,105,0,1,0,210,0v.0009h10.8266a33.7514,33.7514,0,1,0,0-67.5027Z" style="fill:#f8c497"/><path d="M256,358.15a37.243,37.243,0,0,1-26.5137-10.9826,7.4992,7.4992,0,0,1,10.6055-10.6055c8.4961,8.4961,23.32,8.4961,31.8164,0a7.4992,7.4992,0,1,1,10.6055,10.6055A37.243,37.243,0,0,1,256,358.15Z" style="fill:#f7725c"/><path d="M317.2451,354.1033a7.498,7.498,0,0,1-7.5-7.5V342.22a10.6412,10.6412,0,0,0-8.0347-10.3272l-15.9448-4.0356a7.4982,7.4982,0,1,1,3.6768-14.5386l15.9448,4.0356A25.6227,25.6227,0,0,1,324.7451,342.22v4.3835A7.498,7.498,0,0,1,317.2451,354.1033Z" style="fill:#0d263e"/><path d="M194.7549,354.1033a7.498,7.498,0,0,1-7.5-7.5V342.22a25.6227,25.6227,0,0,1,19.3579-24.8658l15.9448-4.0356a7.4982,7.4982,0,1,1,3.6768,14.5386L210.29,331.8926a10.6412,10.6412,0,0,0-8.0347,10.3272v4.3835A7.498,7.498,0,0,1,194.7549,354.1033Z" style="fill:#0d263e"/><rect height="60.0155" rx="16.6061" style="fill:#ef9e72" width="33.2122" x="239.3939" y="262.6054"/><path d="M374.4985,233.5127H361v40.1514h13.4985a20.2465,20.2465,0,0,0,0-40.1514Z" style="fill:#ef9e72"/><path d="M297.36,275.6133a7.5,7.5,0,0,1-1.0913-14.9194l35.1928-5.2185a7.5,7.5,0,0,1,2.1973,14.8389l-35.1929,5.2185A7.5677,7.5677,0,0,1,297.36,275.6133Z" style="fill:#0d263e"/><path d="M214.64,275.6133a7.5677,7.5677,0,0,1-1.1059-.08l-35.1929-5.2185a7.5,7.5,0,1,1,2.1973-14.8389l35.1928,5.2185a7.5,7.5,0,0,1-1.0913,14.9194Z" style="fill:#0d263e"/><path d="M137.5015,233.5127H151v40.1514H137.5015a20.2465,20.2465,0,0,1,0-40.1514Z" style="fill:#ef9e72"/><path d="M256,114.8391c-27.2731-2.9608-48.4168-20.354-48.4168-20.354s-.9677,18.2739,7.4552,28.645c0,0-15.1145-.78-24.6094-8.291,0,0,.1227,13.0078,5.2634,19.1309A104.8047,104.8047,0,0,0,151,219.8373c.0037-.011,9.8172-39.4941,51.6536-53.5016h.02c13.18,13.1634,32.1565,21.4819,53.3267,21.4819s40.1468-8.3185,53.3267-21.4819h.02c36.5144,12.2241,48.63,43.8446,51.1249,51.7016l.5287,1.8A105,105,0,0,0,256,114.8391Z" style="fill:#0d263e"/></g></svg>