<?xml version="1.0" ?><svg viewBox="0 0 512 512" xmlns="http://www.w3.org/2000/svg"><g id="Female_aethiopian_skin_04"><path d="M256,85.278h0a54.025,54.025,0,0,1,54.025,54.025V466.35a0,0,0,0,1,0,0h-108.05a0,0,0,0,1,0,0V139.303A54.025,54.025,0,0,1,256,85.278Z" style="fill:#330f0f"/><path d="M315.6609,459.2315l-18.14-63.49a37.2231,37.2231,0,0,0-7.1219-13.3667,64.4207,64.4207,0,0,1-83.1234,38.5821l-10.936,38.2746a11.2273,11.2273,0,0,0,10.795,14.3115h97.7316A11.2273,11.2273,0,0,0,315.6609,459.2315Z" style="fill:#ffc139"/><path d="M290.3987,382.3748a37.3893,37.3893,0,0,0-28.9352-13.8318H250.5358A37.5,37.5,0,0,0,214.48,395.7415l-7.2043,25.2154a64.4207,64.4207,0,0,0,83.1234-38.5821Z" style="fill:#a5442e"/><path d="M377.7967,228.13h-10.459A112.4041,112.4041,0,0,0,256.0005,130.775h0A112.4057,112.4057,0,0,0,144.6623,228.13H134.2042a33.7518,33.7518,0,1,0,0,67.5036h10.4581a112.4057,112.4057,0,0,0,111.3382,97.3554h0A112.4041,112.4041,0,0,0,367.3377,295.634h10.459a33.7518,33.7518,0,1,0,0-67.5036Z" style="fill:#a5442e"/><path d="M256.0023,358.7981a37.2839,37.2839,0,0,1-26.521-10.979,7.5018,7.5018,0,0,1,10.6055-10.6128c8.4961,8.5034,23.3276,8.5,31.8237.0037a7.4992,7.4992,0,1,1,10.6055,10.6054A37.23,37.23,0,0,1,256.0023,358.7981Z" style="fill:#8c1813"/><rect height="45" rx="15" style="fill:#8c2b15" width="30" x="241.0003" y="275.8616"/><path d="M380.4685,241.806H366.97v40.1514h13.4985a20.2465,20.2465,0,0,0,0-40.1514Z" style="fill:#8c2b15"/><path d="M336.1748,244.9416a7.4973,7.4973,0,0,0-10.6055,0l-2.3378,2.3383a20.6842,20.6842,0,1,0,10.605,10.6054l2.3383-2.3382A7.4975,7.4975,0,0,0,336.1748,244.9416Z" style="fill:#0d253d"/><circle cx="319.5728" cy="258.468" r="7.6845" style="fill:#ffefdc"/><path d="M197.0366,245.5275a20.5242,20.5242,0,0,0-8.2682,1.75l-2.3373-2.3364a7.4992,7.4992,0,0,0-10.6055,10.6055l2.3374,2.3364a20.6122,20.6122,0,1,0,18.8736-12.356Z" style="fill:#0d253d"/><circle cx="201.6473" cy="258.468" r="7.6845" style="fill:#ffefdc"/><path d="M131.5319,241.806H145.03v40.1514H131.5319a20.2465,20.2465,0,0,1,0-40.1514Z" style="fill:#8c2b15"/><path d="M367.2561,227.6009a112.4007,112.4007,0,0,0-111.2567-96.8261h-.0005a112.4015,112.4015,0,0,0-111.2544,96.8133c1.7633-4.4842,15.7429-37.2235,50.8983-44.5294a53.81,53.81,0,0,1,29.6882,2.016,89.7611,89.7611,0,0,0,61.3335,0,53.812,53.812,0,0,1,29.6887-2.016C351.5328,190.37,365.5088,223.1515,367.2561,227.6009Z" style="fill:#521919"/></g></svg>