<?xml version="1.0" ?><svg viewBox="0 0 512 512" xmlns="http://www.w3.org/2000/svg"><g id="Male_malayan_skin_01"><path d="M298.5818,473.543H213.4182a11.2352,11.2352,0,0,1-11.1484-9.8416l-7.4478-59.5825A44.995,44.995,0,0,1,239.47,353.543h33.061a44.9949,44.9949,0,0,1,44.6475,50.5759L309.73,463.7014A11.2351,11.2351,0,0,1,298.5818,473.543Z" style="fill:#8ca4bc"/><path d="M371.8266,219.8369H361v.0019a105,105,0,0,0-210,0v-.0019H140.1734a33.7519,33.7519,0,1,0,0,67.5037H151v-.0018a105,105,0,0,0,210,0v.0018h10.8266a33.7519,33.7519,0,1,0,0-67.5037Z" style="fill:#d87761"/><path d="M256,358.1493a37.243,37.243,0,0,1-26.5137-10.9826,7.4992,7.4992,0,0,1,10.6055-10.6055c8.4961,8.4961,23.32,8.4961,31.8164,0a7.4992,7.4992,0,1,1,10.6055,10.6055A37.243,37.243,0,0,1,256,358.1493Z" style="fill:#8c1813"/><rect height="68.3763" rx="22.7921" style="fill:#bf5e48" width="45.5842" x="233.208" y="263.5237"/><path d="M374.4984,233.5127H361v40.1514h13.4985a20.2465,20.2465,0,0,0,0-40.1514Z" style="fill:#bf5e48"/><circle cx="314.9628" cy="250.5027" r="20.625" style="fill:#521919"/><circle cx="319.5735" cy="242.8182" r="7.6845" style="fill:#ffefdc"/><circle cx="197.0373" cy="250.5027" r="20.625" style="fill:#521919"/><circle cx="201.648" cy="242.8182" r="7.6845" style="fill:#ffefdc"/><path d="M137.5015,233.5127H151v40.1514H137.5015a20.2465,20.2465,0,0,1,0-40.1514Z" style="fill:#bf5e48"/><path d="M361,216.8831c-9.75-31.5-33.3751-48.2245-34.95-49.2737,6.6-.6006,13.5-.9009,20.625-.9009A103.6125,103.6125,0,0,1,361,216.8831Z" style="fill:#8ca4bc"/><path d="M151,216.8831c9.75-31.5,33.3751-48.2245,34.95-49.2737-6.6-.6006-13.5-.9009-20.625-.9009A103.6115,103.6115,0,0,0,151,216.8831Z" style="fill:#8ca4bc"/><path d="M346.5761,166.7023C361.181,80.5321,245.5922,80.531,214.0505,80.531s-62.8968-23.9361-62.8968-23.9361c-2.469,30.9574,13.2707,49.468,13.2707,49.468-24.9984-3.1914-46.602-18.83-46.602-18.83-4.787,68.5466,47.6015,79.4691,47.6015,79.4691,50.5018,0,90.5761,15.7968,90.5761,15.7968S296.0743,166.7023,346.5761,166.7023Z" style="fill:#0d263e"/></g></svg>