<?xml version="1.0" ?><svg viewBox="0 0 512 512" xmlns="http://www.w3.org/2000/svg"><g id="Male_mongolian_skin_02"><path d="M298.5818,473.543H213.4182a11.2352,11.2352,0,0,1-11.1484-9.8416l-7.4478-59.5825A44.995,44.995,0,0,1,239.47,353.543h33.061a44.995,44.995,0,0,1,44.6475,50.5759L309.73,463.7014A11.2351,11.2351,0,0,1,298.5818,473.543Z" style="fill:#ffc139"/><path d="M371.8266,219.8368H361v.0037a105,105,0,1,0-210,0v-.0037H140.1734a33.7519,33.7519,0,1,0,0,67.5037H151V287.34a105,105,0,0,0,210,0v.0009h10.8266a33.7519,33.7519,0,1,0,0-67.5037Z" style="fill:#f8c497"/><path d="M256.0032,358.151a37.2382,37.2382,0,0,1-26.521-10.9863,7.4992,7.4992,0,1,1,10.6055-10.6055c8.4961,8.5034,23.3276,8.5034,31.8237,0a7.4992,7.4992,0,1,1,10.6055,10.6055A37.234,37.234,0,0,1,256.0032,358.151Z" style="fill:#f7725c"/><rect height="60.0155" rx="16.6061" style="fill:#ef9e72" width="33.2122" x="239.394" y="262.6054"/><path d="M374.4986,233.5127H361v40.1514h13.4986a20.2465,20.2465,0,0,0,0-40.1514Z" style="fill:#ef9e72"/><path d="M297.3631,275.6107a7.5,7.5,0,0,1-1.0913-14.9194l35.1855-5.2185a7.5,7.5,0,0,1,2.1973,14.8389L298.469,275.53A7.5677,7.5677,0,0,1,297.3631,275.6107Z" style="fill:#0d263e"/><path d="M214.6433,275.6107a7.5677,7.5677,0,0,1-1.1059-.0805l-35.1929-5.2185a7.5,7.5,0,0,1,2.1973-14.8389l35.1928,5.2185a7.5,7.5,0,0,1-1.0913,14.9194Z" style="fill:#0d263e"/><path d="M137.5016,233.5127H151v40.1514H137.5016a20.2465,20.2465,0,0,1,0-40.1514Z" style="fill:#ef9e72"/><path d="M361.0005,219.84v-.0018h.0256c.0664-.0055,2.4861-.15,5.6973,0h5.1036a33.5259,33.5259,0,0,1,7.62.943,211.7254,211.7254,0,0,1,18.1783-31.4026c-52.8332-143.23-180.7839-89.1905-180.7839-89.1905l-.7181-28.8027c-73.3244,14.042-67.58,79.5831-67.58,79.5831s-46.5957,32.7568-13.1028,95.31c0,0,19.8848-23.7767,53.06-35.6594,0,0,27.6227,29.1167,95.6015,26.7231l-9.3351-34.7074S311.277,224.3591,361.0005,219.84Z" style="fill:#0d263e"/></g></svg>