<?xml version="1.0" ?><svg viewBox="0 0 512 512" xmlns="http://www.w3.org/2000/svg"><g id="Male_aethiopian_skin_05"><path d="M228.9376,253.6591a35.2792,35.2792,0,0,1-29.3438,7.8824h0A34.8881,34.8881,0,0,1,174.63,242.62h0a35.0091,35.0091,0,0,1-32.41.1754h0a34.8222,34.8222,0,0,1-18.9167-32.9322h0A35.1344,35.1344,0,0,1,92.38,175.4388h0a34.9328,34.9328,0,0,1,30.396-35.1262h0A35.0272,35.0272,0,0,1,141.522,107.03h0a34.94,34.94,0,0,1,32.4959,0h0a34.9824,34.9824,0,0,1,24.9643-19.0066h0a34.9688,34.9688,0,0,1,29.34,7.8824h0a34.7429,34.7429,0,0,1,27.154-13.0489h0a34.9692,34.9692,0,0,1,27.24,12.9633h0a34.8414,34.8414,0,0,1,29.2583-7.9721h0a35.1317,35.1317,0,0,1,25.05,18.8312h0a35.0023,35.0023,0,0,1,32.41-.1753h0A35.0718,35.0718,0,0,1,388.4405,139.35h0a34.9554,34.9554,0,0,1,31.0931,34.0741h0v.6116h0c0,.1753.09.44.09.7014h0a35.0413,35.0413,0,0,1-30.7466,34.7755h0A34.8461,34.8461,0,0,1,370.0456,242.62h0a34.7649,34.7649,0,0,1-32.41-.0855h0a35.3784,35.3784,0,0,1-24.96,19.0066h0a35.0192,35.0192,0,0,1-29.3439-7.9722h0a34.7925,34.7925,0,0,1-27.2439,13.0531h0A34.9367,34.9367,0,0,1,228.9376,253.6591Z" style="fill:#0d263e"/><path d="M317.1626,404.168l-7.4254,59.55a11.1993,11.1993,0,0,1-11.1749,9.8254H213.4375a11.1993,11.1993,0,0,1-11.1749-9.8254l-7.4254-59.55a45.0062,45.0062,0,0,1,44.6251-50.625h33.0752A45.0061,45.0061,0,0,1,317.1626,404.168Z" style="fill:#f4e2ff"/><polygon points="278.762 441.067 256.037 463.194 233.238 440.394 251.312 353.543 261.137 353.543 278.762 441.067" style="fill:#27b286"/><path d="M371.8266,219.837H361v.0018a105,105,0,0,0-210,0v-.0018H140.1734a33.7518,33.7518,0,1,0,0,67.5036H151V287.34a105,105,0,0,0,210,0v.0009h10.8266a33.7518,33.7518,0,1,0,0-67.5036Z" style="fill:#a5442e"/><path d="M269.0716,317.668h-93.89A46.8586,46.8586,0,0,0,256,350.0429a46.8586,46.8586,0,0,0,80.8186-32.3749Z" style="fill:#0d263e"/><rect height="68.3763" rx="22.7921" style="fill:#8c2b15" width="45.5842" x="233.2079" y="263.5237"/><path d="M374.4985,233.5127H361v40.1514h13.4986a20.2465,20.2465,0,0,0,0-40.1514Z" style="fill:#8c2b15"/><circle cx="314.9627" cy="250.5027" r="20.625" style="fill:#0d253d"/><circle cx="319.5734" cy="242.8182" r="7.6845" style="fill:#ffefdc"/><circle cx="197.0371" cy="250.5027" r="20.625" style="fill:#0d253d"/><circle cx="201.6479" cy="242.8182" r="7.6845" style="fill:#ffefdc"/><path d="M137.5015,233.5127H151v40.1514H137.5015a20.2465,20.2465,0,0,1,0-40.1514Z" style="fill:#8c2b15"/></g></svg>