<?xml version="1.0" ?><svg viewBox="0 0 512 512" xmlns="http://www.w3.org/2000/svg"><g id="Male_caucasian_skin_05"><path d="M353.1009,464.5487V412.8422a60.7992,60.7992,0,0,0-60.7992-60.7992H219.6976a60.7987,60.7987,0,0,0-60.7987,60.7987v51.707a8.9943,8.9943,0,0,0,8.9943,8.9943H344.1067A8.9942,8.9942,0,0,0,353.1009,464.5487Z" style="fill:#f4e2ff"/><path d="M371.8266,219.8376H361v.0018a105,105,0,0,0-210,0v-.0018H140.173a33.7514,33.7514,0,1,0,0,67.5027H151v-.0009a105,105,0,1,0,210,0v.0009h10.8266a33.7514,33.7514,0,1,0,0-67.5027Z" style="fill:#f8c4b0"/><path d="M256.0032,358.15a37.26,37.26,0,0,1-26.521-10.9826,7.4992,7.4992,0,0,1,10.6055-10.6055c8.4887,8.4924,23.32,8.5,31.8237,0a7.4992,7.4992,0,0,1,10.6055,10.6055A37.243,37.243,0,0,1,256.0032,358.15Z" style="fill:#ff8080"/><path d="M151,287.34v41.5833a105,105,0,0,0,105,105h0a105,105,0,0,0,105-105V287.34Zm118.5864,86.4533H243.9552c-14.7811,0-28.0288-11.0706-28.8-25.8307a27.297,27.297,0,0,1,27.258-28.7622h26.4579c13.0275,0,24.8579,8.8366,27.4365,21.6064A27.3265,27.3265,0,0,1,269.5863,373.7935Z" style="fill:#521919"/><rect height="68.3763" rx="22.7921" style="fill:#ef9e8b" width="45.5842" x="233.2079" y="263.5243"/><path d="M374.4983,233.5127H361v40.1514h13.4985a20.2465,20.2465,0,0,0,0-40.1514Z" style="fill:#ef9e8b"/><circle cx="314.9627" cy="250.5027" r="20.625" style="fill:#521919"/><circle cx="319.5734" cy="242.8182" r="7.6845" style="fill:#ffefdc"/><circle cx="197.0372" cy="250.5027" r="20.625" style="fill:#521919"/><circle cx="201.6479" cy="242.8182" r="7.6845" style="fill:#ffefdc"/><path d="M137.5014,233.5127H151v40.1514H137.5014a20.2465,20.2465,0,0,1,0-40.1514Z" style="fill:#ef9e8b"/><path d="M327.1923,142.5958c.15.15.2248.3.3749.45a63.2989,63.2989,0,0,1,15.3749,41.25v17.4a18.1811,18.1811,0,0,0,18.0748,18.1494H371.892a33.07,33.07,0,0,1,10.275,1.5766,26.05,26.05,0,0,0,1.2753-8.0255c0-28.65-14.025-46.35-28.125-56.8506A85.7224,85.7224,0,0,0,327.1923,142.5958Z" style="fill:#521919"/><path d="M184.8074,142.5958c-.15.15-.2247.3-.3749.45a63.3,63.3,0,0,0-15.3749,41.25v17.4a18.1811,18.1811,0,0,1-18.0748,18.1494H140.1077a33.07,33.07,0,0,0-10.275,1.5766,26.05,26.05,0,0,1-1.2753-8.0255c0-28.65,14.025-46.35,28.125-56.8506A85.7234,85.7234,0,0,1,184.8074,142.5958Z" style="fill:#521919"/></g></svg>