<?xml version="1.0" ?><svg viewBox="0 0 512 512" xmlns="http://www.w3.org/2000/svg"><g id="Female_aethiopian_skin_05"><path d="M261.4639,368.543H250.5361a37.3721,37.3721,0,0,0-16.9793,4.1125V473.543h44.8883V372.6555A37.38,37.38,0,0,0,261.4639,368.543Z" style="fill:#f4e2ff"/><path d="M315.6613,459.23l-18.14-63.49a37.4468,37.4468,0,0,0-19.0759-23.0841V473.543h26.4276A11.23,11.23,0,0,0,315.6613,459.23Z" style="fill:#0d263e"/><path d="M214.479,395.74l-18.14,63.49a11.2289,11.2289,0,0,0,10.7959,14.3134h26.4222V372.6555A37.4393,37.4393,0,0,0,214.479,395.74Z" style="fill:#0d263e"/><path d="M377.7965,228.1317h-10.459A112.4052,112.4052,0,0,0,256,130.7745h0A112.4058,112.4058,0,0,0,144.662,228.1317H134.2035a33.7509,33.7509,0,1,0,0,67.5018H144.662A112.4059,112.4059,0,0,0,256,392.9907h0a112.4053,112.4053,0,0,0,111.3373-97.3572h10.459a33.7509,33.7509,0,1,0,0-67.5018Z" style="fill:#a5442e"/><path d="M256.0007,358.7994a37.2431,37.2431,0,0,1-26.5137-10.9827,7.4992,7.4992,0,0,1,10.6055-10.6055c8.4961,8.4961,23.32,8.4961,31.8164,0a7.4992,7.4992,0,0,1,10.6055,10.6055A37.2433,37.2433,0,0,1,256.0007,358.7994Z" style="fill:#8c1813"/><rect height="45" rx="15" style="fill:#8c2b15" width="30" x="241.0001" y="275.8619"/><path d="M380.4683,241.8063H366.97v40.1514h13.4985a20.2465,20.2465,0,0,0,0-40.1514Z" style="fill:#8c2b15"/><path d="M336.1745,244.9419a7.4972,7.4972,0,0,0-10.6054,0l-2.3378,2.3383a20.6842,20.6842,0,1,0,10.605,10.6054l2.3382-2.3382A7.4973,7.4973,0,0,0,336.1745,244.9419Z" style="fill:#0d253d"/><circle cx="319.5726" cy="258.4683" r="7.6845" style="fill:#ffefdc"/><path d="M197.0363,245.5278a20.5241,20.5241,0,0,0-8.2681,1.75l-2.3373-2.3364a7.4992,7.4992,0,0,0-10.6055,10.6055l2.3373,2.3364a20.6122,20.6122,0,1,0,18.8736-12.356Z" style="fill:#0d253d"/><circle cx="201.647" cy="258.4683" r="7.6845" style="fill:#ffefdc"/><path d="M131.5316,241.8063H145.03v40.1514H131.5316a20.2465,20.2465,0,0,1,0-40.1514Z" style="fill:#8c2b15"/><path d="M367.2559,227.6013a112.4007,112.4007,0,0,0-111.2568-96.8262h0a112.4014,112.4014,0,0,0-111.2544,96.8133c1.7633-4.4842,15.7429-37.2235,50.8983-44.5294a53.81,53.81,0,0,1,29.6882,2.016,89.76,89.76,0,0,0,61.3335,0,53.8119,53.8119,0,0,1,29.6887-2.016C351.5326,190.37,365.5086,223.1518,367.2559,227.6013Z" style="fill:#0d253d"/></g></svg>