<?xml version="1.0" ?><svg viewBox="0 0 512 512" xmlns="http://www.w3.org/2000/svg"><g id="Male_mongolian_skin_06"><path d="M272.53,353.543H239.4692a44.952,44.952,0,0,0-11.22,1.4612V473.543h55.5V355.0042A44.9449,44.9449,0,0,0,272.53,353.543Z" style="fill:#f4e2ff"/><path d="M309.73,463.6992l7.4478-59.5825A44.977,44.977,0,0,0,283.75,355.0042V473.543h14.8315A11.2372,11.2372,0,0,0,309.73,463.6992Z" style="fill:#243f57"/><path d="M194.8217,404.1167l7.4478,59.5825a11.2363,11.2363,0,0,0,11.1484,9.8438h14.8315V355.0042A44.9766,44.9766,0,0,0,194.8217,404.1167Z" style="fill:#243f57"/><path d="M371.8266,219.8372H361A104.9994,104.9994,0,0,0,256,114.839h0a105,105,0,0,0-105,105v-.0018H140.173a33.7519,33.7519,0,1,0,0,67.5037H151v-.0019a105,105,0,0,0,105,105h0A104.9994,104.9994,0,0,0,361,287.3409h10.8271a33.7519,33.7519,0,1,0,0-67.5037Z" style="fill:#f8c497"/><path d="M255.9991,358.1514a37.234,37.234,0,0,1-26.5137-10.9863A7.4992,7.4992,0,1,1,240.0909,336.56c8.4961,8.5034,23.32,8.5034,31.8164,0a7.4992,7.4992,0,1,1,10.6055,10.6055A37.234,37.234,0,0,1,255.9991,358.1514Z" style="fill:#f7725c"/><rect height="60.0155" rx="16.6061" style="fill:#ef9e72" width="33.2122" x="239.3937" y="262.6054"/><path d="M374.4983,233.5127H361v40.1514h13.4985a20.2465,20.2465,0,0,0,0-40.1514Z" style="fill:#ef9e72"/><path d="M297.3589,275.6111a7.5,7.5,0,0,1-1.0913-14.9194l35.1929-5.2185a7.5,7.5,0,0,1,2.1973,14.8389l-35.1929,5.2185A7.568,7.568,0,0,1,297.3589,275.6111Z" style="fill:#0d263e"/><path d="M214.6392,275.6111a7.5677,7.5677,0,0,1-1.1059-.0805L178.34,270.3121a7.5,7.5,0,1,1,2.1973-14.8389l35.1928,5.2185a7.5,7.5,0,0,1-1.0913,14.9194Z" style="fill:#0d263e"/><path d="M137.5013,233.5127H151v40.1514H137.5013a20.2465,20.2465,0,0,1,0-40.1514Z" style="fill:#ef9e72"/><path d="M256,104.0121A115.8272,115.8272,0,0,0,140.1733,219.8373l23.1647,20.31,23.1642-20.31,23.1647,20.31,23.1642-20.31,23.1647,20.31,23.1642-20.31,23.1647,20.31,23.1642-20.31,23.1646,20.31,23.1643-20.31h.0087A115.8272,115.8272,0,0,0,256,104.0121Z" style="fill:#eb5d25"/></g></svg>