<?xml version="1.0" ?><svg viewBox="0 0 512 512" xmlns="http://www.w3.org/2000/svg"><g id="Male_caucasian_skin_03"><path d="M317.1627,404.168l-7.4254,59.55a11.1994,11.1994,0,0,1-11.175,9.8254H213.4375a11.1994,11.1994,0,0,1-11.1749-9.8254l-7.4254-59.55a45.0062,45.0062,0,0,1,44.6251-50.625h33.0753A45.0062,45.0062,0,0,1,317.1627,404.168Z" style="fill:#243f57"/><path d="M371.8266,219.8372H361v.0018a105,105,0,0,0-210,0v-.0018H140.1734a33.7519,33.7519,0,1,0,0,67.5037H151v-.0019a105,105,0,0,0,210,0v.0019h10.8266a33.7519,33.7519,0,1,0,0-67.5037Z" style="fill:#f8c4b0"/><path d="M256,358.1514a37.234,37.234,0,0,1-26.5137-10.9863A7.4992,7.4992,0,1,1,240.0918,336.56c8.4961,8.5034,23.32,8.5034,31.8164,0a7.4992,7.4992,0,1,1,10.6055,10.6055A37.234,37.234,0,0,1,256,358.1514Z" style="fill:#ff8080"/><rect height="68.3763" rx="22.7921" style="fill:#ef9e8b" width="45.5842" x="233.2079" y="263.5237"/><path d="M374.4985,233.5127H361v40.1514h13.4985a20.2465,20.2465,0,0,0,0-40.1514Z" style="fill:#ef9e8b"/><circle cx="314.9627" cy="250.5027" r="20.625" style="fill:#004b28"/><circle cx="319.5734" cy="242.8182" r="7.6845" style="fill:#ffefdc"/><circle cx="197.0372" cy="250.5027" r="20.625" style="fill:#004b28"/><circle cx="201.6479" cy="242.8182" r="7.6845" style="fill:#ffefdc"/><path d="M137.5015,233.5127H151v40.1514H137.5015a20.2465,20.2465,0,0,1,0-40.1514Z" style="fill:#ef9e8b"/><path d="M235.58,200.8439a26.62,26.62,0,0,1-22.1418,5.9477h0a26.3254,26.3254,0,0,1-18.8371-14.2771h0a26.4169,26.4169,0,0,1-24.4557.1323h0a26.2756,26.2756,0,0,1-14.2739-24.8494h0a26.5112,26.5112,0,0,1-23.3326-25.9757h0a26.359,26.359,0,0,1,22.9357-26.505h0a26.43,26.43,0,0,1,14.1448-25.114h0a26.3645,26.3645,0,0,1,24.52,0h0A26.3963,26.3963,0,0,1,212.9765,75.861h0a26.3859,26.3859,0,0,1,22.1385,5.9477h0a26.2162,26.2162,0,0,1,20.4895-9.8462h0a26.3864,26.3864,0,0,1,20.554,9.7817h0a26.29,26.29,0,0,1,22.0773-6.0155h0A26.509,26.509,0,0,1,317.1375,89.938h0a26.4118,26.4118,0,0,1,24.4557-.1323h0a26.464,26.464,0,0,1,14.3416,24.7849h0a26.3761,26.3761,0,0,1,23.4617,25.7111h0v.4614h0c0,.1324.0678.3324.0678.5293h0a26.4408,26.4408,0,0,1-23.2,26.24h0a26.2936,26.2936,0,0,1-14.2094,24.9818h0a26.2319,26.2319,0,0,1-24.4556-.0646h0a26.6951,26.6951,0,0,1-18.834,14.3417h0a26.4243,26.4243,0,0,1-22.1418-6.0155h0a26.253,26.253,0,0,1-20.5572,9.8494h0A26.3624,26.3624,0,0,1,235.58,200.8439Z" style="fill:#eb5d25"/></g></svg>