<?xml version="1.0" ?><svg viewBox="0 0 512 512" xmlns="http://www.w3.org/2000/svg"><g id="Male_aethiopian_skin_04"><path d="M317.1626,404.168l-7.4254,59.55a11.1993,11.1993,0,0,1-11.1749,9.8254H213.4375a11.1993,11.1993,0,0,1-11.1749-9.8254l-7.4254-59.55a45.0061,45.0061,0,0,1,44.6251-50.625h33.0752A45.0061,45.0061,0,0,1,317.1626,404.168Z" style="fill:#f4e2ff"/><polygon points="278.762 441.067 256.037 463.194 233.238 440.394 251.312 353.543 261.137 353.543 278.762 441.067" style="fill:#3285e2"/><path d="M371.8266,219.8376H361v.0018a105,105,0,0,0-105-105h0a105,105,0,0,0-105,105v-.0018H140.1734a33.7514,33.7514,0,1,0,0,67.5027H151v-.0009a105,105,0,0,0,105,105h0a105,105,0,0,0,105-105v.0009h10.8266a33.7514,33.7514,0,1,0,0-67.5027Z" style="fill:#a5442e"/><path d="M277.3672,376.1274H234.6326a8.6154,8.6154,0,0,0-5.9871,14.8106l21.3673,20.65a8.6157,8.6157,0,0,0,11.9743,0l21.3672-20.65A8.6154,8.6154,0,0,0,277.3672,376.1274Z" style="fill:#0d263e"/><path d="M255.9991,358.15a37.243,37.243,0,0,1-26.5137-10.9826,7.4992,7.4992,0,0,1,10.6055-10.6055c8.4961,8.4961,23.32,8.4961,31.8164,0a7.4992,7.4992,0,0,1,10.6055,10.6055A37.2432,37.2432,0,0,1,255.9991,358.15Z" style="fill:#8c1813"/><rect height="68.3763" rx="22.7921" style="fill:#8c2b15" width="45.5842" x="233.2078" y="263.5237"/><path d="M374.4984,233.5127H361v40.1514h13.4986a20.2465,20.2465,0,0,0,0-40.1514Z" style="fill:#8c2b15"/><circle cx="314.9626" cy="250.5027" r="20.625" style="fill:#0d253d"/><circle cx="319.5733" cy="242.8182" r="7.6845" style="fill:#ffefdc"/><circle cx="197.037" cy="250.5027" r="20.625" style="fill:#0d253d"/><circle cx="201.6478" cy="242.8182" r="7.6845" style="fill:#ffefdc"/><path d="M137.5014,233.5127H151v40.1514H137.5014a20.2465,20.2465,0,0,1,0-40.1514Z" style="fill:#8c2b15"/><path d="M235.58,200.8439a26.6205,26.6205,0,0,1-22.1418,5.9477h0a26.3254,26.3254,0,0,1-18.8371-14.2771h0a26.4169,26.4169,0,0,1-24.4557.1323h0a26.2754,26.2754,0,0,1-14.2739-24.8494h0a26.5111,26.5111,0,0,1-23.3326-25.9757h0a26.359,26.359,0,0,1,22.9356-26.505h0a26.43,26.43,0,0,1,14.1448-25.114h0a26.3647,26.3647,0,0,1,24.52,0h0A26.3963,26.3963,0,0,1,212.9763,75.861h0a26.386,26.386,0,0,1,22.1386,5.9477h0a26.2162,26.2162,0,0,1,20.4895-9.8462h0a26.3865,26.3865,0,0,1,20.554,9.7817h0a26.29,26.29,0,0,1,22.0772-6.0155h0A26.5086,26.5086,0,0,1,317.1373,89.938h0a26.4118,26.4118,0,0,1,24.4557-.1323h0a26.4641,26.4641,0,0,1,14.3417,24.7849h0a26.3761,26.3761,0,0,1,23.4617,25.7111h0v.4614h0c0,.1324.0678.3324.0678.5293h0a26.4408,26.4408,0,0,1-23.2,26.24h0a26.2936,26.2936,0,0,1-14.2094,24.9818h0a26.2321,26.2321,0,0,1-24.4557-.0646h0a26.6949,26.6949,0,0,1-18.8339,14.3417h0a26.4242,26.4242,0,0,1-22.1418-6.0155h0a26.253,26.253,0,0,1-20.5572,9.8494h0A26.3622,26.3622,0,0,1,235.58,200.8439Z" style="fill:#0d263e"/></g></svg>