<?xml version="1.0" ?><svg viewBox="0 0 512 512" xmlns="http://www.w3.org/2000/svg"><g id="Male_mongolian_skin_05"><path d="M324.8084,404.168l-7.4253,59.55a11.1994,11.1994,0,0,1-11.175,9.8254H221.0833a11.1993,11.1993,0,0,1-11.1749-9.8254l-7.4254-59.55a45.0062,45.0062,0,0,1,44.6251-50.625h33.0752A45.0061,45.0061,0,0,1,324.8084,404.168Z" style="fill:#27b286"/><path d="M379.4724,219.8372H368.6458v.0018a105,105,0,0,0-210,0v-.0018H147.8192a33.7519,33.7519,0,1,0,0,67.5037h10.8266v-.0019a105,105,0,0,0,210,0v.0019h10.8266a33.7519,33.7519,0,1,0,0-67.5037Z" style="fill:#f8c497"/><path d="M263.649,358.1514a37.2382,37.2382,0,0,1-26.521-10.9863A7.4992,7.4992,0,1,1,247.7335,336.56c8.4961,8.5034,23.3276,8.5034,31.8237,0a7.4992,7.4992,0,1,1,10.6055,10.6055A37.234,37.234,0,0,1,263.649,358.1514Z" style="fill:#f7725c"/><rect height="60.0155" rx="16.6061" style="fill:#ef9e72" width="33.2122" x="247.0397" y="262.6054"/><path d="M382.1443,233.5127H368.6457v40.1514h13.4986a20.2465,20.2465,0,0,0,0-40.1514Z" style="fill:#ef9e72"/><circle cx="322.6085" cy="250.5027" r="20.625" style="fill:#0d253d"/><circle cx="327.2192" cy="242.8182" r="7.6845" style="fill:#ffefdc"/><circle cx="204.683" cy="250.5027" r="20.625" style="fill:#0d253d"/><circle cx="209.2937" cy="242.8182" r="7.6845" style="fill:#ffefdc"/><path d="M145.1473,233.5127h13.4986v40.1514H145.1473a20.2465,20.2465,0,0,1,0-40.1514Z" style="fill:#ef9e72"/><path d="M337.3833,121.6616h-3.3751A56.99,56.99,0,0,0,281.283,86.3369H127.533a57.025,57.025,0,0,0,12.3,35.3247h-41.1a63.6335,63.6335,0,0,0,36.6751,57.6745l12.3748,40.5011h10.8751a34.57,34.57,0,0,0,34.5748-34.5007h140.85a34.57,34.57,0,0,0,34.5749,34.5007h10.8l8.925-29.2511A53.3191,53.3191,0,0,0,337.3833,121.6616Z" style="fill:#0d263e"/><path d="M368.3171,208.276H284.4a7.5,7.5,0,0,0-7.5,7.5v8.8514H250.3917V215.776a7.5,7.5,0,0,0-7.5-7.5H158.9745a7.5,7.5,0,0,0-7.5,7.5v69.4556a7.5,7.5,0,0,0,7.5,7.5h83.9172a7.5,7.5,0,0,0,7.5-7.5V239.6274H276.9v45.6042a7.5,7.5,0,0,0,7.5,7.5h83.9172a7.5,7.5,0,0,0,7.5-7.5V215.776A7.5,7.5,0,0,0,368.3171,208.276ZM235.3917,277.7316H166.4745V223.276h68.9172Zm125.4254,0H291.9V223.276h68.9172Z" style="fill:#521919"/></g></svg>