<?xml version="1.0" ?><svg viewBox="0 0 512 512" xmlns="http://www.w3.org/2000/svg"><g id="Female_caucasian_skin_04"><rect height="277.8797" style="fill:#330f0f" width="225" x="143.5005" y="175.446"/><path d="M261.4642,368.543H250.5365a37.3725,37.3725,0,0,0-16.9794,4.1125V473.543h44.8883V372.6555A37.38,37.38,0,0,0,261.4642,368.543Z" style="fill:#f4e2ff"/><path d="M315.6616,459.23l-18.14-63.49a37.4468,37.4468,0,0,0-19.0759-23.0841V473.543H304.873A11.23,11.23,0,0,0,315.6616,459.23Z" style="fill:#0d263e"/><path d="M214.4793,395.74l-18.14,63.49A11.2288,11.2288,0,0,0,207.135,473.543h26.4221V372.6555A37.44,37.44,0,0,0,214.4793,395.74Z" style="fill:#0d263e"/><path d="M341.8529,270.9565h39.9278a0,0,0,0,1,0,0V468.3257a0,0,0,0,1,0,0h-79.234a0,0,0,0,1,0,0V310.2627A39.3062,39.3062,0,0,1,341.8529,270.9565Z" style="fill:#521919" transform="translate(684.3273 739.2822) rotate(180)"/><path d="M130.22,270.9565h79.234a0,0,0,0,1,0,0V468.3257a0,0,0,0,1,0,0H169.5261A39.3062,39.3062,0,0,1,130.22,429.02V270.9565A0,0,0,0,1,130.22,270.9565Z" style="fill:#521919"/><path d="M377.7967,228.1285h-10.459a112.4033,112.4033,0,0,0-111.3372-97.3553h0a112.4033,112.4033,0,0,0-111.3373,97.3553h-10.459a33.7514,33.7514,0,1,0,0,67.5028h10.459a112.405,112.405,0,0,0,111.3373,97.3563h0a112.4049,112.4049,0,0,0,111.3372-97.3563h10.459a33.7514,33.7514,0,1,0,0-67.5028Z" style="fill:#f8c4b0"/><path d="M255.9968,358.7981a37.234,37.234,0,0,1-26.5137-10.9863,7.4992,7.4992,0,1,1,10.6055-10.6055c8.4961,8.5034,23.3276,8.5034,31.8237,0a7.4992,7.4992,0,1,1,10.6055,10.6055A37.2382,37.2382,0,0,1,255.9968,358.7981Z" style="fill:#ff4d4d"/><path d="M380.4686,241.8037H366.97v40.1514h13.4985a20.2465,20.2465,0,0,0,0-40.1514Z" style="fill:#ef9e8b"/><path d="M131.532,241.8037h13.4985v40.1514H131.532a20.2465,20.2465,0,0,1,0-40.1514Z" style="fill:#ef9e8b"/><path d="M397.3006,228.92c0,1.8-.0751,3.6-.15,5.4A32.74,32.74,0,0,0,377.8,228.0944H367c-88.9508,0-111-52.6484-111-52.6484S233.95,228.0944,145,228.0944H134.2a32.7421,32.7421,0,0,0-19.3506,6.2255c-.0741-1.8-.1492-3.6-.1492-5.4a141.3,141.3,0,1,1,282.6,0Z" style="fill:#521919"/><path d="M314.9628,217.4a48.7166,48.7166,0,0,0-41.24,22.8735H238.2778a49.0111,49.0111,0,1,0,6.243,15h22.9586A48.729,48.729,0,1,0,314.9628,217.4Z" style="fill:#eb5e59"/><circle cx="314.9628" cy="266.1503" r="33.75" style="fill:#0d263e"/><circle cx="305.1319" cy="256.3194" r="11.25" style="fill:#ffefdc"/><circle cx="197.0374" cy="266.1503" r="33.75" style="fill:#0d263e"/><circle cx="187.2065" cy="256.3194" r="11.25" style="fill:#ffefdc"/><rect height="45" rx="15" style="fill:#ef9e8b" width="30" x="241.0004" y="275.8593"/></g></svg>