<?xml version="1.0" ?><svg viewBox="0 0 512 512" xmlns="http://www.w3.org/2000/svg"><g id="Male_caucasian_skin_11"><rect height="194.1704" style="fill:#cab8d8" width="239.7127" x="136.2875" y="219.8376"/><path d="M287.4864,352.0415H224.5123a36.0118,36.0118,0,0,0-36.0118,36.0118v74.272a11.2177,11.2177,0,0,0,11.2177,11.2177H312.2818A11.2177,11.2177,0,0,0,323.5,462.3253V388.0547A36.0132,36.0132,0,0,0,287.4864,352.0415Z" style="fill:#f4e2ff"/><rect height="277.5" rx="104.9999" style="fill:#f8c4b0" width="210" x="151" y="114.8395"/><path d="M277.3674,376.1274H234.6328a8.6154,8.6154,0,0,0-5.9871,14.8106l21.3673,20.65a8.6156,8.6156,0,0,0,11.9742,0l21.3673-20.65A8.6154,8.6154,0,0,0,277.3674,376.1274Z" style="fill:#0d263e"/><path d="M255.9994,358.1512a37.2338,37.2338,0,0,1-26.5136-10.9863,7.4992,7.4992,0,1,1,10.6054-10.6055c8.4961,8.5034,23.32,8.5034,31.8164,0a7.4992,7.4992,0,1,1,10.6055,10.6055A37.2338,37.2338,0,0,1,255.9994,358.1512Z" style="fill:#ff8080"/><rect height="68.3763" rx="22.7921" style="fill:#ef9e8b" width="45.5842" x="233.208" y="263.5237"/><circle cx="314.9628" cy="250.5027" r="20.625" style="fill:#521919"/><circle cx="319.5735" cy="242.8182" r="7.6845" style="fill:#ffefdc"/><circle cx="197.0372" cy="250.5027" r="20.625" style="fill:#521919"/><circle cx="201.6479" cy="242.8182" r="7.6845" style="fill:#ffefdc"/><polygon points="398.212 414.008 343.088 444.008 343.088 212.338 375.712 212.338 398.212 414.008" style="fill:#f4e2ff"/><polygon points="168.912 444.008 113.788 414.008 136.288 212.338 168.912 212.338 168.912 444.008" style="fill:#f4e2ff"/><path d="M256,69.8376a120,120,0,0,0-120,120H376A120.0007,120.0007,0,0,0,256,69.8376Z" style="fill:#f4e2ff"/><rect height="37.5" rx="18.75" style="fill:#0d263e" width="276.9249" x="117.5375" y="182.3376"/></g></svg>