<?xml version="1.0" ?><svg viewBox="0 0 512 512" xmlns="http://www.w3.org/2000/svg"><g id="Female_caucasian_skin_11"><path d="M339.0217,473.543a11.2647,11.2647,0,0,0,11.2647-11.2647V399.3391a40.5458,40.5458,0,0,0-40.5-40.5675H202.2146a40.5463,40.5463,0,0,0-40.5,40.5675v62.9392a11.2646,11.2646,0,0,0,11.2646,11.2647Z" style="fill:#0d263e"/><rect height="262.2149" rx="112.4697" style="fill:#f8c4b0" width="224.9396" x="143.5309" y="130.7745"/><path d="M255.9972,358.7981a37.2428,37.2428,0,0,1-26.5137-10.9826A7.4992,7.4992,0,0,1,240.089,337.21c8.5034,8.5034,23.3349,8.4888,31.8237,0a7.4992,7.4992,0,0,1,10.6055,10.6055A37.26,37.26,0,0,1,255.9972,358.7981Z" style="fill:#ff4d4d"/><rect height="45" rx="15" style="fill:#ef9e8b" width="30" x="241.0008" y="275.8613"/><path d="M336.1752,244.9413a7.4972,7.4972,0,0,0-10.6054,0L323.232,247.28a20.6845,20.6845,0,1,0,10.605,10.6055l2.3382-2.3383A7.4973,7.4973,0,0,0,336.1752,244.9413Z" style="fill:#004b28"/><circle cx="319.5733" cy="258.4677" r="7.6845" style="fill:#ffefdc"/><path d="M197.037,245.5273a20.5221,20.5221,0,0,0-8.2681,1.7505l-2.3373-2.3365a7.4992,7.4992,0,0,0-10.6055,10.6055l2.3373,2.3364a20.6122,20.6122,0,1,0,18.8736-12.3559Z" style="fill:#004b28"/><circle cx="201.6477" cy="258.4677" r="7.6845" style="fill:#ffefdc"/><path d="M144.6154,227.9891H367.3861a112.3741,112.3741,0,0,0-222.7707,0Z" style="fill:#330f0f"/><path d="M250.798,108.374c-73.0394,2.7612-129.7651,65.0954-129.765,138.1869V387.09a59.9366,59.9366,0,0,0,37.4158,55.636c28.4962,11.4867,61.8626,18.1,97.5512,18.1s69.055-6.6136,97.5512-18.1A59.9365,59.9365,0,0,0,390.967,387.09V243.2425C390.967,167.0932,327.581,105.4714,250.798,108.374ZM360.967,280.5191a104.967,104.967,0,1,1-209.934,0V243.2425a104.967,104.967,0,1,1,209.934,0Z" style="fill:#521919"/></g></svg>