<?xml version="1.0" ?><svg viewBox="0 0 512 512" xmlns="http://www.w3.org/2000/svg"><g id="Female_caucasian_skin_06"><path d="M188.3991,459.2315A11.2274,11.2274,0,0,0,199.195,473.543h97.7307a11.2274,11.2274,0,0,0,10.7959-14.3115L304.1327,446.67H191.988Z" style="fill:#f8c4b0"/><polygon points="205.274 400.169 191.988 446.67 304.133 446.67 290.847 400.169 205.274 400.169" style="fill:#eb5e59"/><path d="M289.5814,395.7415a37.5005,37.5005,0,0,0-36.0572-27.1985H242.5965a37.5,37.5,0,0,0-36.0571,27.1985l-1.2653,4.4275h85.5725Z" style="fill:#f8c4b0"/><path d="M248.06,130.9014a112.4036,112.4036,0,0,0-111.3163,97.2143H126.1478a33.7514,33.7514,0,1,0,0,67.5028h10.5533A112.4114,112.4114,0,0,0,360.53,280.6459V243.37A112.469,112.469,0,0,0,248.06,130.9014Z" style="fill:#f8c4b0"/><path d="M248.0576,358.9263A37.2337,37.2337,0,0,1,221.5439,347.94a7.4992,7.4992,0,1,1,10.6055-10.6054c8.4888,8.5,23.3057,8.5107,31.8237-.0037a7.5018,7.5018,0,0,1,10.6055,10.6128A37.285,37.285,0,0,1,248.0576,358.9263Z" style="fill:#ff4d4d"/><rect height="45" rx="15" style="fill:#ef9e8b" width="30" x="233.0605" y="275.9877"/><path d="M328.2349,245.0677a7.4973,7.4973,0,0,0-10.6055,0l-2.3378,2.3382a20.684,20.684,0,1,0,10.6051,10.6055l2.3382-2.3382A7.4973,7.4973,0,0,0,328.2349,245.0677Z" style="fill:#004b28"/><circle cx="311.6329" cy="258.5941" r="7.6845" style="fill:#ffefdc"/><path d="M189.0967,245.6536a20.5237,20.5237,0,0,0-8.2681,1.75l-2.3373-2.3364a7.4992,7.4992,0,0,0-10.6055,10.6055l2.3373,2.3364a20.6122,20.6122,0,1,0,18.8736-12.356Z" style="fill:#004b28"/><circle cx="193.7074" cy="258.5941" r="7.6845" style="fill:#ffefdc"/><path d="M123.4761,241.7911h13.4986v40.1513H123.4761a20.2465,20.2465,0,0,1,0-40.1513Z" style="fill:#ef9e8b"/><path d="M344.1139,398.1914s166.9576-190.4709,4.4254-273.3332c-29.2218-92.35-182.8508-62.9887-223-.4355-25.7,40.0418-20.2694,82.53-8.0654,104.9638a33.2954,33.2954,0,0,1,8.6737-1.2708h10.4682s17.3272-14.0954,68.71-14.0954,91.6022-29.7363,91.6022-29.7363h.0009c0,.0055-1.0016,32.5488,18.6264,64.4311,22.6108,36.731,34.7287,78.9368,30.9695,121.9043Z" style="fill:#521919"/></g></svg>