<?xml version="1.0" ?><svg viewBox="0 0 512 512" xmlns="http://www.w3.org/2000/svg"><g id="Male_caucasian_skin_01"><path d="M317.1627,404.168l-7.4254,59.55a11.1993,11.1993,0,0,1-11.1749,9.8254H213.4376a11.1993,11.1993,0,0,1-11.1749-9.8254l-7.4254-59.55a45.0062,45.0062,0,0,1,44.6251-50.625h33.0752A45.0061,45.0061,0,0,1,317.1627,404.168Z" style="fill:#f4e2ff"/><polygon points="278.762 441.067 256.038 463.194 233.238 440.394 251.313 353.543 261.137 353.543 278.762 441.067" style="fill:#243f57"/><rect height="79.1689" style="fill:#ffb019" width="25.2644" x="128.0211" y="182.8503"/><path d="M371.8266,219.86H361v.0018a105,105,0,0,0-210,0V219.86H140.1734a33.7519,33.7519,0,1,0,0,67.5037H151v-.0019a105,105,0,0,0,210,0v.0019h10.8266a33.7519,33.7519,0,1,0,0-67.5037Z" style="fill:#f8c4b0"/><path d="M256.0023,358.1719a37.2968,37.2968,0,0,1-26.521-10.979A7.5018,7.5018,0,1,1,240.0868,336.58c8.5107,8.5034,23.3276,8.5,31.8237.0036a7.4992,7.4992,0,0,1,10.6055,10.6055A37.2433,37.2433,0,0,1,256.0023,358.1719Z" style="fill:#ff8080"/><rect height="90" rx="30" style="fill:#ef9e8b" width="60" x="226" y="245.2344"/><path d="M374.4984,233.5353H361v40.1513h13.4985a20.2464,20.2464,0,0,0,0-40.1513Z" style="fill:#ef9e8b"/><circle cx="314.9628" cy="250.5253" r="20.625" style="fill:#0167a3"/><circle cx="319.5735" cy="242.8408" r="7.6845" style="fill:#ffefdc"/><circle cx="197.0372" cy="250.5253" r="20.625" style="fill:#0167a3"/><circle cx="201.6479" cy="242.8408" r="7.6845" style="fill:#ffefdc"/><path d="M137.5015,233.5353H151v40.1513H137.5015a20.2464,20.2464,0,0,1,0-40.1513Z" style="fill:#ef9e8b"/><path d="M361,219.861h10.8266a33.4654,33.4654,0,0,1,12.1522,2.351V169.5948a45.959,45.959,0,0,0-45.9576-45.9594A38.7743,38.7743,0,0,0,299.2448,84.861H151.3981a38.3771,38.3771,0,0,0-38.377,38.3752V158.982a38.378,38.378,0,0,0,38.377,38.379h164.123a22.5005,22.5005,0,0,0,22.5,22.5Z" style="fill:#ffc139"/></g></svg>