<?xml version="1.0" ?><svg viewBox="0 0 512 512" xmlns="http://www.w3.org/2000/svg" xmlns:xlink="http://www.w3.org/1999/xlink"><defs><linearGradient gradientTransform="translate(2624.1916 269.5948) rotate(-30)" gradientUnits="userSpaceOnUse" id="linear-gradient" x1="-2061.0241" x2="-1990.8651" y1="-1115.213" y2="-993.6939"><stop offset="0" stop-color="#5b1b1b"/><stop offset="1" stop-color="#491616"/></linearGradient></defs><g id="Female_caucasian_skin_10"><path d="M360.7867,353.4027l-.0942.0239a41.4194,41.4194,0,1,0-77.241,19.2989c21.2646,36.8313,73.3884,64.0284,119.5789,32.04C403.03,404.7655,358.55,391.8892,360.7867,353.4027Z" style="fill:url(#linear-gradient)"/><path d="M214.4794,395.74l-18.14,63.49a11.2288,11.2288,0,0,0,10.7959,14.3134h26.4221V372.6555A37.44,37.44,0,0,0,214.4794,395.74Z" style="fill:#ffc139"/><path d="M261.4643,368.543H250.5366a37.3725,37.3725,0,0,0-16.9794,4.1125V473.543h44.8883V372.6555A37.38,37.38,0,0,0,261.4643,368.543Z" style="fill:#0d263e"/><path d="M315.6617,459.23l-18.14-63.49a37.4465,37.4465,0,0,0-19.0759-23.0841V473.543h26.4276A11.23,11.23,0,0,0,315.6617,459.23Z" style="fill:#ffc139"/><path d="M377.7967,228.13h-10.459a112.4041,112.4041,0,0,0-111.3372-97.3562h0A112.4041,112.4041,0,0,0,144.6632,228.13h-10.459a33.7514,33.7514,0,1,0,0,67.5028h10.459a112.4049,112.4049,0,0,0,111.3373,97.3562h0a112.4049,112.4049,0,0,0,111.3372-97.3562h10.459a33.7514,33.7514,0,1,0,0-67.5028Z" style="fill:#f8c4b0"/><path d="M256.0023,358.7994a37.285,37.285,0,0,1-26.521-10.9827,7.5018,7.5018,0,0,1,10.6055-10.6128c8.518,8.5144,23.3349,8.5034,31.8237.0037A7.4992,7.4992,0,1,1,282.516,347.813,37.2337,37.2337,0,0,1,256.0023,358.7994Z" style="fill:#ff4d4d"/><rect height="45" rx="15" style="fill:#ef9e8b" width="30" x="241.0004" y="275.8604"/><path d="M380.4686,241.8049H366.97v40.1513h13.4985a20.2464,20.2464,0,0,0,0-40.1513Z" style="fill:#ef9e8b"/><path d="M336.1749,244.94a7.4973,7.4973,0,0,0-10.6055,0l-2.3378,2.3383a20.6845,20.6845,0,1,0,10.605,10.6055l2.3383-2.3383A7.4973,7.4973,0,0,0,336.1749,244.94Z" style="fill:#004b28"/><circle cx="319.5729" cy="258.4668" r="7.6845" style="fill:#ffefdc"/><path d="M197.0367,245.5264a20.5217,20.5217,0,0,0-8.2681,1.7505l-2.3374-2.3365a7.4992,7.4992,0,0,0-10.6055,10.6055l2.3374,2.3364a20.6122,20.6122,0,1,0,18.8736-12.3559Z" style="fill:#004b28"/><circle cx="201.6474" cy="258.4668" r="7.6845" style="fill:#ffefdc"/><path d="M131.532,241.8049h13.4985v40.1513H131.532a20.2464,20.2464,0,0,1,0-40.1513Z" style="fill:#ef9e8b"/><path d="M367.4637,228.13h10.3327a33.4982,33.4982,0,0,1,12.1893,2.3639V213.2582a133.9856,133.9856,0,0,0-267.9712,0v17.2357a33.5019,33.5019,0,0,1,12.1893-2.3639H145.03c88.9472,0,110.9693-52.6575,110.9693-52.6575s22.0221,52.6575,110.97,52.6575h.4944Z" style="fill:#521919"/></g></svg>